ISO-10303-21;
HEADER;
/* Generated by software containing ST-Developer
 * from STEP Tools, Inc. (www.steptools.com) 
 */
/* OPTION: using custom renumber hook */

FILE_DESCRIPTION(
/* description */ ('STEP AP242 Edition 2',
'CAx-IF Rec.Pracs.---Representation and Presentation of Product Manufa
cturing Information (PMI)---4.0---2014-10-13',
'CAx-IF Rec.Pracs.---3D Tessellated Geometry---0.4---2014-09-14','2;1',
'CAx-IF Rec.Pracs.---User Defined Attributes---1.5---2016-08-15'),
/* implementation_level */ '2;1');

FILE_NAME(
/* name */ 'axel models',
/* time_stamp */ '2026-08-04T01:13:53Z',
/* author */ (''),
/* organization */ (''),
/* preprocessor_version */ 'ST-DEVELOPER v20',
/* originating_system */ 'ONSHAPE BY PTC INC, 1.218',
/* authorisation */ '  ');

FILE_SCHEMA (('AP242_MANAGED_MODEL_BASED_3D_ENGINEERING_MIM_LF { 1 0 10303 442 3 1 4 }'));
ENDSEC;

DATA;
#10=TOROIDAL_SURFACE('',#828,0.01651,0.00254);
#11=TOROIDAL_SURFACE('',#829,0.01651,0.00254);
#12=B_SPLINE_CURVE_WITH_KNOTS('',3,(#1177,#1178,#1179,#1180),
 .UNSPECIFIED.,.F.,.F.,(4,4),(0.,0.00109906298953905),.UNSPECIFIED.);
#13=B_SPLINE_CURVE_WITH_KNOTS('',3,(#1189,#1190,#1191,#1192),
 .UNSPECIFIED.,.F.,.F.,(4,4),(0.,0.0010977540688148),.UNSPECIFIED.);
#14=B_SPLINE_CURVE_WITH_KNOTS('',3,(#1202,#1203,#1204,#1205),
 .UNSPECIFIED.,.F.,.F.,(4,4),(0.,0.00109775406881477),.UNSPECIFIED.);
#15=B_SPLINE_CURVE_WITH_KNOTS('',3,(#1208,#1209,#1210,#1211),
 .UNSPECIFIED.,.F.,.F.,(4,4),(0.,0.00109906298953908),.UNSPECIFIED.);
#16=B_SPLINE_CURVE_WITH_KNOTS('',3,(#1221,#1222,#1223,#1224),
 .UNSPECIFIED.,.F.,.F.,(4,4),(0.,0.00109775406881479),.UNSPECIFIED.);
#17=B_SPLINE_CURVE_WITH_KNOTS('',3,(#1227,#1228,#1229,#1230),
 .UNSPECIFIED.,.F.,.F.,(4,4),(0.,0.00109906298953909),.UNSPECIFIED.);
#18=B_SPLINE_CURVE_WITH_KNOTS('',3,(#1240,#1241,#1242,#1243),
 .UNSPECIFIED.,.F.,.F.,(4,4),(0.,0.00109775406881479),.UNSPECIFIED.);
#19=B_SPLINE_CURVE_WITH_KNOTS('',3,(#1246,#1247,#1248,#1249),
 .UNSPECIFIED.,.F.,.F.,(4,4),(0.,0.00109906298953905),.UNSPECIFIED.);
#20=B_SPLINE_CURVE_WITH_KNOTS('',3,(#1259,#1260,#1261,#1262),
 .UNSPECIFIED.,.F.,.F.,(4,4),(1.86967599114504E-34,0.00109775406881477),
 .UNSPECIFIED.);
#21=B_SPLINE_CURVE_WITH_KNOTS('',3,(#1265,#1266,#1267,#1268),
 .UNSPECIFIED.,.F.,.F.,(4,4),(0.,0.00109906298953907),.UNSPECIFIED.);
#22=B_SPLINE_CURVE_WITH_KNOTS('',3,(#1278,#1279,#1280,#1281),
 .UNSPECIFIED.,.F.,.F.,(4,4),(0.,0.0010977540688148),.UNSPECIFIED.);
#23=B_SPLINE_CURVE_WITH_KNOTS('',3,(#1284,#1285,#1286,#1287),
 .UNSPECIFIED.,.F.,.F.,(4,4),(0.,0.00109906298953909),.UNSPECIFIED.);
#24=LINE('',#1067,#72);
#25=LINE('',#1072,#73);
#26=LINE('',#1076,#74);
#27=LINE('',#1081,#75);
#28=LINE('',#1085,#76);
#29=LINE('',#1090,#77);
#30=LINE('',#1094,#78);
#31=LINE('',#1099,#79);
#32=LINE('',#1103,#80);
#33=LINE('',#1108,#81);
#34=LINE('',#1114,#82);
#35=LINE('',#1119,#83);
#36=LINE('',#1123,#84);
#37=LINE('',#1127,#85);
#38=LINE('',#1131,#86);
#39=LINE('',#1135,#87);
#40=LINE('',#1139,#88);
#41=LINE('',#1143,#89);
#42=LINE('',#1147,#90);
#43=LINE('',#1151,#91);
#44=LINE('',#1155,#92);
#45=LINE('',#1159,#93);
#46=LINE('',#1168,#94);
#47=LINE('',#1173,#95);
#48=LINE('',#1181,#96);
#49=LINE('',#1183,#97);
#50=LINE('',#1185,#98);
#51=LINE('',#1193,#99);
#52=LINE('',#1196,#100);
#53=LINE('',#1200,#101);
#54=LINE('',#1206,#102);
#55=LINE('',#1212,#103);
#56=LINE('',#1215,#104);
#57=LINE('',#1219,#105);
#58=LINE('',#1225,#106);
#59=LINE('',#1231,#107);
#60=LINE('',#1234,#108);
#61=LINE('',#1238,#109);
#62=LINE('',#1244,#110);
#63=LINE('',#1250,#111);
#64=LINE('',#1253,#112);
#65=LINE('',#1257,#113);
#66=LINE('',#1263,#114);
#67=LINE('',#1269,#115);
#68=LINE('',#1272,#116);
#69=LINE('',#1276,#117);
#70=LINE('',#1282,#118);
#71=LINE('',#1288,#119);
#72=VECTOR('',#864,1.);
#73=VECTOR('',#867,1.);
#74=VECTOR('',#872,1.);
#75=VECTOR('',#875,1.);
#76=VECTOR('',#880,1.);
#77=VECTOR('',#883,1.);
#78=VECTOR('',#888,1.);
#79=VECTOR('',#891,1.);
#80=VECTOR('',#896,1.);
#81=VECTOR('',#899,1.);
#82=VECTOR('',#906,1.);
#83=VECTOR('',#909,1.);
#84=VECTOR('',#912,1.);
#85=VECTOR('',#915,1.);
#86=VECTOR('',#918,1.);
#87=VECTOR('',#921,1.);
#88=VECTOR('',#924,1.);
#89=VECTOR('',#927,1.);
#90=VECTOR('',#930,1.);
#91=VECTOR('',#933,1.);
#92=VECTOR('',#936,1.);
#93=VECTOR('',#939,1.);
#94=VECTOR('',#950,1.);
#95=VECTOR('',#953,1.);
#96=VECTOR('',#958,1.);
#97=VECTOR('',#959,1.);
#98=VECTOR('',#962,1.);
#99=VECTOR('',#967,1.);
#100=VECTOR('',#972,1.);
#101=VECTOR('',#975,1.);
#102=VECTOR('',#978,1.);
#103=VECTOR('',#981,1.);
#104=VECTOR('',#986,1.);
#105=VECTOR('',#989,1.);
#106=VECTOR('',#992,1.);
#107=VECTOR('',#995,1.);
#108=VECTOR('',#1000,1.);
#109=VECTOR('',#1003,1.);
#110=VECTOR('',#1006,1.);
#111=VECTOR('',#1009,1.);
#112=VECTOR('',#1014,1.);
#113=VECTOR('',#1017,1.);
#114=VECTOR('',#1020,1.);
#115=VECTOR('',#1023,1.);
#116=VECTOR('',#1028,1.);
#117=VECTOR('',#1031,1.);
#118=VECTOR('',#1034,1.);
#119=VECTOR('',#1037,1.);
#120=SHAPE_REPRESENTATION_RELATIONSHIP('','',#744,#123);
#121=SHAPE_REPRESENTATION_RELATIONSHIP('','',#745,#124);
#122=SHAPE_REPRESENTATION_RELATIONSHIP('','',#746,#125);
#123=ADVANCED_BREP_SHAPE_REPRESENTATION('',(#738),#1295);
#124=ADVANCED_BREP_SHAPE_REPRESENTATION('',(#739),#1296);
#125=ADVANCED_BREP_SHAPE_REPRESENTATION('',(#740),#1297);
#126=PLANE('',#754);
#127=PLANE('',#755);
#128=PLANE('',#760);
#129=PLANE('',#761);
#130=PLANE('',#763);
#131=PLANE('',#766);
#132=PLANE('',#769);
#133=PLANE('',#772);
#134=PLANE('',#775);
#135=PLANE('',#795);
#136=PLANE('',#798);
#137=PLANE('',#801);
#138=PLANE('',#802);
#139=PLANE('',#805);
#140=PLANE('',#806);
#141=PLANE('',#807);
#142=PLANE('',#810);
#143=PLANE('',#811);
#144=PLANE('',#812);
#145=PLANE('',#815);
#146=PLANE('',#816);
#147=PLANE('',#817);
#148=PLANE('',#820);
#149=PLANE('',#821);
#150=PLANE('',#822);
#151=PLANE('',#825);
#152=PLANE('',#826);
#153=PLANE('',#827);
#154=ORIENTED_EDGE('',*,*,#352,.T.);
#155=ORIENTED_EDGE('',*,*,#353,.F.);
#156=ORIENTED_EDGE('',*,*,#354,.F.);
#157=ORIENTED_EDGE('',*,*,#355,.T.);
#158=ORIENTED_EDGE('',*,*,#352,.F.);
#159=ORIENTED_EDGE('',*,*,#354,.T.);
#160=ORIENTED_EDGE('',*,*,#353,.T.);
#161=ORIENTED_EDGE('',*,*,#355,.F.);
#162=ORIENTED_EDGE('',*,*,#356,.F.);
#163=ORIENTED_EDGE('',*,*,#357,.T.);
#164=ORIENTED_EDGE('',*,*,#356,.T.);
#165=ORIENTED_EDGE('',*,*,#357,.F.);
#166=ORIENTED_EDGE('',*,*,#358,.F.);
#167=ORIENTED_EDGE('',*,*,#359,.T.);
#168=ORIENTED_EDGE('',*,*,#360,.F.);
#169=ORIENTED_EDGE('',*,*,#361,.T.);
#170=ORIENTED_EDGE('',*,*,#362,.F.);
#171=ORIENTED_EDGE('',*,*,#363,.T.);
#172=ORIENTED_EDGE('',*,*,#364,.F.);
#173=ORIENTED_EDGE('',*,*,#365,.T.);
#174=ORIENTED_EDGE('',*,*,#366,.F.);
#175=ORIENTED_EDGE('',*,*,#367,.T.);
#176=ORIENTED_EDGE('',*,*,#368,.F.);
#177=ORIENTED_EDGE('',*,*,#369,.T.);
#178=ORIENTED_EDGE('',*,*,#370,.F.);
#179=ORIENTED_EDGE('',*,*,#371,.T.);
#180=ORIENTED_EDGE('',*,*,#372,.F.);
#181=ORIENTED_EDGE('',*,*,#373,.T.);
#182=ORIENTED_EDGE('',*,*,#374,.F.);
#183=ORIENTED_EDGE('',*,*,#375,.T.);
#184=ORIENTED_EDGE('',*,*,#376,.F.);
#185=ORIENTED_EDGE('',*,*,#377,.T.);
#186=ORIENTED_EDGE('',*,*,#378,.T.);
#187=ORIENTED_EDGE('',*,*,#379,.T.);
#188=ORIENTED_EDGE('',*,*,#380,.T.);
#189=ORIENTED_EDGE('',*,*,#381,.F.);
#190=ORIENTED_EDGE('',*,*,#382,.F.);
#191=ORIENTED_EDGE('',*,*,#383,.T.);
#192=ORIENTED_EDGE('',*,*,#384,.T.);
#193=ORIENTED_EDGE('',*,*,#385,.F.);
#194=ORIENTED_EDGE('',*,*,#386,.F.);
#195=ORIENTED_EDGE('',*,*,#387,.T.);
#196=ORIENTED_EDGE('',*,*,#388,.T.);
#197=ORIENTED_EDGE('',*,*,#389,.F.);
#198=ORIENTED_EDGE('',*,*,#390,.F.);
#199=ORIENTED_EDGE('',*,*,#391,.T.);
#200=ORIENTED_EDGE('',*,*,#392,.T.);
#201=ORIENTED_EDGE('',*,*,#393,.F.);
#202=ORIENTED_EDGE('',*,*,#394,.F.);
#203=ORIENTED_EDGE('',*,*,#395,.T.);
#204=ORIENTED_EDGE('',*,*,#396,.T.);
#205=ORIENTED_EDGE('',*,*,#397,.F.);
#206=ORIENTED_EDGE('',*,*,#398,.F.);
#207=ORIENTED_EDGE('',*,*,#399,.T.);
#208=ORIENTED_EDGE('',*,*,#400,.T.);
#209=ORIENTED_EDGE('',*,*,#401,.F.);
#210=ORIENTED_EDGE('',*,*,#402,.F.);
#211=ORIENTED_EDGE('',*,*,#403,.T.);
#212=ORIENTED_EDGE('',*,*,#404,.T.);
#213=ORIENTED_EDGE('',*,*,#405,.F.);
#214=ORIENTED_EDGE('',*,*,#406,.T.);
#215=ORIENTED_EDGE('',*,*,#407,.F.);
#216=ORIENTED_EDGE('',*,*,#408,.T.);
#217=ORIENTED_EDGE('',*,*,#381,.T.);
#218=ORIENTED_EDGE('',*,*,#409,.T.);
#219=ORIENTED_EDGE('',*,*,#362,.T.);
#220=ORIENTED_EDGE('',*,*,#410,.F.);
#221=ORIENTED_EDGE('',*,*,#411,.F.);
#222=ORIENTED_EDGE('',*,*,#365,.F.);
#223=ORIENTED_EDGE('',*,*,#412,.F.);
#224=ORIENTED_EDGE('',*,*,#413,.T.);
#225=ORIENTED_EDGE('',*,*,#410,.T.);
#226=ORIENTED_EDGE('',*,*,#364,.T.);
#227=ORIENTED_EDGE('',*,*,#414,.T.);
#228=ORIENTED_EDGE('',*,*,#383,.F.);
#229=ORIENTED_EDGE('',*,*,#415,.F.);
#230=ORIENTED_EDGE('',*,*,#412,.T.);
#231=ORIENTED_EDGE('',*,*,#382,.T.);
#232=ORIENTED_EDGE('',*,*,#411,.T.);
#233=ORIENTED_EDGE('',*,*,#413,.F.);
#234=ORIENTED_EDGE('',*,*,#415,.T.);
#235=ORIENTED_EDGE('',*,*,#361,.F.);
#236=ORIENTED_EDGE('',*,*,#416,.F.);
#237=ORIENTED_EDGE('',*,*,#417,.T.);
#238=ORIENTED_EDGE('',*,*,#418,.T.);
#239=ORIENTED_EDGE('',*,*,#360,.T.);
#240=ORIENTED_EDGE('',*,*,#419,.T.);
#241=ORIENTED_EDGE('',*,*,#379,.F.);
#242=ORIENTED_EDGE('',*,*,#420,.F.);
#243=ORIENTED_EDGE('',*,*,#416,.T.);
#244=ORIENTED_EDGE('',*,*,#401,.T.);
#245=ORIENTED_EDGE('',*,*,#421,.T.);
#246=ORIENTED_EDGE('',*,*,#358,.T.);
#247=ORIENTED_EDGE('',*,*,#418,.F.);
#248=ORIENTED_EDGE('',*,*,#422,.F.);
#249=ORIENTED_EDGE('',*,*,#417,.F.);
#250=ORIENTED_EDGE('',*,*,#420,.T.);
#251=ORIENTED_EDGE('',*,*,#402,.T.);
#252=ORIENTED_EDGE('',*,*,#422,.T.);
#253=ORIENTED_EDGE('',*,*,#408,.F.);
#254=ORIENTED_EDGE('',*,*,#423,.F.);
#255=ORIENTED_EDGE('',*,*,#424,.T.);
#256=ORIENTED_EDGE('',*,*,#425,.T.);
#257=ORIENTED_EDGE('',*,*,#407,.T.);
#258=ORIENTED_EDGE('',*,*,#426,.T.);
#259=ORIENTED_EDGE('',*,*,#399,.F.);
#260=ORIENTED_EDGE('',*,*,#427,.F.);
#261=ORIENTED_EDGE('',*,*,#423,.T.);
#262=ORIENTED_EDGE('',*,*,#397,.T.);
#263=ORIENTED_EDGE('',*,*,#428,.T.);
#264=ORIENTED_EDGE('',*,*,#405,.T.);
#265=ORIENTED_EDGE('',*,*,#425,.F.);
#266=ORIENTED_EDGE('',*,*,#429,.F.);
#267=ORIENTED_EDGE('',*,*,#424,.F.);
#268=ORIENTED_EDGE('',*,*,#427,.T.);
#269=ORIENTED_EDGE('',*,*,#398,.T.);
#270=ORIENTED_EDGE('',*,*,#429,.T.);
#271=ORIENTED_EDGE('',*,*,#377,.F.);
#272=ORIENTED_EDGE('',*,*,#430,.F.);
#273=ORIENTED_EDGE('',*,*,#431,.T.);
#274=ORIENTED_EDGE('',*,*,#432,.T.);
#275=ORIENTED_EDGE('',*,*,#376,.T.);
#276=ORIENTED_EDGE('',*,*,#433,.T.);
#277=ORIENTED_EDGE('',*,*,#395,.F.);
#278=ORIENTED_EDGE('',*,*,#434,.F.);
#279=ORIENTED_EDGE('',*,*,#430,.T.);
#280=ORIENTED_EDGE('',*,*,#393,.T.);
#281=ORIENTED_EDGE('',*,*,#435,.T.);
#282=ORIENTED_EDGE('',*,*,#374,.T.);
#283=ORIENTED_EDGE('',*,*,#432,.F.);
#284=ORIENTED_EDGE('',*,*,#436,.F.);
#285=ORIENTED_EDGE('',*,*,#431,.F.);
#286=ORIENTED_EDGE('',*,*,#434,.T.);
#287=ORIENTED_EDGE('',*,*,#394,.T.);
#288=ORIENTED_EDGE('',*,*,#436,.T.);
#289=ORIENTED_EDGE('',*,*,#373,.F.);
#290=ORIENTED_EDGE('',*,*,#437,.F.);
#291=ORIENTED_EDGE('',*,*,#438,.T.);
#292=ORIENTED_EDGE('',*,*,#439,.T.);
#293=ORIENTED_EDGE('',*,*,#372,.T.);
#294=ORIENTED_EDGE('',*,*,#440,.T.);
#295=ORIENTED_EDGE('',*,*,#391,.F.);
#296=ORIENTED_EDGE('',*,*,#441,.F.);
#297=ORIENTED_EDGE('',*,*,#437,.T.);
#298=ORIENTED_EDGE('',*,*,#389,.T.);
#299=ORIENTED_EDGE('',*,*,#442,.T.);
#300=ORIENTED_EDGE('',*,*,#370,.T.);
#301=ORIENTED_EDGE('',*,*,#439,.F.);
#302=ORIENTED_EDGE('',*,*,#443,.F.);
#303=ORIENTED_EDGE('',*,*,#438,.F.);
#304=ORIENTED_EDGE('',*,*,#441,.T.);
#305=ORIENTED_EDGE('',*,*,#390,.T.);
#306=ORIENTED_EDGE('',*,*,#443,.T.);
#307=ORIENTED_EDGE('',*,*,#369,.F.);
#308=ORIENTED_EDGE('',*,*,#444,.F.);
#309=ORIENTED_EDGE('',*,*,#445,.T.);
#310=ORIENTED_EDGE('',*,*,#446,.T.);
#311=ORIENTED_EDGE('',*,*,#368,.T.);
#312=ORIENTED_EDGE('',*,*,#447,.T.);
#313=ORIENTED_EDGE('',*,*,#387,.F.);
#314=ORIENTED_EDGE('',*,*,#448,.F.);
#315=ORIENTED_EDGE('',*,*,#444,.T.);
#316=ORIENTED_EDGE('',*,*,#385,.T.);
#317=ORIENTED_EDGE('',*,*,#449,.T.);
#318=ORIENTED_EDGE('',*,*,#366,.T.);
#319=ORIENTED_EDGE('',*,*,#446,.F.);
#320=ORIENTED_EDGE('',*,*,#450,.F.);
#321=ORIENTED_EDGE('',*,*,#445,.F.);
#322=ORIENTED_EDGE('',*,*,#448,.T.);
#323=ORIENTED_EDGE('',*,*,#386,.T.);
#324=ORIENTED_EDGE('',*,*,#450,.T.);
#325=ORIENTED_EDGE('',*,*,#403,.F.);
#326=ORIENTED_EDGE('',*,*,#378,.F.);
#327=ORIENTED_EDGE('',*,*,#419,.F.);
#328=ORIENTED_EDGE('',*,*,#359,.F.);
#329=ORIENTED_EDGE('',*,*,#421,.F.);
#330=ORIENTED_EDGE('',*,*,#400,.F.);
#331=ORIENTED_EDGE('',*,*,#426,.F.);
#332=ORIENTED_EDGE('',*,*,#406,.F.);
#333=ORIENTED_EDGE('',*,*,#428,.F.);
#334=ORIENTED_EDGE('',*,*,#396,.F.);
#335=ORIENTED_EDGE('',*,*,#433,.F.);
#336=ORIENTED_EDGE('',*,*,#375,.F.);
#337=ORIENTED_EDGE('',*,*,#435,.F.);
#338=ORIENTED_EDGE('',*,*,#392,.F.);
#339=ORIENTED_EDGE('',*,*,#440,.F.);
#340=ORIENTED_EDGE('',*,*,#371,.F.);
#341=ORIENTED_EDGE('',*,*,#442,.F.);
#342=ORIENTED_EDGE('',*,*,#388,.F.);
#343=ORIENTED_EDGE('',*,*,#447,.F.);
#344=ORIENTED_EDGE('',*,*,#367,.F.);
#345=ORIENTED_EDGE('',*,*,#449,.F.);
#346=ORIENTED_EDGE('',*,*,#384,.F.);
#347=ORIENTED_EDGE('',*,*,#414,.F.);
#348=ORIENTED_EDGE('',*,*,#363,.F.);
#349=ORIENTED_EDGE('',*,*,#409,.F.);
#350=ORIENTED_EDGE('',*,*,#380,.F.);
#351=ORIENTED_EDGE('',*,*,#404,.F.);
#352=EDGE_CURVE('',#451,#451,#520,.T.);
#353=EDGE_CURVE('',#452,#452,#521,.T.);
#354=EDGE_CURVE('',#453,#453,#522,.T.);
#355=EDGE_CURVE('',#454,#454,#523,.T.);
#356=EDGE_CURVE('',#455,#455,#524,.T.);
#357=EDGE_CURVE('',#456,#456,#525,.T.);
#358=EDGE_CURVE('',#457,#458,#24,.T.);
#359=EDGE_CURVE('',#457,#459,#526,.F.);
#360=EDGE_CURVE('',#460,#459,#25,.T.);
#361=EDGE_CURVE('',#460,#458,#527,.T.);
#362=EDGE_CURVE('',#461,#462,#26,.T.);
#363=EDGE_CURVE('',#461,#463,#528,.F.);
#364=EDGE_CURVE('',#464,#463,#27,.T.);
#365=EDGE_CURVE('',#464,#462,#529,.T.);
#366=EDGE_CURVE('',#465,#466,#28,.T.);
#367=EDGE_CURVE('',#465,#467,#530,.F.);
#368=EDGE_CURVE('',#468,#467,#29,.T.);
#369=EDGE_CURVE('',#468,#466,#531,.T.);
#370=EDGE_CURVE('',#469,#470,#30,.T.);
#371=EDGE_CURVE('',#469,#471,#532,.F.);
#372=EDGE_CURVE('',#472,#471,#31,.T.);
#373=EDGE_CURVE('',#472,#470,#533,.T.);
#374=EDGE_CURVE('',#473,#474,#32,.T.);
#375=EDGE_CURVE('',#473,#475,#534,.F.);
#376=EDGE_CURVE('',#476,#475,#33,.T.);
#377=EDGE_CURVE('',#476,#474,#535,.T.);
#378=EDGE_CURVE('',#477,#477,#536,.T.);
#379=EDGE_CURVE('',#478,#479,#34,.T.);
#380=EDGE_CURVE('',#479,#480,#537,.F.);
#381=EDGE_CURVE('',#481,#480,#35,.T.);
#382=EDGE_CURVE('',#482,#481,#538,.T.);
#383=EDGE_CURVE('',#482,#483,#36,.T.);
#384=EDGE_CURVE('',#483,#484,#539,.F.);
#385=EDGE_CURVE('',#485,#484,#37,.T.);
#386=EDGE_CURVE('',#486,#485,#540,.T.);
#387=EDGE_CURVE('',#486,#487,#38,.T.);
#388=EDGE_CURVE('',#487,#488,#541,.F.);
#389=EDGE_CURVE('',#489,#488,#39,.T.);
#390=EDGE_CURVE('',#490,#489,#542,.T.);
#391=EDGE_CURVE('',#490,#491,#40,.T.);
#392=EDGE_CURVE('',#491,#492,#543,.F.);
#393=EDGE_CURVE('',#493,#492,#41,.T.);
#394=EDGE_CURVE('',#494,#493,#544,.T.);
#395=EDGE_CURVE('',#494,#495,#42,.T.);
#396=EDGE_CURVE('',#495,#496,#545,.F.);
#397=EDGE_CURVE('',#497,#496,#43,.T.);
#398=EDGE_CURVE('',#498,#497,#546,.T.);
#399=EDGE_CURVE('',#498,#499,#44,.T.);
#400=EDGE_CURVE('',#499,#500,#547,.F.);
#401=EDGE_CURVE('',#501,#500,#45,.T.);
#402=EDGE_CURVE('',#478,#501,#548,.T.);
#403=EDGE_CURVE('',#502,#502,#549,.F.);
#404=EDGE_CURVE('',#503,#503,#550,.T.);
#405=EDGE_CURVE('',#504,#505,#46,.T.);
#406=EDGE_CURVE('',#504,#506,#551,.F.);
#407=EDGE_CURVE('',#507,#506,#47,.T.);
#408=EDGE_CURVE('',#507,#505,#552,.T.);
#409=EDGE_CURVE('',#480,#461,#12,.T.);
#410=EDGE_CURVE('',#508,#462,#48,.T.);
#411=EDGE_CURVE('',#481,#508,#49,.T.);
#412=EDGE_CURVE('',#509,#464,#50,.T.);
#413=EDGE_CURVE('',#509,#508,#553,.T.);
#414=EDGE_CURVE('',#463,#483,#13,.T.);
#415=EDGE_CURVE('',#509,#482,#51,.T.);
#416=EDGE_CURVE('',#510,#460,#52,.T.);
#417=EDGE_CURVE('',#510,#511,#554,.T.);
#418=EDGE_CURVE('',#511,#458,#53,.T.);
#419=EDGE_CURVE('',#459,#479,#14,.T.);
#420=EDGE_CURVE('',#510,#478,#54,.T.);
#421=EDGE_CURVE('',#500,#457,#15,.T.);
#422=EDGE_CURVE('',#501,#511,#55,.T.);
#423=EDGE_CURVE('',#512,#507,#56,.T.);
#424=EDGE_CURVE('',#512,#513,#555,.T.);
#425=EDGE_CURVE('',#513,#505,#57,.T.);
#426=EDGE_CURVE('',#506,#499,#16,.T.);
#427=EDGE_CURVE('',#512,#498,#58,.T.);
#428=EDGE_CURVE('',#496,#504,#17,.T.);
#429=EDGE_CURVE('',#497,#513,#59,.T.);
#430=EDGE_CURVE('',#514,#476,#60,.T.);
#431=EDGE_CURVE('',#514,#515,#556,.T.);
#432=EDGE_CURVE('',#515,#474,#61,.T.);
#433=EDGE_CURVE('',#475,#495,#18,.T.);
#434=EDGE_CURVE('',#514,#494,#62,.T.);
#435=EDGE_CURVE('',#492,#473,#19,.T.);
#436=EDGE_CURVE('',#493,#515,#63,.T.);
#437=EDGE_CURVE('',#516,#472,#64,.T.);
#438=EDGE_CURVE('',#516,#517,#557,.T.);
#439=EDGE_CURVE('',#517,#470,#65,.T.);
#440=EDGE_CURVE('',#471,#491,#20,.T.);
#441=EDGE_CURVE('',#516,#490,#66,.T.);
#442=EDGE_CURVE('',#488,#469,#21,.T.);
#443=EDGE_CURVE('',#489,#517,#67,.T.);
#444=EDGE_CURVE('',#518,#468,#68,.T.);
#445=EDGE_CURVE('',#518,#519,#558,.T.);
#446=EDGE_CURVE('',#519,#466,#69,.T.);
#447=EDGE_CURVE('',#467,#487,#22,.T.);
#448=EDGE_CURVE('',#518,#486,#70,.T.);
#449=EDGE_CURVE('',#484,#465,#23,.T.);
#450=EDGE_CURVE('',#485,#519,#71,.T.);
#451=VERTEX_POINT('',#1047);
#452=VERTEX_POINT('',#1049);
#453=VERTEX_POINT('',#1052);
#454=VERTEX_POINT('',#1054);
#455=VERTEX_POINT('',#1060);
#456=VERTEX_POINT('',#1062);
#457=VERTEX_POINT('',#1068);
#458=VERTEX_POINT('',#1069);
#459=VERTEX_POINT('',#1071);
#460=VERTEX_POINT('',#1073);
#461=VERTEX_POINT('',#1077);
#462=VERTEX_POINT('',#1078);
#463=VERTEX_POINT('',#1080);
#464=VERTEX_POINT('',#1082);
#465=VERTEX_POINT('',#1086);
#466=VERTEX_POINT('',#1087);
#467=VERTEX_POINT('',#1089);
#468=VERTEX_POINT('',#1091);
#469=VERTEX_POINT('',#1095);
#470=VERTEX_POINT('',#1096);
#471=VERTEX_POINT('',#1098);
#472=VERTEX_POINT('',#1100);
#473=VERTEX_POINT('',#1104);
#474=VERTEX_POINT('',#1105);
#475=VERTEX_POINT('',#1107);
#476=VERTEX_POINT('',#1109);
#477=VERTEX_POINT('',#1113);
#478=VERTEX_POINT('',#1115);
#479=VERTEX_POINT('',#1116);
#480=VERTEX_POINT('',#1118);
#481=VERTEX_POINT('',#1120);
#482=VERTEX_POINT('',#1122);
#483=VERTEX_POINT('',#1124);
#484=VERTEX_POINT('',#1126);
#485=VERTEX_POINT('',#1128);
#486=VERTEX_POINT('',#1130);
#487=VERTEX_POINT('',#1132);
#488=VERTEX_POINT('',#1134);
#489=VERTEX_POINT('',#1136);
#490=VERTEX_POINT('',#1138);
#491=VERTEX_POINT('',#1140);
#492=VERTEX_POINT('',#1142);
#493=VERTEX_POINT('',#1144);
#494=VERTEX_POINT('',#1146);
#495=VERTEX_POINT('',#1148);
#496=VERTEX_POINT('',#1150);
#497=VERTEX_POINT('',#1152);
#498=VERTEX_POINT('',#1154);
#499=VERTEX_POINT('',#1156);
#500=VERTEX_POINT('',#1158);
#501=VERTEX_POINT('',#1160);
#502=VERTEX_POINT('',#1164);
#503=VERTEX_POINT('',#1166);
#504=VERTEX_POINT('',#1169);
#505=VERTEX_POINT('',#1170);
#506=VERTEX_POINT('',#1172);
#507=VERTEX_POINT('',#1174);
#508=VERTEX_POINT('',#1182);
#509=VERTEX_POINT('',#1186);
#510=VERTEX_POINT('',#1197);
#511=VERTEX_POINT('',#1199);
#512=VERTEX_POINT('',#1216);
#513=VERTEX_POINT('',#1218);
#514=VERTEX_POINT('',#1235);
#515=VERTEX_POINT('',#1237);
#516=VERTEX_POINT('',#1254);
#517=VERTEX_POINT('',#1256);
#518=VERTEX_POINT('',#1273);
#519=VERTEX_POINT('',#1275);
#520=CIRCLE('',#749,0.0015875);
#521=CIRCLE('',#750,0.0015875);
#522=CIRCLE('',#752,0.00285189206052739);
#523=CIRCLE('',#753,0.00285189206052739);
#524=CIRCLE('',#758,0.0015875);
#525=CIRCLE('',#759,0.0015875);
#526=CIRCLE('',#764,0.01651);
#527=CIRCLE('',#765,0.0062489227496169);
#528=CIRCLE('',#767,0.01651);
#529=CIRCLE('',#768,0.0062489227496169);
#530=CIRCLE('',#770,0.01651);
#531=CIRCLE('',#771,0.0062489227496169);
#532=CIRCLE('',#773,0.01651);
#533=CIRCLE('',#774,0.0062489227496169);
#534=CIRCLE('',#776,0.01651);
#535=CIRCLE('',#777,0.00624892274961691);
#536=CIRCLE('',#779,0.0175794029159803);
#537=CIRCLE('',#780,0.0175794029159813);
#538=CIRCLE('',#781,0.0175794029159813);
#539=CIRCLE('',#782,0.0175794029159813);
#540=CIRCLE('',#783,0.0175794029159813);
#541=CIRCLE('',#784,0.0175794029159813);
#542=CIRCLE('',#785,0.0175794029159813);
#543=CIRCLE('',#786,0.0175794029159813);
#544=CIRCLE('',#787,0.0175794029159813);
#545=CIRCLE('',#788,0.0175794029159813);
#546=CIRCLE('',#789,0.0175794029159813);
#547=CIRCLE('',#790,0.0175794029159813);
#548=CIRCLE('',#791,0.0175794029159813);
#549=CIRCLE('',#793,0.01905);
#550=CIRCLE('',#794,0.01905);
#551=CIRCLE('',#796,0.01651);
#552=CIRCLE('',#797,0.0062489227496169);
#553=CIRCLE('',#800,0.0062489227496169);
#554=CIRCLE('',#804,0.0062489227496169);
#555=CIRCLE('',#809,0.0062489227496169);
#556=CIRCLE('',#814,0.00624892274961691);
#557=CIRCLE('',#819,0.0062489227496169);
#558=CIRCLE('',#824,0.0062489227496169);
#559=EDGE_LOOP('',(#154));
#560=EDGE_LOOP('',(#155));
#561=EDGE_LOOP('',(#156));
#562=EDGE_LOOP('',(#157));
#563=EDGE_LOOP('',(#158));
#564=EDGE_LOOP('',(#159));
#565=EDGE_LOOP('',(#160));
#566=EDGE_LOOP('',(#161));
#567=EDGE_LOOP('',(#162));
#568=EDGE_LOOP('',(#163));
#569=EDGE_LOOP('',(#164));
#570=EDGE_LOOP('',(#165));
#571=EDGE_LOOP('',(#166,#167,#168,#169));
#572=EDGE_LOOP('',(#170,#171,#172,#173));
#573=EDGE_LOOP('',(#174,#175,#176,#177));
#574=EDGE_LOOP('',(#178,#179,#180,#181));
#575=EDGE_LOOP('',(#182,#183,#184,#185));
#576=EDGE_LOOP('',(#186));
#577=EDGE_LOOP('',(#187,#188,#189,#190,#191,#192,#193,#194,#195,#196,#197,
#198,#199,#200,#201,#202,#203,#204,#205,#206,#207,#208,#209,#210));
#578=EDGE_LOOP('',(#211));
#579=EDGE_LOOP('',(#212));
#580=EDGE_LOOP('',(#213,#214,#215,#216));
#581=EDGE_LOOP('',(#217,#218,#219,#220,#221));
#582=EDGE_LOOP('',(#222,#223,#224,#225));
#583=EDGE_LOOP('',(#226,#227,#228,#229,#230));
#584=EDGE_LOOP('',(#231,#232,#233,#234));
#585=EDGE_LOOP('',(#235,#236,#237,#238));
#586=EDGE_LOOP('',(#239,#240,#241,#242,#243));
#587=EDGE_LOOP('',(#244,#245,#246,#247,#248));
#588=EDGE_LOOP('',(#249,#250,#251,#252));
#589=EDGE_LOOP('',(#253,#254,#255,#256));
#590=EDGE_LOOP('',(#257,#258,#259,#260,#261));
#591=EDGE_LOOP('',(#262,#263,#264,#265,#266));
#592=EDGE_LOOP('',(#267,#268,#269,#270));
#593=EDGE_LOOP('',(#271,#272,#273,#274));
#594=EDGE_LOOP('',(#275,#276,#277,#278,#279));
#595=EDGE_LOOP('',(#280,#281,#282,#283,#284));
#596=EDGE_LOOP('',(#285,#286,#287,#288));
#597=EDGE_LOOP('',(#289,#290,#291,#292));
#598=EDGE_LOOP('',(#293,#294,#295,#296,#297));
#599=EDGE_LOOP('',(#298,#299,#300,#301,#302));
#600=EDGE_LOOP('',(#303,#304,#305,#306));
#601=EDGE_LOOP('',(#307,#308,#309,#310));
#602=EDGE_LOOP('',(#311,#312,#313,#314,#315));
#603=EDGE_LOOP('',(#316,#317,#318,#319,#320));
#604=EDGE_LOOP('',(#321,#322,#323,#324));
#605=EDGE_LOOP('',(#325));
#606=EDGE_LOOP('',(#326));
#607=EDGE_LOOP('',(#327,#328,#329,#330,#331,#332,#333,#334,#335,#336,#337,
#338,#339,#340,#341,#342,#343,#344,#345,#346,#347,#348,#349,#350));
#608=EDGE_LOOP('',(#351));
#609=FACE_BOUND('',#559,.T.);
#610=FACE_BOUND('',#560,.T.);
#611=FACE_BOUND('',#561,.T.);
#612=FACE_BOUND('',#562,.T.);
#613=FACE_BOUND('',#563,.T.);
#614=FACE_BOUND('',#564,.T.);
#615=FACE_BOUND('',#565,.T.);
#616=FACE_BOUND('',#566,.T.);
#617=FACE_BOUND('',#567,.T.);
#618=FACE_BOUND('',#568,.T.);
#619=FACE_BOUND('',#569,.T.);
#620=FACE_BOUND('',#570,.T.);
#621=FACE_BOUND('',#571,.T.);
#622=FACE_BOUND('',#572,.T.);
#623=FACE_BOUND('',#573,.T.);
#624=FACE_BOUND('',#574,.T.);
#625=FACE_BOUND('',#575,.T.);
#626=FACE_BOUND('',#576,.T.);
#627=FACE_BOUND('',#577,.T.);
#628=FACE_BOUND('',#578,.T.);
#629=FACE_BOUND('',#579,.T.);
#630=FACE_BOUND('',#580,.T.);
#631=FACE_BOUND('',#581,.T.);
#632=FACE_BOUND('',#582,.T.);
#633=FACE_BOUND('',#583,.T.);
#634=FACE_BOUND('',#584,.T.);
#635=FACE_BOUND('',#585,.T.);
#636=FACE_BOUND('',#586,.T.);
#637=FACE_BOUND('',#587,.T.);
#638=FACE_BOUND('',#588,.T.);
#639=FACE_BOUND('',#589,.T.);
#640=FACE_BOUND('',#590,.T.);
#641=FACE_BOUND('',#591,.T.);
#642=FACE_BOUND('',#592,.T.);
#643=FACE_BOUND('',#593,.T.);
#644=FACE_BOUND('',#594,.T.);
#645=FACE_BOUND('',#595,.T.);
#646=FACE_BOUND('',#596,.T.);
#647=FACE_BOUND('',#597,.T.);
#648=FACE_BOUND('',#598,.T.);
#649=FACE_BOUND('',#599,.T.);
#650=FACE_BOUND('',#600,.T.);
#651=FACE_BOUND('',#601,.T.);
#652=FACE_BOUND('',#602,.T.);
#653=FACE_BOUND('',#603,.T.);
#654=FACE_BOUND('',#604,.T.);
#655=FACE_BOUND('',#605,.T.);
#656=FACE_BOUND('',#606,.T.);
#657=FACE_BOUND('',#607,.T.);
#658=FACE_BOUND('',#608,.T.);
#659=CYLINDRICAL_SURFACE('',#748,0.0015875);
#660=CYLINDRICAL_SURFACE('',#751,0.00285189206052739);
#661=CYLINDRICAL_SURFACE('',#757,0.0015875);
#662=CYLINDRICAL_SURFACE('',#778,0.0175794029159803);
#663=CYLINDRICAL_SURFACE('',#792,0.01905);
#664=CYLINDRICAL_SURFACE('',#799,0.0062489227496169);
#665=CYLINDRICAL_SURFACE('',#803,0.0062489227496169);
#666=CYLINDRICAL_SURFACE('',#808,0.0062489227496169);
#667=CYLINDRICAL_SURFACE('',#813,0.00624892274961691);
#668=CYLINDRICAL_SURFACE('',#818,0.0062489227496169);
#669=CYLINDRICAL_SURFACE('',#823,0.0062489227496169);
#670=ADVANCED_FACE('',(#609,#610),#659,.F.);
#671=ADVANCED_FACE('',(#611,#612),#660,.T.);
#672=ADVANCED_FACE('',(#613,#614),#126,.T.);
#673=ADVANCED_FACE('',(#615,#616),#127,.F.);
#674=ADVANCED_FACE('',(#617,#618),#661,.T.);
#675=ADVANCED_FACE('',(#619),#128,.T.);
#676=ADVANCED_FACE('',(#620),#129,.F.);
#677=ADVANCED_FACE('',(#621),#130,.F.);
#678=ADVANCED_FACE('',(#622),#131,.F.);
#679=ADVANCED_FACE('',(#623),#132,.F.);
#680=ADVANCED_FACE('',(#624),#133,.F.);
#681=ADVANCED_FACE('',(#625),#134,.F.);
#682=ADVANCED_FACE('',(#626,#627),#662,.F.);
#683=ADVANCED_FACE('',(#628,#629),#663,.T.);
#684=ADVANCED_FACE('',(#630),#135,.F.);
#685=ADVANCED_FACE('',(#631),#136,.F.);
#686=ADVANCED_FACE('',(#632),#664,.F.);
#687=ADVANCED_FACE('',(#633),#137,.F.);
#688=ADVANCED_FACE('',(#634),#138,.T.);
#689=ADVANCED_FACE('',(#635),#665,.F.);
#690=ADVANCED_FACE('',(#636),#139,.F.);
#691=ADVANCED_FACE('',(#637),#140,.F.);
#692=ADVANCED_FACE('',(#638),#141,.T.);
#693=ADVANCED_FACE('',(#639),#666,.F.);
#694=ADVANCED_FACE('',(#640),#142,.F.);
#695=ADVANCED_FACE('',(#641),#143,.F.);
#696=ADVANCED_FACE('',(#642),#144,.T.);
#697=ADVANCED_FACE('',(#643),#667,.F.);
#698=ADVANCED_FACE('',(#644),#145,.F.);
#699=ADVANCED_FACE('',(#645),#146,.F.);
#700=ADVANCED_FACE('',(#646),#147,.T.);
#701=ADVANCED_FACE('',(#647),#668,.F.);
#702=ADVANCED_FACE('',(#648),#148,.F.);
#703=ADVANCED_FACE('',(#649),#149,.F.);
#704=ADVANCED_FACE('',(#650),#150,.T.);
#705=ADVANCED_FACE('',(#651),#669,.F.);
#706=ADVANCED_FACE('',(#652),#151,.F.);
#707=ADVANCED_FACE('',(#653),#152,.F.);
#708=ADVANCED_FACE('',(#654),#153,.T.);
#709=ADVANCED_FACE('',(#655,#656),#10,.T.);
#710=ADVANCED_FACE('',(#657,#658),#11,.T.);
#711=CLOSED_SHELL('',(#670,#671,#672,#673));
#712=CLOSED_SHELL('',(#674,#675,#676));
#713=CLOSED_SHELL('',(#677,#678,#679,#680,#681,#682,#683,#684,#685,#686,
#687,#688,#689,#690,#691,#692,#693,#694,#695,#696,#697,#698,#699,#700,#701,
#702,#703,#704,#705,#706,#707,#708,#709,#710));
#714=STYLED_ITEM('',(#717),#738);
#715=STYLED_ITEM('',(#718),#739);
#716=STYLED_ITEM('',(#719),#740);
#717=PRESENTATION_STYLE_ASSIGNMENT((#720));
#718=PRESENTATION_STYLE_ASSIGNMENT((#721));
#719=PRESENTATION_STYLE_ASSIGNMENT((#722));
#720=SURFACE_STYLE_USAGE(.BOTH.,#723);
#721=SURFACE_STYLE_USAGE(.BOTH.,#724);
#722=SURFACE_STYLE_USAGE(.BOTH.,#725);
#723=SURFACE_SIDE_STYLE('',(#726));
#724=SURFACE_SIDE_STYLE('',(#727));
#725=SURFACE_SIDE_STYLE('',(#728));
#726=SURFACE_STYLE_FILL_AREA(#729);
#727=SURFACE_STYLE_FILL_AREA(#730);
#728=SURFACE_STYLE_FILL_AREA(#731);
#729=FILL_AREA_STYLE('',(#732));
#730=FILL_AREA_STYLE('',(#733));
#731=FILL_AREA_STYLE('',(#734));
#732=FILL_AREA_STYLE_COLOUR('',#735);
#733=FILL_AREA_STYLE_COLOUR('',#736);
#734=FILL_AREA_STYLE_COLOUR('',#737);
#735=COLOUR_RGB('',0.647058823529412,0.647058823529412,0.647058823529412);
#736=COLOUR_RGB('',0.231372549019608,0.380392156862745,0.705882352941177);
#737=COLOUR_RGB('',0.615686274509804,0.811764705882353,0.929411764705882);
#738=MANIFOLD_SOLID_BREP('Part 2',#711);
#739=MANIFOLD_SOLID_BREP('Part 3',#712);
#740=MANIFOLD_SOLID_BREP('Part 1',#713);
#741=SHAPE_DEFINITION_REPRESENTATION(#1310,#744);
#742=SHAPE_DEFINITION_REPRESENTATION(#1311,#745);
#743=SHAPE_DEFINITION_REPRESENTATION(#1312,#746);
#744=SHAPE_REPRESENTATION('Part 2',(#747),#1295);
#745=SHAPE_REPRESENTATION('Part 3',(#756),#1296);
#746=SHAPE_REPRESENTATION('Part 1',(#762),#1297);
#747=AXIS2_PLACEMENT_3D('',#1044,#830,#831);
#748=AXIS2_PLACEMENT_3D('',#1045,#832,#833);
#749=AXIS2_PLACEMENT_3D('',#1046,#834,#835);
#750=AXIS2_PLACEMENT_3D('',#1048,#836,#837);
#751=AXIS2_PLACEMENT_3D('',#1050,#838,#839);
#752=AXIS2_PLACEMENT_3D('',#1051,#840,#841);
#753=AXIS2_PLACEMENT_3D('',#1053,#842,#843);
#754=AXIS2_PLACEMENT_3D('',#1055,#844,#845);
#755=AXIS2_PLACEMENT_3D('',#1056,#846,#847);
#756=AXIS2_PLACEMENT_3D('',#1057,#848,#849);
#757=AXIS2_PLACEMENT_3D('',#1058,#850,#851);
#758=AXIS2_PLACEMENT_3D('',#1059,#852,#853);
#759=AXIS2_PLACEMENT_3D('',#1061,#854,#855);
#760=AXIS2_PLACEMENT_3D('',#1063,#856,#857);
#761=AXIS2_PLACEMENT_3D('',#1064,#858,#859);
#762=AXIS2_PLACEMENT_3D('',#1065,#860,#861);
#763=AXIS2_PLACEMENT_3D('',#1066,#862,#863);
#764=AXIS2_PLACEMENT_3D('',#1070,#865,#866);
#765=AXIS2_PLACEMENT_3D('',#1074,#868,#869);
#766=AXIS2_PLACEMENT_3D('',#1075,#870,#871);
#767=AXIS2_PLACEMENT_3D('',#1079,#873,#874);
#768=AXIS2_PLACEMENT_3D('',#1083,#876,#877);
#769=AXIS2_PLACEMENT_3D('',#1084,#878,#879);
#770=AXIS2_PLACEMENT_3D('',#1088,#881,#882);
#771=AXIS2_PLACEMENT_3D('',#1092,#884,#885);
#772=AXIS2_PLACEMENT_3D('',#1093,#886,#887);
#773=AXIS2_PLACEMENT_3D('',#1097,#889,#890);
#774=AXIS2_PLACEMENT_3D('',#1101,#892,#893);
#775=AXIS2_PLACEMENT_3D('',#1102,#894,#895);
#776=AXIS2_PLACEMENT_3D('',#1106,#897,#898);
#777=AXIS2_PLACEMENT_3D('',#1110,#900,#901);
#778=AXIS2_PLACEMENT_3D('',#1111,#902,#903);
#779=AXIS2_PLACEMENT_3D('',#1112,#904,#905);
#780=AXIS2_PLACEMENT_3D('',#1117,#907,#908);
#781=AXIS2_PLACEMENT_3D('',#1121,#910,#911);
#782=AXIS2_PLACEMENT_3D('',#1125,#913,#914);
#783=AXIS2_PLACEMENT_3D('',#1129,#916,#917);
#784=AXIS2_PLACEMENT_3D('',#1133,#919,#920);
#785=AXIS2_PLACEMENT_3D('',#1137,#922,#923);
#786=AXIS2_PLACEMENT_3D('',#1141,#925,#926);
#787=AXIS2_PLACEMENT_3D('',#1145,#928,#929);
#788=AXIS2_PLACEMENT_3D('',#1149,#931,#932);
#789=AXIS2_PLACEMENT_3D('',#1153,#934,#935);
#790=AXIS2_PLACEMENT_3D('',#1157,#937,#938);
#791=AXIS2_PLACEMENT_3D('',#1161,#940,#941);
#792=AXIS2_PLACEMENT_3D('',#1162,#942,#943);
#793=AXIS2_PLACEMENT_3D('',#1163,#944,#945);
#794=AXIS2_PLACEMENT_3D('',#1165,#946,#947);
#795=AXIS2_PLACEMENT_3D('',#1167,#948,#949);
#796=AXIS2_PLACEMENT_3D('',#1171,#951,#952);
#797=AXIS2_PLACEMENT_3D('',#1175,#954,#955);
#798=AXIS2_PLACEMENT_3D('',#1176,#956,#957);
#799=AXIS2_PLACEMENT_3D('',#1184,#960,#961);
#800=AXIS2_PLACEMENT_3D('',#1187,#963,#964);
#801=AXIS2_PLACEMENT_3D('',#1188,#965,#966);
#802=AXIS2_PLACEMENT_3D('',#1194,#968,#969);
#803=AXIS2_PLACEMENT_3D('',#1195,#970,#971);
#804=AXIS2_PLACEMENT_3D('',#1198,#973,#974);
#805=AXIS2_PLACEMENT_3D('',#1201,#976,#977);
#806=AXIS2_PLACEMENT_3D('',#1207,#979,#980);
#807=AXIS2_PLACEMENT_3D('',#1213,#982,#983);
#808=AXIS2_PLACEMENT_3D('',#1214,#984,#985);
#809=AXIS2_PLACEMENT_3D('',#1217,#987,#988);
#810=AXIS2_PLACEMENT_3D('',#1220,#990,#991);
#811=AXIS2_PLACEMENT_3D('',#1226,#993,#994);
#812=AXIS2_PLACEMENT_3D('',#1232,#996,#997);
#813=AXIS2_PLACEMENT_3D('',#1233,#998,#999);
#814=AXIS2_PLACEMENT_3D('',#1236,#1001,#1002);
#815=AXIS2_PLACEMENT_3D('',#1239,#1004,#1005);
#816=AXIS2_PLACEMENT_3D('',#1245,#1007,#1008);
#817=AXIS2_PLACEMENT_3D('',#1251,#1010,#1011);
#818=AXIS2_PLACEMENT_3D('',#1252,#1012,#1013);
#819=AXIS2_PLACEMENT_3D('',#1255,#1015,#1016);
#820=AXIS2_PLACEMENT_3D('',#1258,#1018,#1019);
#821=AXIS2_PLACEMENT_3D('',#1264,#1021,#1022);
#822=AXIS2_PLACEMENT_3D('',#1270,#1024,#1025);
#823=AXIS2_PLACEMENT_3D('',#1271,#1026,#1027);
#824=AXIS2_PLACEMENT_3D('',#1274,#1029,#1030);
#825=AXIS2_PLACEMENT_3D('',#1277,#1032,#1033);
#826=AXIS2_PLACEMENT_3D('',#1283,#1035,#1036);
#827=AXIS2_PLACEMENT_3D('',#1289,#1038,#1039);
#828=AXIS2_PLACEMENT_3D('',#1290,#1040,#1041);
#829=AXIS2_PLACEMENT_3D('',#1291,#1042,#1043);
#830=DIRECTION('',(0.,0.,1.));
#831=DIRECTION('',(1.,0.,0.));
#832=DIRECTION('',(0.,0.,-1.));
#833=DIRECTION('',(-1.,0.,0.));
#834=DIRECTION('',(0.,0.,1.));
#835=DIRECTION('',(1.,0.,0.));
#836=DIRECTION('',(0.,0.,1.));
#837=DIRECTION('',(1.,0.,0.));
#838=DIRECTION('',(0.,0.,-1.));
#839=DIRECTION('',(-1.,0.,0.));
#840=DIRECTION('',(0.,0.,1.));
#841=DIRECTION('',(1.,0.,0.));
#842=DIRECTION('',(0.,0.,1.));
#843=DIRECTION('',(1.,0.,0.));
#844=DIRECTION('',(0.,0.,1.));
#845=DIRECTION('',(1.,0.,0.));
#846=DIRECTION('',(0.,0.,1.));
#847=DIRECTION('',(1.,0.,0.));
#848=DIRECTION('',(0.,0.,1.));
#849=DIRECTION('',(1.,0.,0.));
#850=DIRECTION('',(0.,0.,-1.));
#851=DIRECTION('',(-1.,0.,0.));
#852=DIRECTION('',(0.,0.,1.));
#853=DIRECTION('',(1.,0.,0.));
#854=DIRECTION('',(0.,0.,1.));
#855=DIRECTION('',(1.,0.,0.));
#856=DIRECTION('',(0.,0.,1.));
#857=DIRECTION('',(1.,0.,0.));
#858=DIRECTION('',(0.,0.,1.));
#859=DIRECTION('',(1.,0.,0.));
#860=DIRECTION('',(0.,0.,1.));
#861=DIRECTION('',(1.,0.,0.));
#862=DIRECTION('',(0.,0.,1.));
#863=DIRECTION('',(1.,0.,0.));
#864=DIRECTION('',(0.866025403784439,-0.5,0.));
#865=DIRECTION('',(0.,0.,1.));
#866=DIRECTION('',(1.,0.,0.));
#867=DIRECTION('',(0.,1.,0.));
#868=DIRECTION('',(0.,0.,1.));
#869=DIRECTION('',(1.,0.,0.));
#870=DIRECTION('',(0.,0.,1.));
#871=DIRECTION('',(1.,0.,0.));
#872=DIRECTION('',(1.14058192612859E-16,-1.,0.));
#873=DIRECTION('',(0.,0.,1.));
#874=DIRECTION('',(1.,0.,0.));
#875=DIRECTION('',(0.866025403784439,0.5,0.));
#876=DIRECTION('',(0.,0.,1.));
#877=DIRECTION('',(1.,0.,0.));
#878=DIRECTION('',(0.,0.,1.));
#879=DIRECTION('',(1.,0.,0.));
#880=DIRECTION('',(-0.866025403784439,-0.5,0.));
#881=DIRECTION('',(0.,0.,1.));
#882=DIRECTION('',(1.,0.,0.));
#883=DIRECTION('',(0.866025403784439,-0.5,0.));
#884=DIRECTION('',(0.,0.,1.));
#885=DIRECTION('',(1.,0.,0.));
#886=DIRECTION('',(0.,0.,1.));
#887=DIRECTION('',(1.,0.,0.));
#888=DIRECTION('',(-0.866025403784439,0.5,0.));
#889=DIRECTION('',(0.,0.,1.));
#890=DIRECTION('',(1.,0.,0.));
#891=DIRECTION('',(-1.14444345604696E-16,-1.,0.));
#892=DIRECTION('',(0.,0.,1.));
#893=DIRECTION('',(1.,0.,0.));
#894=DIRECTION('',(0.,0.,1.));
#895=DIRECTION('',(1.,0.,0.));
#896=DIRECTION('',(0.,1.,0.));
#897=DIRECTION('',(0.,0.,1.));
#898=DIRECTION('',(1.,0.,0.));
#899=DIRECTION('',(-0.866025403784439,-0.5,0.));
#900=DIRECTION('',(0.,0.,1.));
#901=DIRECTION('',(1.,0.,0.));
#902=DIRECTION('',(0.,0.,-1.));
#903=DIRECTION('',(-1.,0.,0.));
#904=DIRECTION('',(0.,0.,1.));
#905=DIRECTION('',(1.,0.,0.));
#906=DIRECTION('',(0.,0.,-1.));
#907=DIRECTION('',(0.,0.,1.));
#908=DIRECTION('',(1.,0.,0.));
#909=DIRECTION('',(0.,0.,-1.));
#910=DIRECTION('',(0.,0.,1.));
#911=DIRECTION('',(1.,0.,0.));
#912=DIRECTION('',(0.,0.,-1.));
#913=DIRECTION('',(0.,0.,1.));
#914=DIRECTION('',(1.,0.,0.));
#915=DIRECTION('',(0.,0.,-1.));
#916=DIRECTION('',(0.,0.,1.));
#917=DIRECTION('',(1.,0.,0.));
#918=DIRECTION('',(0.,0.,-1.));
#919=DIRECTION('',(0.,0.,1.));
#920=DIRECTION('',(1.,0.,0.));
#921=DIRECTION('',(0.,0.,-1.));
#922=DIRECTION('',(0.,0.,1.));
#923=DIRECTION('',(1.,0.,0.));
#924=DIRECTION('',(0.,0.,-1.));
#925=DIRECTION('',(0.,0.,1.));
#926=DIRECTION('',(1.,0.,0.));
#927=DIRECTION('',(0.,0.,-1.));
#928=DIRECTION('',(0.,0.,1.));
#929=DIRECTION('',(1.,0.,0.));
#930=DIRECTION('',(0.,0.,-1.));
#931=DIRECTION('',(0.,0.,1.));
#932=DIRECTION('',(1.,0.,0.));
#933=DIRECTION('',(0.,0.,-1.));
#934=DIRECTION('',(0.,0.,1.));
#935=DIRECTION('',(1.,0.,0.));
#936=DIRECTION('',(0.,0.,-1.));
#937=DIRECTION('',(0.,0.,1.));
#938=DIRECTION('',(1.,0.,0.));
#939=DIRECTION('',(0.,0.,-1.));
#940=DIRECTION('',(0.,0.,1.));
#941=DIRECTION('',(1.,0.,0.));
#942=DIRECTION('',(0.,0.,-1.));
#943=DIRECTION('',(-1.,0.,0.));
#944=DIRECTION('',(0.,0.,1.));
#945=DIRECTION('',(1.,0.,0.));
#946=DIRECTION('',(0.,0.,1.));
#947=DIRECTION('',(1.,0.,0.));
#948=DIRECTION('',(0.,0.,1.));
#949=DIRECTION('',(1.,0.,0.));
#950=DIRECTION('',(0.866025403784439,0.5,0.));
#951=DIRECTION('',(0.,0.,1.));
#952=DIRECTION('',(1.,0.,0.));
#953=DIRECTION('',(-0.866025403784439,0.5,0.));
#954=DIRECTION('',(0.,0.,1.));
#955=DIRECTION('',(1.,0.,0.));
#956=DIRECTION('',(1.,1.14058192612859E-16,0.));
#957=DIRECTION('',(-1.14058192612859E-16,1.,0.));
#958=DIRECTION('',(0.,0.,-1.));
#959=DIRECTION('',(1.14058192612859E-16,-1.,0.));
#960=DIRECTION('',(0.,0.,-1.));
#961=DIRECTION('',(-1.,0.,0.));
#962=DIRECTION('',(0.,0.,-1.));
#963=DIRECTION('',(0.,0.,1.));
#964=DIRECTION('',(1.,0.,0.));
#965=DIRECTION('',(-0.5,0.866025403784439,0.));
#966=DIRECTION('',(-0.866025403784439,-0.5,0.));
#967=DIRECTION('',(0.866025403784439,0.5,0.));
#968=DIRECTION('',(0.,0.,1.));
#969=DIRECTION('',(1.,0.,0.));
#970=DIRECTION('',(0.,0.,-1.));
#971=DIRECTION('',(-1.,0.,0.));
#972=DIRECTION('',(0.,0.,-1.));
#973=DIRECTION('',(0.,0.,1.));
#974=DIRECTION('',(1.,0.,0.));
#975=DIRECTION('',(0.,0.,-1.));
#976=DIRECTION('',(-1.,0.,0.));
#977=DIRECTION('',(0.,0.,1.));
#978=DIRECTION('',(0.,1.,0.));
#979=DIRECTION('',(0.5,0.866025403784439,0.));
#980=DIRECTION('',(-0.866025403784439,0.5,0.));
#981=DIRECTION('',(0.866025403784439,-0.5,0.));
#982=DIRECTION('',(0.,0.,1.));
#983=DIRECTION('',(1.,0.,0.));
#984=DIRECTION('',(0.,0.,-1.));
#985=DIRECTION('',(-1.,0.,0.));
#986=DIRECTION('',(0.,0.,-1.));
#987=DIRECTION('',(0.,0.,1.));
#988=DIRECTION('',(1.,0.,0.));
#989=DIRECTION('',(0.,0.,-1.));
#990=DIRECTION('',(-0.5,-0.866025403784439,0.));
#991=DIRECTION('',(0.866025403784439,-0.5,0.));
#992=DIRECTION('',(-0.866025403784439,0.5,0.));
#993=DIRECTION('',(-0.5,0.866025403784439,0.));
#994=DIRECTION('',(-0.866025403784439,-0.5,0.));
#995=DIRECTION('',(0.866025403784439,0.5,0.));
#996=DIRECTION('',(0.,0.,1.));
#997=DIRECTION('',(1.,0.,0.));
#998=DIRECTION('',(0.,0.,-1.));
#999=DIRECTION('',(-1.,0.,0.));
#1000=DIRECTION('',(0.,0.,-1.));
#1001=DIRECTION('',(0.,0.,1.));
#1002=DIRECTION('',(1.,0.,0.));
#1003=DIRECTION('',(0.,0.,-1.));
#1004=DIRECTION('',(0.5,-0.866025403784439,0.));
#1005=DIRECTION('',(0.866025403784439,0.5,0.));
#1006=DIRECTION('',(-0.866025403784439,-0.5,0.));
#1007=DIRECTION('',(-1.,0.,0.));
#1008=DIRECTION('',(0.,0.,1.));
#1009=DIRECTION('',(0.,1.,0.));
#1010=DIRECTION('',(0.,0.,1.));
#1011=DIRECTION('',(1.,0.,0.));
#1012=DIRECTION('',(0.,0.,-1.));
#1013=DIRECTION('',(-1.,0.,0.));
#1014=DIRECTION('',(0.,0.,-1.));
#1015=DIRECTION('',(0.,0.,1.));
#1016=DIRECTION('',(1.,0.,0.));
#1017=DIRECTION('',(0.,0.,-1.));
#1018=DIRECTION('',(1.,-1.14444345604696E-16,0.));
#1019=DIRECTION('',(1.14444345604696E-16,1.,0.));
#1020=DIRECTION('',(-1.14444345604696E-16,-1.,0.));
#1021=DIRECTION('',(-0.5,-0.866025403784439,0.));
#1022=DIRECTION('',(0.866025403784439,-0.5,0.));
#1023=DIRECTION('',(-0.866025403784439,0.5,0.));
#1024=DIRECTION('',(0.,0.,1.));
#1025=DIRECTION('',(1.,0.,0.));
#1026=DIRECTION('',(0.,0.,-1.));
#1027=DIRECTION('',(-1.,0.,0.));
#1028=DIRECTION('',(0.,0.,-1.));
#1029=DIRECTION('',(0.,0.,1.));
#1030=DIRECTION('',(1.,0.,0.));
#1031=DIRECTION('',(0.,0.,-1.));
#1032=DIRECTION('',(0.5,0.866025403784438,0.));
#1033=DIRECTION('',(-0.866025403784438,0.5,0.));
#1034=DIRECTION('',(0.866025403784439,-0.5,0.));
#1035=DIRECTION('',(0.5,-0.866025403784439,0.));
#1036=DIRECTION('',(0.866025403784439,0.5,0.));
#1037=DIRECTION('',(-0.866025403784439,-0.5,0.));
#1038=DIRECTION('',(0.,0.,1.));
#1039=DIRECTION('',(1.,0.,0.));
#1040=DIRECTION('',(0.,0.,1.));
#1041=DIRECTION('',(1.,0.,0.));
#1042=DIRECTION('',(0.,0.,1.));
#1043=DIRECTION('',(1.,0.,0.));
#1044=CARTESIAN_POINT('',(0.,0.,0.));
#1045=CARTESIAN_POINT('',(0.,9.72063396823212E-20,0.02032));
#1046=CARTESIAN_POINT('',(0.,9.72063396823212E-20,0.02032));
#1047=CARTESIAN_POINT('',(0.0015875,9.72063396823212E-20,0.02032));
#1048=CARTESIAN_POINT('',(0.,9.72063396823212E-20,0.));
#1049=CARTESIAN_POINT('',(0.0015875,9.72063396823212E-20,0.));
#1050=CARTESIAN_POINT('',(-4.11996825544492E-18,4.11996825544492E-18,0.02032));
#1051=CARTESIAN_POINT('',(-4.11996825544492E-18,4.11996825544492E-18,0.02032));
#1052=CARTESIAN_POINT('',(0.00285189206052739,4.11996825544492E-18,0.02032));
#1053=CARTESIAN_POINT('',(-4.11996825544492E-18,4.11996825544492E-18,0.));
#1054=CARTESIAN_POINT('',(0.00285189206052739,4.11996825544492E-18,0.));
#1055=CARTESIAN_POINT('',(-0.0197705413460731,0.,0.02032));
#1056=CARTESIAN_POINT('',(-0.0197705413460731,0.,0.));
#1057=CARTESIAN_POINT('',(0.,0.,0.));
#1058=CARTESIAN_POINT('',(-0.0557283572852612,0.0352946259081364,0.0762));
#1059=CARTESIAN_POINT('',(-0.0557283572852612,0.0352946259081364,0.0762));
#1060=CARTESIAN_POINT('',(-0.0541408572852612,0.0352946259081364,0.0762));
#1061=CARTESIAN_POINT('',(-0.0557283572852612,0.0352946259081364,0.));
#1062=CARTESIAN_POINT('',(-0.0541408572852612,0.0352946259081364,0.));
#1063=CARTESIAN_POINT('',(-0.0557283572852612,0.0352946259081364,0.0762));
#1064=CARTESIAN_POINT('',(-0.0557283572852612,0.0352946259081364,0.));
#1065=CARTESIAN_POINT('',(0.,0.,0.));
#1066=CARTESIAN_POINT('',(-0.0197705413460731,0.,0.));
#1067=CARTESIAN_POINT('',(-0.009644777182457,0.00696358686003085,0.));
#1068=CARTESIAN_POINT('',(-0.013655612063848,0.00927924345847708,0.));
#1069=CARTESIAN_POINT('',(-0.00470547416861178,0.00411187893537818,0.));
#1070=CARTESIAN_POINT('',(0.,1.16647607618785E-18,0.));
#1071=CARTESIAN_POINT('',(-0.000853870759702792,0.0164879048009662,0.));
#1072=CARTESIAN_POINT('',(-0.000853870759702792,0.0118744818293058,0.));
#1073=CARTESIAN_POINT('',(-0.000853870759702791,0.00619031019064507,0.));
#1074=CARTESIAN_POINT('',(3.41523684332934E-18,-2.16840434497101E-18,0.));
#1075=CARTESIAN_POINT('',(-0.0197705413460731,0.,0.));
#1076=CARTESIAN_POINT('',(0.00120825453101773,0.0118344154838637,0.));
#1077=CARTESIAN_POINT('',(0.00120825453101773,0.0164657286807561,0.));
#1078=CARTESIAN_POINT('',(0.00120825453101773,0.00613099963455836,0.));
#1079=CARTESIAN_POINT('',(0.,1.16647607618785E-18,0.));
#1080=CARTESIAN_POINT('',(0.0138520090329647,0.00898342616993444,0.));
#1081=CARTESIAN_POINT('',(0.00985666754110415,0.00667671468410425,0.));
#1082=CARTESIAN_POINT('',(0.00493403050255292,0.00383462886477387,0.));
#1083=CARTESIAN_POINT('',(-3.57786716920216E-18,-1.95156391047391E-18,0.));
#1084=CARTESIAN_POINT('',(-0.0197705413460731,0.,0.));
#1085=CARTESIAN_POINT('',(0.0108530317134747,0.00487082862383284,0.));
#1086=CARTESIAN_POINT('',(0.0148638665948657,0.00718648522227907,0.));
#1087=CARTESIAN_POINT('',(0.00591372869962951,0.00201912069918017,0.));
#1088=CARTESIAN_POINT('',(0.,1.16647607618785E-18,0.));
#1089=CARTESIAN_POINT('',(0.0147058797926675,-0.00750447863103178,0.));
#1090=CARTESIAN_POINT('',(0.0107105383008069,-0.00519776714520158,0.));
#1091=CARTESIAN_POINT('',(0.00578790126225571,-0.0023556813258712,0.));
#1092=CARTESIAN_POINT('',(-5.20417042793042E-18,-1.95156391047391E-18,0.));
#1093=CARTESIAN_POINT('',(-0.0197705413460731,0.,0.));
#1094=CARTESIAN_POINT('',(0.009644777182457,-0.00696358686003086,0.));
#1095=CARTESIAN_POINT('',(0.013655612063848,-0.00927924345847708,0.));
#1096=CARTESIAN_POINT('',(0.00470547416861178,-0.00411187893537819,0.));
#1097=CARTESIAN_POINT('',(0.,1.16647607618785E-18,0.));
#1098=CARTESIAN_POINT('',(0.00085387075970279,-0.0164879048009662,0.));
#1099=CARTESIAN_POINT('',(0.000853870759702791,-0.0118744818293058,0.));
#1100=CARTESIAN_POINT('',(0.000853870759702789,-0.00619031019064507,0.));
#1101=CARTESIAN_POINT('',(-6.1257422745431E-18,5.20417042793042E-18,0.));
#1102=CARTESIAN_POINT('',(-0.0197705413460731,0.,0.));
#1103=CARTESIAN_POINT('',(-0.00120825453101773,-0.0118344154838637,0.));
#1104=CARTESIAN_POINT('',(-0.00120825453101773,-0.0164657286807561,0.));
#1105=CARTESIAN_POINT('',(-0.00120825453101773,-0.00613099963455836,0.));
#1106=CARTESIAN_POINT('',(0.,1.16647607618785E-18,0.));
#1107=CARTESIAN_POINT('',(-0.0138520090329647,-0.00898342616993444,0.));
#1108=CARTESIAN_POINT('',(-0.00985666754110415,-0.00667671468410424,0.));
#1109=CARTESIAN_POINT('',(-0.00493403050255292,-0.00383462886477387,0.));
#1110=CARTESIAN_POINT('',(6.17995238316738E-18,9.10729824887824E-18,0.));
#1111=CARTESIAN_POINT('',(8.22258927613007E-16,-5.14345510627123E-16,0.01524));
#1112=CARTESIAN_POINT('',(0.,1.16647607618785E-18,0.0150039048164568));
#1113=CARTESIAN_POINT('',(0.0175794029159803,1.16647607618785E-18,0.0150039048164568));
#1114=CARTESIAN_POINT('',(-0.000853870759702792,0.0175586534679666,0.00254));
#1115=CARTESIAN_POINT('',(-0.000853870759702792,0.017558653467965,0.00254));
#1116=CARTESIAN_POINT('',(-0.000853870759702792,0.0175586534679666,0.000236095183543641));
#1117=CARTESIAN_POINT('',(0.,1.16647607618785E-18,0.000236095183543641));
#1118=CARTESIAN_POINT('',(0.00120825453101773,0.017537831333169,0.000236095183543641));
#1119=CARTESIAN_POINT('',(0.00120825453101773,0.017537831333169,0.00254));
#1120=CARTESIAN_POINT('',(0.00120825453101773,0.017537831333169,0.00254));
#1121=CARTESIAN_POINT('',(1.88651178012478E-17,1.47451495458029E-17,0.00254));
#1122=CARTESIAN_POINT('',(0.0147793045796549,0.00951880050343433,0.00254));
#1123=CARTESIAN_POINT('',(0.0147793045796554,0.00951880050343463,0.00254));
#1124=CARTESIAN_POINT('',(0.0147793045796554,0.00951880050343463,0.000236095183543641));
#1125=CARTESIAN_POINT('',(0.,1.16647607618785E-18,0.000236095183543641));
#1126=CARTESIAN_POINT('',(0.0157923347273199,0.0077225365484855,0.00023609518354364));
#1127=CARTESIAN_POINT('',(0.0157923347273199,0.0077225365484855,0.00254));
#1128=CARTESIAN_POINT('',(0.0157923347273199,0.0077225365484855,0.00254));
#1129=CARTESIAN_POINT('',(3.46944695195361E-18,6.93889390390723E-18,0.00254));
#1130=CARTESIAN_POINT('',(0.0156331753393582,-0.00803985296453196,0.00254));
#1131=CARTESIAN_POINT('',(0.0156331753393582,-0.00803985296453196,0.00254));
#1132=CARTESIAN_POINT('',(0.0156331753393582,-0.00803985296453196,0.000236095183543643));
#1133=CARTESIAN_POINT('',(0.,1.16647607618785E-18,0.000236095183543643));
#1134=CARTESIAN_POINT('',(0.0145840801963022,-0.00981529478468352,0.000236095183543643));
#1135=CARTESIAN_POINT('',(0.0145840801963022,-0.00981529478468352,0.00254));
#1136=CARTESIAN_POINT('',(0.0145840801963022,-0.00981529478468352,0.00254));
#1137=CARTESIAN_POINT('',(-9.75781955236954E-19,-6.93889390390723E-18,0.00254));
#1138=CARTESIAN_POINT('',(0.00085387075970279,-0.0175586534679661,0.00254));
#1139=CARTESIAN_POINT('',(0.000853870759702786,-0.0175586534679666,0.00254));
#1140=CARTESIAN_POINT('',(0.000853870759702786,-0.0175586534679666,0.000236095183543641));
#1141=CARTESIAN_POINT('',(0.,1.16647607618785E-18,0.000236095183543641));
#1142=CARTESIAN_POINT('',(-0.00120825453101772,-0.017537831333169,0.000236095183543641));
#1143=CARTESIAN_POINT('',(-0.00120825453101772,-0.017537831333169,0.00254));
#1144=CARTESIAN_POINT('',(-0.00120825453101772,-0.017537831333169,0.00254));
#1145=CARTESIAN_POINT('',(-1.25767452008318E-17,-1.56125112837912E-17,0.00254));
#1146=CARTESIAN_POINT('',(-0.0147793045796542,-0.00951880050343393,0.00254));
#1147=CARTESIAN_POINT('',(-0.0147793045796554,-0.00951880050343461,0.00254));
#1148=CARTESIAN_POINT('',(-0.0147793045796554,-0.00951880050343461,0.000236095183543641));
#1149=CARTESIAN_POINT('',(0.,1.16647607618785E-18,0.000236095183543641));
#1150=CARTESIAN_POINT('',(-0.0157923347273199,-0.0077225365484855,0.000236095183543641));
#1151=CARTESIAN_POINT('',(-0.0157923347273199,-0.0077225365484855,0.00254));
#1152=CARTESIAN_POINT('',(-0.0157923347273199,-0.0077225365484855,0.00254));
#1153=CARTESIAN_POINT('',(1.04083408558608E-17,-1.04083408558608E-17,0.00254));
#1154=CARTESIAN_POINT('',(-0.0156331753393565,0.00803985296453098,0.00254));
#1155=CARTESIAN_POINT('',(-0.0156331753393582,0.00803985296453195,0.00254));
#1156=CARTESIAN_POINT('',(-0.0156331753393582,0.00803985296453195,0.000236095183543641));
#1157=CARTESIAN_POINT('',(0.,1.16647607618785E-18,0.000236095183543641));
#1158=CARTESIAN_POINT('',(-0.0145840801963022,0.00981529478468351,0.00023609518354364));
#1159=CARTESIAN_POINT('',(-0.0145840801963022,0.00981529478468351,0.00254));
#1160=CARTESIAN_POINT('',(-0.0145840801963022,0.00981529478468351,0.00254));
#1161=CARTESIAN_POINT('',(-7.48099499014998E-18,1.90819582357449E-17,0.00254));
#1162=CARTESIAN_POINT('',(0.,1.16647607618785E-18,0.01524));
#1163=CARTESIAN_POINT('',(0.,1.16647607618785E-18,0.0127));
#1164=CARTESIAN_POINT('',(0.01905,1.16647607618785E-18,0.0127));
#1165=CARTESIAN_POINT('',(0.,1.16647607618785E-18,0.00254));
#1166=CARTESIAN_POINT('',(0.01905,1.16647607618785E-18,0.00254));
#1167=CARTESIAN_POINT('',(-0.0197705413460731,0.,0.));
#1168=CARTESIAN_POINT('',(-0.0108530317134747,-0.00487082862383284,0.));
#1169=CARTESIAN_POINT('',(-0.0148638665948657,-0.00718648522227906,0.));
#1170=CARTESIAN_POINT('',(-0.00591372869962951,-0.00201912069918017,0.));
#1171=CARTESIAN_POINT('',(0.,1.16647607618785E-18,0.));
#1172=CARTESIAN_POINT('',(-0.0147058797926675,0.00750447863103177,0.));
#1173=CARTESIAN_POINT('',(-0.0107105383008069,0.00519776714520157,0.));
#1174=CARTESIAN_POINT('',(-0.00578790126225571,0.0023556813258712,0.));
#1175=CARTESIAN_POINT('',(7.37257477290143E-18,1.51788304147971E-18,0.));
#1176=CARTESIAN_POINT('',(0.00120825453101773,0.0118344154838637,0.00254));
#1177=CARTESIAN_POINT('',(0.00120825453101773,0.017537831333169,0.000236095183543641));
#1178=CARTESIAN_POINT('',(0.00120825453101773,0.0172005991619414,7.99323793998436E-5));
#1179=CARTESIAN_POINT('',(0.00120825453101773,0.0168373567363849,1.8195692451357E-18));
#1180=CARTESIAN_POINT('',(0.00120825453101773,0.0164657286807561,-2.10893471181939E-19));
#1181=CARTESIAN_POINT('',(0.00120825453101773,0.00613099963455836,0.00254));
#1182=CARTESIAN_POINT('',(0.00120825453101773,0.00613099963455836,0.00254));
#1183=CARTESIAN_POINT('',(0.00120825453101773,0.0118344154838637,0.00254));
#1184=CARTESIAN_POINT('',(-3.57786716920216E-18,-1.95156391047391E-18,0.00254));
#1185=CARTESIAN_POINT('',(0.00493403050255292,0.00383462886477387,0.00254));
#1186=CARTESIAN_POINT('',(0.00493403050255292,0.00383462886477387,0.00254));
#1187=CARTESIAN_POINT('',(-3.57786716920216E-18,-1.95156391047391E-18,0.00254));
#1188=CARTESIAN_POINT('',(0.00985666754110415,0.00667671468410425,0.00254));
#1189=CARTESIAN_POINT('',(0.0138520090329647,0.00898342616993444,0.));
#1190=CARTESIAN_POINT('',(0.0141734635744798,0.0091690180360104,-1.69750399167336E-18));
#1191=CARTESIAN_POINT('',(0.0144876663151613,0.00935042307292298,7.99682634944784E-5));
#1192=CARTESIAN_POINT('',(0.0147793045796554,0.00951880050343462,0.00023609518354364));
#1193=CARTESIAN_POINT('',(0.00985666754110415,0.00667671468410425,0.00254));
#1194=CARTESIAN_POINT('',(-0.0197705413460731,0.,0.00254));
#1195=CARTESIAN_POINT('',(3.41523684332934E-18,-2.16840434497101E-18,0.00254));
#1196=CARTESIAN_POINT('',(-0.000853870759702791,0.00619031019064507,0.00254));
#1197=CARTESIAN_POINT('',(-0.000853870759702791,0.00619031019064507,0.00254));
#1198=CARTESIAN_POINT('',(3.41523684332934E-18,-2.16840434497101E-18,0.00254));
#1199=CARTESIAN_POINT('',(-0.00470547416861178,0.00411187893537818,0.00254));
#1200=CARTESIAN_POINT('',(-0.00470547416861178,0.00411187893537818,0.00254));
#1201=CARTESIAN_POINT('',(-0.000853870759702792,0.0118744818293058,0.00254));
#1202=CARTESIAN_POINT('',(-0.000853870759702792,0.0164879048009662,0.));
#1203=CARTESIAN_POINT('',(-0.000853870759702792,0.0168590885331181,-1.01401753396E-18));
#1204=CARTESIAN_POINT('',(-0.000853870759702792,0.0172218986069433,7.99682634944879E-5));
#1205=CARTESIAN_POINT('',(-0.000853870759702792,0.0175586534679666,0.000236095183543641));
#1206=CARTESIAN_POINT('',(-0.000853870759702792,0.0118744818293058,0.00254));
#1207=CARTESIAN_POINT('',(-0.009644777182457,0.00696358686003085,0.00254));
#1208=CARTESIAN_POINT('',(-0.0145840801963022,0.00981529478468351,0.00023609518354364));
#1209=CARTESIAN_POINT('',(-0.0142920285690457,0.00964667869906972,7.99323793998363E-5));
#1210=CARTESIAN_POINT('',(-0.0139774514007815,0.00946505748629147,4.25348679252845E-19));
#1211=CARTESIAN_POINT('',(-0.013655612063848,0.00927924345847708,-4.82631970079018E-20));
#1212=CARTESIAN_POINT('',(-0.009644777182457,0.00696358686003085,0.00254));
#1213=CARTESIAN_POINT('',(-0.0197705413460731,0.,0.00254));
#1214=CARTESIAN_POINT('',(7.37257477290143E-18,1.51788304147971E-18,0.00254));
#1215=CARTESIAN_POINT('',(-0.00578790126225571,0.0023556813258712,0.00254));
#1216=CARTESIAN_POINT('',(-0.00578790126225571,0.0023556813258712,0.00254));
#1217=CARTESIAN_POINT('',(7.37257477290143E-18,1.51788304147971E-18,0.00254));
#1218=CARTESIAN_POINT('',(-0.00591372869962951,-0.00201912069918017,0.00254));
#1219=CARTESIAN_POINT('',(-0.00591372869962951,-0.00201912069918017,0.00254));
#1220=CARTESIAN_POINT('',(-0.0107105383008069,0.00519776714520157,0.00254));
#1221=CARTESIAN_POINT('',(-0.0147058797926675,0.00750447863103177,0.));
#1222=CARTESIAN_POINT('',(-0.0150273343341826,0.00769007049710773,-3.46293427818061E-19));
#1223=CARTESIAN_POINT('',(-0.0153415370748641,0.00787147553402031,7.99682634944779E-5));
#1224=CARTESIAN_POINT('',(-0.0156331753393582,0.00803985296453195,0.00023609518354364));
#1225=CARTESIAN_POINT('',(-0.0107105383008069,0.00519776714520157,0.00254));
#1226=CARTESIAN_POINT('',(-0.0108530317134747,-0.00487082862383284,0.00254));
#1227=CARTESIAN_POINT('',(-0.0157923347273199,-0.0077225365484855,0.000236095183543641));
#1228=CARTESIAN_POINT('',(-0.0155002831000635,-0.0075539204628717,7.9932379399835E-5));
#1229=CARTESIAN_POINT('',(-0.0151857059317992,-0.00737229925009345,-1.21008625193962E-18));
#1230=CARTESIAN_POINT('',(-0.0148638665948657,-0.00718648522227906,-7.70622655157597E-20));
#1231=CARTESIAN_POINT('',(-0.0108530317134747,-0.00487082862383284,0.00254));
#1232=CARTESIAN_POINT('',(-0.0197705413460731,0.,0.00254));
#1233=CARTESIAN_POINT('',(6.17995238316738E-18,9.10729824887824E-18,0.00254));
#1234=CARTESIAN_POINT('',(-0.00493403050255292,-0.00383462886477387,0.00254));
#1235=CARTESIAN_POINT('',(-0.00493403050255292,-0.00383462886477387,0.00254));
#1236=CARTESIAN_POINT('',(6.17995238316738E-18,9.10729824887824E-18,0.00254));
#1237=CARTESIAN_POINT('',(-0.00120825453101773,-0.00613099963455836,0.00254));
#1238=CARTESIAN_POINT('',(-0.00120825453101773,-0.00613099963455836,0.00254));
#1239=CARTESIAN_POINT('',(-0.00985666754110415,-0.00667671468410424,0.00254));
#1240=CARTESIAN_POINT('',(-0.0138520090329647,-0.00898342616993444,0.));
#1241=CARTESIAN_POINT('',(-0.0141734635744798,-0.0091690180360104,-9.12128091709177E-19));
#1242=CARTESIAN_POINT('',(-0.0144876663151613,-0.00935042307292298,7.99682634944803E-5));
#1243=CARTESIAN_POINT('',(-0.0147793045796554,-0.00951880050343462,0.000236095183543641));
#1244=CARTESIAN_POINT('',(-0.00985666754110415,-0.00667671468410424,0.00254));
#1245=CARTESIAN_POINT('',(-0.00120825453101773,-0.0118344154838637,0.00254));
#1246=CARTESIAN_POINT('',(-0.00120825453101772,-0.017537831333169,0.000236095183543641));
#1247=CARTESIAN_POINT('',(-0.00120825453101772,-0.0172005991619414,7.99323793998441E-5));
#1248=CARTESIAN_POINT('',(-0.00120825453101773,-0.0168373567363849,1.8974962762831E-18));
#1249=CARTESIAN_POINT('',(-0.00120825453101773,-0.0164657286807561,-1.32966440034544E-19));
#1250=CARTESIAN_POINT('',(-0.00120825453101773,-0.0118344154838637,0.00254));
#1251=CARTESIAN_POINT('',(-0.0197705413460731,0.,0.00254));
#1252=CARTESIAN_POINT('',(-6.1257422745431E-18,5.20417042793042E-18,0.00254));
#1253=CARTESIAN_POINT('',(0.000853870759702789,-0.00619031019064507,0.00254));
#1254=CARTESIAN_POINT('',(0.000853870759702789,-0.00619031019064507,0.00254));
#1255=CARTESIAN_POINT('',(-6.1257422745431E-18,5.20417042793042E-18,0.00254));
#1256=CARTESIAN_POINT('',(0.00470547416861178,-0.00411187893537819,0.00254));
#1257=CARTESIAN_POINT('',(0.00470547416861178,-0.00411187893537819,0.00254));
#1258=CARTESIAN_POINT('',(0.000853870759702791,-0.0118744818293058,0.00254));
#1259=CARTESIAN_POINT('',(0.000853870759702791,-0.0164879048009662,0.));
#1260=CARTESIAN_POINT('',(0.000853870759702791,-0.0168590885331181,-1.01401753396E-18));
#1261=CARTESIAN_POINT('',(0.00085387075970279,-0.0172218986069433,7.99682634944879E-5));
#1262=CARTESIAN_POINT('',(0.00085387075970279,-0.0175586534679666,0.000236095183543641));
#1263=CARTESIAN_POINT('',(0.000853870759702791,-0.0118744818293058,0.00254));
#1264=CARTESIAN_POINT('',(0.009644777182457,-0.00696358686003086,0.00254));
#1265=CARTESIAN_POINT('',(0.0145840801963022,-0.00981529478468352,0.000236095183543643));
#1266=CARTESIAN_POINT('',(0.0142920285690457,-0.00964667869906973,7.99323793998419E-5));
#1267=CARTESIAN_POINT('',(0.0139774514007815,-0.00946505748629147,2.15284508333774E-19));
#1268=CARTESIAN_POINT('',(0.013655612063848,-0.00927924345847708,-2.58327367926969E-19));
#1269=CARTESIAN_POINT('',(0.009644777182457,-0.00696358686003086,0.00254));
#1270=CARTESIAN_POINT('',(-0.0197705413460731,0.,0.00254));
#1271=CARTESIAN_POINT('',(-5.20417042793042E-18,-1.95156391047391E-18,0.00254));
#1272=CARTESIAN_POINT('',(0.00578790126225571,-0.0023556813258712,0.00254));
#1273=CARTESIAN_POINT('',(0.00578790126225571,-0.0023556813258712,0.00254));
#1274=CARTESIAN_POINT('',(-5.20417042793042E-18,-1.95156391047391E-18,0.00254));
#1275=CARTESIAN_POINT('',(0.00591372869962951,0.00201912069918017,0.00254));
#1276=CARTESIAN_POINT('',(0.00591372869962951,0.00201912069918017,0.00254));
#1277=CARTESIAN_POINT('',(0.0107105383008069,-0.00519776714520158,0.00254));
#1278=CARTESIAN_POINT('',(0.0147058797926675,-0.00750447863103178,0.));
#1279=CARTESIAN_POINT('',(0.0150273343341826,-0.00769007049710774,5.65834663891119E-19));
#1280=CARTESIAN_POINT('',(0.0153415370748641,-0.00787147553402032,7.99682634944791E-5));
#1281=CARTESIAN_POINT('',(0.0156331753393582,-0.00803985296453196,0.000236095183543642));
#1282=CARTESIAN_POINT('',(0.0107105383008069,-0.00519776714520158,0.00254));
#1283=CARTESIAN_POINT('',(0.0108530317134747,0.00487082862383284,0.00254));
#1284=CARTESIAN_POINT('',(0.0157923347273199,0.0077225365484855,0.00023609518354364));
#1285=CARTESIAN_POINT('',(0.0155002831000635,0.00755392046287171,7.99323793998347E-5));
#1286=CARTESIAN_POINT('',(0.0151857059317992,0.00737229925009346,-8.09592716389531E-19));
#1287=CARTESIAN_POINT('',(0.0148638665948657,0.00718648522227907,-2.43080723177602E-19));
#1288=CARTESIAN_POINT('',(0.0108530317134747,0.00487082862383284,0.00254));
#1289=CARTESIAN_POINT('',(-0.0197705413460731,0.,0.00254));
#1290=CARTESIAN_POINT('',(0.,1.16647607618785E-18,0.0127));
#1291=CARTESIAN_POINT('',(0.,1.16647607618785E-18,0.00254));
#1292=MECHANICAL_DESIGN_GEOMETRIC_PRESENTATION_REPRESENTATION('',(#714),
#1295);
#1293=MECHANICAL_DESIGN_GEOMETRIC_PRESENTATION_REPRESENTATION('',(#715),
#1296);
#1294=MECHANICAL_DESIGN_GEOMETRIC_PRESENTATION_REPRESENTATION('',(#716),
#1297);
#1295=(
GEOMETRIC_REPRESENTATION_CONTEXT(3)
GLOBAL_UNCERTAINTY_ASSIGNED_CONTEXT((#1298))
GLOBAL_UNIT_ASSIGNED_CONTEXT((#1307,#1304,#1301))
REPRESENTATION_CONTEXT('Part 2','TOP_LEVEL_ASSEMBLY_PART')
);
#1296=(
GEOMETRIC_REPRESENTATION_CONTEXT(3)
GLOBAL_UNCERTAINTY_ASSIGNED_CONTEXT((#1299))
GLOBAL_UNIT_ASSIGNED_CONTEXT((#1308,#1305,#1302))
REPRESENTATION_CONTEXT('Part 3','TOP_LEVEL_ASSEMBLY_PART')
);
#1297=(
GEOMETRIC_REPRESENTATION_CONTEXT(3)
GLOBAL_UNCERTAINTY_ASSIGNED_CONTEXT((#1300))
GLOBAL_UNIT_ASSIGNED_CONTEXT((#1309,#1306,#1303))
REPRESENTATION_CONTEXT('Part 1','TOP_LEVEL_ASSEMBLY_PART')
);
#1298=UNCERTAINTY_MEASURE_WITH_UNIT(LENGTH_MEASURE(1.E-8),#1307,
'DISTANCE_ACCURACY_VALUE','Maximum Tolerance applied to model');
#1299=UNCERTAINTY_MEASURE_WITH_UNIT(LENGTH_MEASURE(1.E-8),#1308,
'DISTANCE_ACCURACY_VALUE','Maximum Tolerance applied to model');
#1300=UNCERTAINTY_MEASURE_WITH_UNIT(LENGTH_MEASURE(2.E-5),#1309,
'DISTANCE_ACCURACY_VALUE','Maximum Tolerance applied to model');
#1301=(
NAMED_UNIT(*)
SI_UNIT($,.STERADIAN.)
SOLID_ANGLE_UNIT()
);
#1302=(
NAMED_UNIT(*)
SI_UNIT($,.STERADIAN.)
SOLID_ANGLE_UNIT()
);
#1303=(
NAMED_UNIT(*)
SI_UNIT($,.STERADIAN.)
SOLID_ANGLE_UNIT()
);
#1304=(
NAMED_UNIT(*)
PLANE_ANGLE_UNIT()
SI_UNIT($,.RADIAN.)
);
#1305=(
NAMED_UNIT(*)
PLANE_ANGLE_UNIT()
SI_UNIT($,.RADIAN.)
);
#1306=(
NAMED_UNIT(*)
PLANE_ANGLE_UNIT()
SI_UNIT($,.RADIAN.)
);
#1307=(
LENGTH_UNIT()
NAMED_UNIT(*)
SI_UNIT($,.METRE.)
);
#1308=(
LENGTH_UNIT()
NAMED_UNIT(*)
SI_UNIT($,.METRE.)
);
#1309=(
LENGTH_UNIT()
NAMED_UNIT(*)
SI_UNIT($,.METRE.)
);
#1310=PRODUCT_DEFINITION_SHAPE('','',#1313);
#1311=PRODUCT_DEFINITION_SHAPE('','',#1314);
#1312=PRODUCT_DEFINITION_SHAPE('','',#1315);
#1313=PRODUCT_DEFINITION('','',#1319,#1316);
#1314=PRODUCT_DEFINITION('','',#1320,#1317);
#1315=PRODUCT_DEFINITION('','',#1321,#1318);
#1316=PRODUCT_DEFINITION_CONTEXT('',#1337,'design');
#1317=PRODUCT_DEFINITION_CONTEXT('',#1338,'design');
#1318=PRODUCT_DEFINITION_CONTEXT('',#1339,'design');
#1319=PRODUCT_DEFINITION_FORMATION_WITH_SPECIFIED_SOURCE('','',#1325,
 .NOT_KNOWN.);
#1320=PRODUCT_DEFINITION_FORMATION_WITH_SPECIFIED_SOURCE('','',#1326,
 .NOT_KNOWN.);
#1321=PRODUCT_DEFINITION_FORMATION_WITH_SPECIFIED_SOURCE('','',#1327,
 .NOT_KNOWN.);
#1322=PRODUCT_RELATED_PRODUCT_CATEGORY('','',(#1325));
#1323=PRODUCT_RELATED_PRODUCT_CATEGORY('','',(#1326));
#1324=PRODUCT_RELATED_PRODUCT_CATEGORY('','',(#1327));
#1325=PRODUCT('Part 2','Part 2','Part 2',(#1331));
#1326=PRODUCT('Part 3','Part 3','Part 3',(#1332));
#1327=PRODUCT('Part 1','Part 1','Part 1',(#1333));
#1328=PRODUCT_CATEGORY('','');
#1329=PRODUCT_CATEGORY('','');
#1330=PRODUCT_CATEGORY('','');
#1331=PRODUCT_CONTEXT('',#1337,'mechanical');
#1332=PRODUCT_CONTEXT('',#1338,'mechanical');
#1333=PRODUCT_CONTEXT('',#1339,'mechanical');
#1334=APPLICATION_PROTOCOL_DEFINITION('international standard',
'ap242_managed_model_based_3d_engineering',2020,#1337);
#1335=APPLICATION_PROTOCOL_DEFINITION('international standard',
'ap242_managed_model_based_3d_engineering',2020,#1338);
#1336=APPLICATION_PROTOCOL_DEFINITION('international standard',
'ap242_managed_model_based_3d_engineering',2020,#1339);
#1337=APPLICATION_CONTEXT('managed model based 3d engineering');
#1338=APPLICATION_CONTEXT('managed model based 3d engineering');
#1339=APPLICATION_CONTEXT('managed model based 3d engineering');
ENDSEC;
END-ISO-10303-21;
