ISO-10303-21;
HEADER;
/* Generated by software containing ST-Developer
 * from STEP Tools, Inc. (www.steptools.com) 
 */
/* OPTION: using custom renumber hook */

FILE_DESCRIPTION(
/* description */ ('STEP AP242 Edition 2',
'CAx-IF Rec.Pracs.---Representation and Presentation of Product Manufa
cturing Information (PMI)---4.0---2014-10-13',
'CAx-IF Rec.Pracs.---3D Tessellated Geometry---0.4---2014-09-14','2;1',
'CAx-IF Rec.Pracs.---User Defined Attributes---1.5---2016-08-15'),
/* implementation_level */ '2;1');

FILE_NAME(
/* name */ 'flakien',
/* time_stamp */ '2026-08-04T01:13:03Z',
/* author */ (''),
/* organization */ (''),
/* preprocessor_version */ 'ST-DEVELOPER v20',
/* originating_system */ 'ONSHAPE BY PTC INC, 1.218',
/* authorisation */ '  ');

FILE_SCHEMA (('AP242_MANAGED_MODEL_BASED_3D_ENGINEERING_MIM_LF { 1 0 10303 442 3 1 4 }'));
ENDSEC;

DATA;
#10=SHAPE_REPRESENTATION_RELATIONSHIP('','',#530,#11);
#11=ADVANCED_BREP_SHAPE_REPRESENTATION('',(#528),#1387);
#12=ELLIPSE('',#562,0.00791432092738535,0.00735852293811319);
#13=ELLIPSE('',#563,0.00791432092738535,0.00735852293811319);
#14=ELLIPSE('',#564,0.00791432092738535,0.00735852293811319);
#15=ELLIPSE('',#565,0.00791432092738535,0.00735852293811319);
#16=ELLIPSE('',#567,0.00791432092738535,0.00735852293811319);
#17=ELLIPSE('',#569,0.00791432092738535,0.00735852293811319);
#18=ELLIPSE('',#570,0.00791432092738535,0.00735852293811319);
#19=ELLIPSE('',#571,0.00791432092738535,0.00735852293811319);
#20=(
BOUNDED_SURFACE()
B_SPLINE_SURFACE(3,2,((#1008,#1009,#1010),(#1011,#1012,#1013),(#1014,#1015,
#1016),(#1017,#1018,#1019),(#1020,#1021,#1022),(#1023,#1024,#1025),(#1026,
#1027,#1028),(#1029,#1030,#1031),(#1032,#1033,#1034),(#1035,#1036,#1037),
(#1038,#1039,#1040),(#1041,#1042,#1043),(#1044,#1045,#1046),(#1047,#1048,
#1049),(#1050,#1051,#1052),(#1053,#1054,#1055),(#1056,#1057,#1058)),
 .UNSPECIFIED.,.F.,.F.,.F.)
B_SPLINE_SURFACE_WITH_KNOTS((4,1,1,1,1,1,1,1,1,1,1,1,1,1,4),(3,3),(0.0648984334362928,
0.0704569271394962,0.0732361739910979,0.0760154208426996,0.0787946676943014,
0.0801842911201022,0.0815739145459031,0.0829635379717039,0.0843531613975048,
0.0850479731104052,0.0857427848233056,0.0864375965362061,0.0867850023926563,
0.0869587053208814,0.0871324082491065),(0.,1.),.UNSPECIFIED.)
GEOMETRIC_REPRESENTATION_ITEM()
RATIONAL_B_SPLINE_SURFACE(((1.,0.707106781186548,1.),(1.,0.707106781186548,
1.),(1.,0.707106781186548,1.),(1.,0.707106781186547,1.),(1.,0.707106781186549,
1.),(1.,0.707106781186548,1.),(1.,0.707106781186548,1.),(1.,0.707106781186548,
1.),(1.,0.707106781186546,1.),(1.,0.707106781186548,1.),(1.,0.707106781186547,
1.),(1.,0.707106781186551,1.),(1.,0.707106781186544,1.),(1.,0.707106781186552,
1.),(1.,0.707106781186547,1.),(1.,0.707106781186548,1.),(1.,0.707106781186548,
1.)))
REPRESENTATION_ITEM('')
SURFACE()
);
#21=(
BOUNDED_SURFACE()
B_SPLINE_SURFACE(3,2,((#1065,#1066,#1067),(#1068,#1069,#1070),(#1071,#1072,
#1073),(#1074,#1075,#1076),(#1077,#1078,#1079),(#1080,#1081,#1082),(#1083,
#1084,#1085),(#1086,#1087,#1088),(#1089,#1090,#1091),(#1092,#1093,#1094),
(#1095,#1096,#1097),(#1098,#1099,#1100),(#1101,#1102,#1103),(#1104,#1105,
#1106),(#1107,#1108,#1109),(#1110,#1111,#1112),(#1113,#1114,#1115),(#1116,
#1117,#1118),(#1119,#1120,#1121),(#1122,#1123,#1124)),.UNSPECIFIED.,.F.,
 .F.,.F.)
B_SPLINE_SURFACE_WITH_KNOTS((4,1,1,1,1,1,1,1,1,1,1,1,1,1,1,1,1,4),(3,3),
(0.0592922687346577,0.062513431360761,0.0641240126738127,0.0649293033303385,
0.0657345939868644,0.067345175299916,0.0689557566129677,0.072176919239071,
0.0737875005521227,0.0753980818651743,0.077008663178226,0.0786192444912777,
0.0802298258043293,0.081840407117381,0.0826456977739068,0.0834509884304326,
0.0842562790869585,0.0850615697434843),(0.,1.),.UNSPECIFIED.)
GEOMETRIC_REPRESENTATION_ITEM()
RATIONAL_B_SPLINE_SURFACE(((1.,0.707106781186548,1.),(1.,0.707106781186548,
1.),(1.,0.707106781186548,1.),(1.,0.707106781186548,1.),(1.,0.707106781186548,
1.),(1.,0.707106781186548,1.),(1.,0.707106781186548,1.),(1.,0.707106781186548,
1.),(1.,0.707106781186547,1.),(1.,0.707106781186548,1.),(1.,0.707106781186548,
1.),(1.,0.707106781186547,1.),(1.,0.707106781186548,1.),(1.,0.707106781186547,
1.),(1.,0.707106781186548,1.),(1.,0.707106781186547,1.),(1.,0.707106781186547,
1.),(1.,0.707106781186548,1.),(1.,0.707106781186548,1.),(1.,0.707106781186548,
1.)))
REPRESENTATION_ITEM('')
SURFACE()
);
#22=(
BOUNDED_SURFACE()
B_SPLINE_SURFACE(3,2,((#1125,#1126,#1127),(#1128,#1129,#1130),(#1131,#1132,
#1133),(#1134,#1135,#1136),(#1137,#1138,#1139),(#1140,#1141,#1142),(#1143,
#1144,#1145),(#1146,#1147,#1148),(#1149,#1150,#1151),(#1152,#1153,#1154),
(#1155,#1156,#1157),(#1158,#1159,#1160),(#1161,#1162,#1163),(#1164,#1165,
#1166),(#1167,#1168,#1169),(#1170,#1171,#1172),(#1173,#1174,#1175)),
 .UNSPECIFIED.,.F.,.F.,.F.)
B_SPLINE_SURFACE_WITH_KNOTS((4,1,1,1,1,1,1,1,1,1,1,1,1,1,4),(3,3),(0.0648984334362933,
0.0704569271394966,0.0732361739910983,0.0760154208426999,0.0787946676943016,
0.0801842911201024,0.0815739145459032,0.082963537971704,0.0843531613975049,
0.0850479731104053,0.0857427848233057,0.0864375965362061,0.0867850023926563,
0.0869587053208814,0.0871324082491065),(0.,1.),.UNSPECIFIED.)
GEOMETRIC_REPRESENTATION_ITEM()
RATIONAL_B_SPLINE_SURFACE(((1.,0.707106781186547,1.),(1.,0.707106781186547,
1.),(1.,0.707106781186548,1.),(1.,0.707106781186547,1.),(1.,0.707106781186548,
1.),(1.,0.707106781186547,1.),(1.,0.707106781186547,1.),(1.,0.707106781186548,
1.),(1.,0.707106781186547,1.),(1.,0.707106781186548,1.),(1.,0.707106781186548,
1.),(1.,0.707106781186548,1.),(1.,0.707106781186547,1.),(1.,0.707106781186548,
1.),(1.,0.707106781186547,1.),(1.,0.707106781186548,1.),(1.,0.707106781186548,
1.)))
REPRESENTATION_ITEM('')
SURFACE()
);
#23=(
BOUNDED_SURFACE()
B_SPLINE_SURFACE(3,2,((#1182,#1183,#1184),(#1185,#1186,#1187),(#1188,#1189,
#1190),(#1191,#1192,#1193),(#1194,#1195,#1196),(#1197,#1198,#1199),(#1200,
#1201,#1202),(#1203,#1204,#1205),(#1206,#1207,#1208),(#1209,#1210,#1211),
(#1212,#1213,#1214),(#1215,#1216,#1217),(#1218,#1219,#1220),(#1221,#1222,
#1223),(#1224,#1225,#1226),(#1227,#1228,#1229),(#1230,#1231,#1232),(#1233,
#1234,#1235),(#1236,#1237,#1238),(#1239,#1240,#1241)),.UNSPECIFIED.,.F.,
 .F.,.F.)
B_SPLINE_SURFACE_WITH_KNOTS((4,1,1,1,1,1,1,1,1,1,1,1,1,1,1,1,1,4),(3,3),
(0.0592922687346579,0.0625134313607612,0.0641240126738129,0.0649293033303387,
0.0657345939868646,0.0673451752999162,0.0689557566129679,0.0721769192390712,
0.0737875005521229,0.0753980818651745,0.0770086631782262,0.0786192444912778,
0.0802298258043295,0.0818404071173812,0.082645697773907,0.0834509884304328,
0.0842562790869586,0.0850615697434845),(0.,1.),.UNSPECIFIED.)
GEOMETRIC_REPRESENTATION_ITEM()
RATIONAL_B_SPLINE_SURFACE(((1.,0.707106781186548,1.),(1.,0.707106781186548,
1.),(1.,0.707106781186547,1.),(1.,0.707106781186549,1.),(1.,0.707106781186546,
1.),(1.,0.707106781186549,1.),(1.,0.707106781186547,1.),(1.,0.707106781186548,
1.),(1.,0.707106781186548,1.),(1.,0.707106781186548,1.),(1.,0.707106781186548,
1.),(1.,0.707106781186547,1.),(1.,0.707106781186547,1.),(1.,0.707106781186548,
1.),(1.,0.707106781186548,1.),(1.,0.707106781186547,1.),(1.,0.707106781186547,
1.),(1.,0.707106781186548,1.),(1.,0.707106781186548,1.),(1.,0.707106781186548,
1.)))
REPRESENTATION_ITEM('')
SURFACE()
);
#24=(
BOUNDED_SURFACE()
B_SPLINE_SURFACE(3,2,((#1242,#1243,#1244),(#1245,#1246,#1247),(#1248,#1249,
#1250),(#1251,#1252,#1253)),.UNSPECIFIED.,.F.,.F.,.F.)
B_SPLINE_SURFACE_WITH_KNOTS((4,4),(3,3),(0.00206948309740178,0.00273319826918636),
(0.,1.),.PIECEWISE_BEZIER_KNOTS.)
GEOMETRIC_REPRESENTATION_ITEM()
RATIONAL_B_SPLINE_SURFACE(((1.,0.707106781186967,1.),(1.,0.713247674447101,
1.),(1.,0.718907938582139,1.),(1.,0.724171744399936,1.)))
REPRESENTATION_ITEM('')
SURFACE()
);
#25=(
BOUNDED_SURFACE()
B_SPLINE_SURFACE(3,2,((#1263,#1264,#1265),(#1266,#1267,#1268),(#1269,#1270,
#1271),(#1272,#1273,#1274),(#1275,#1276,#1277),(#1278,#1279,#1280),(#1281,
#1282,#1283),(#1284,#1285,#1286),(#1287,#1288,#1289)),.UNSPECIFIED.,.F.,
 .F.,.F.)
B_SPLINE_SURFACE_WITH_KNOTS((4,1,1,1,1,1,4),(3,3),(1.5707963267949,1.96349540849362,
2.35619449019234,2.55254403104171,2.74889357189107,2.94524311274043,3.14159265358979),
(0.,1.),.UNSPECIFIED.)
GEOMETRIC_REPRESENTATION_ITEM()
RATIONAL_B_SPLINE_SURFACE(((1.,1.,1.),(1.,0.999999999999371,1.),(1.,0.97351379454561,
1.),(1.,0.886299164406139,1.),(1.,0.808034956513142,1.),(1.,0.754563896244571,
1.),(1.,0.716400177600187,1.),(1.,0.707106781189819,1.),(1.,0.707106781186548,
1.)))
REPRESENTATION_ITEM('')
SURFACE()
);
#26=(
BOUNDED_SURFACE()
B_SPLINE_SURFACE(3,2,((#1291,#1292,#1293),(#1294,#1295,#1296),(#1297,#1298,
#1299),(#1300,#1301,#1302),(#1303,#1304,#1305),(#1306,#1307,#1308),(#1309,
#1310,#1311)),.UNSPECIFIED.,.F.,.F.,.F.)
B_SPLINE_SURFACE_WITH_KNOTS((4,1,1,1,4),(3,3),(1.5707963267949,1.90778059309365,
2.2447648593924,2.58174912569114,2.91873339198989),(0.,1.),
 .UNSPECIFIED.)
GEOMETRIC_REPRESENTATION_ITEM()
RATIONAL_B_SPLINE_SURFACE(((1.,1.,1.),(1.,0.999999999999461,1.),(1.,0.980621588870664,
1.),(1.,0.901533368297778,1.),(1.,0.797404265070317,1.),(1.,0.740889242907079,
1.),(1.,0.724171744399888,1.)))
REPRESENTATION_ITEM('')
SURFACE()
);
#27=(
BOUNDED_SURFACE()
B_SPLINE_SURFACE(3,2,((#1317,#1318,#1319),(#1320,#1321,#1322),(#1323,#1324,
#1325),(#1326,#1327,#1328),(#1329,#1330,#1331),(#1332,#1333,#1334),(#1335,
#1336,#1337),(#1338,#1339,#1340),(#1341,#1342,#1343)),.UNSPECIFIED.,.F.,
 .F.,.F.)
B_SPLINE_SURFACE_WITH_KNOTS((4,1,1,1,1,1,4),(3,3),(1.5707963267949,1.96349540849362,
2.35619449019234,2.55254403104171,2.74889357189107,2.94524311274043,3.14159265358979),
(0.,1.),.UNSPECIFIED.)
GEOMETRIC_REPRESENTATION_ITEM()
RATIONAL_B_SPLINE_SURFACE(((1.,1.,1.),(1.,0.999999999999371,1.),(1.,0.97351379454561,
1.),(1.,0.886299164406139,1.),(1.,0.808034956513142,1.),(1.,0.754563896244571,
1.),(1.,0.716400177600187,1.),(1.,0.707106781189819,1.),(1.,0.707106781186548,
1.)))
REPRESENTATION_ITEM('')
SURFACE()
);
#28=(
BOUNDED_SURFACE()
B_SPLINE_SURFACE(3,2,((#1345,#1346,#1347),(#1348,#1349,#1350),(#1351,#1352,
#1353),(#1354,#1355,#1356),(#1357,#1358,#1359),(#1360,#1361,#1362),(#1363,
#1364,#1365)),.UNSPECIFIED.,.F.,.F.,.F.)
B_SPLINE_SURFACE_WITH_KNOTS((4,1,1,1,4),(3,3),(1.5707963267949,1.90778059309365,
2.2447648593924,2.58174912569114,2.91873339198989),(0.,1.),
 .UNSPECIFIED.)
GEOMETRIC_REPRESENTATION_ITEM()
RATIONAL_B_SPLINE_SURFACE(((1.,1.,1.),(1.,0.99999999999946,1.),(1.,0.980621588870686,
1.),(1.,0.901533368297702,1.),(1.,0.797404265070602,1.),(1.,0.740889242906466,
1.),(1.,0.724171744399888,1.)))
REPRESENTATION_ITEM('')
SURFACE()
);
#29=(
BOUNDED_SURFACE()
B_SPLINE_SURFACE(3,2,((#1374,#1375,#1376),(#1377,#1378,#1379),(#1380,#1381,
#1382),(#1383,#1384,#1385)),.UNSPECIFIED.,.F.,.F.,.F.)
B_SPLINE_SURFACE_WITH_KNOTS((4,4),(3,3),(0.00206948309741739,0.00273319826920229),
(0.,1.),.PIECEWISE_BEZIER_KNOTS.)
GEOMETRIC_REPRESENTATION_ITEM()
RATIONAL_B_SPLINE_SURFACE(((1.,0.707106781186528,1.),(1.,0.713247674593361,
1.),(1.,0.718907938598348,1.),(1.,0.724171744399887,1.)))
REPRESENTATION_ITEM('')
SURFACE()
);
#30=B_SPLINE_SURFACE_WITH_KNOTS('',3,1,((#806,#807),(#808,#809),(#810,#811),
(#812,#813)),.SURF_OF_LINEAR_EXTRUSION.,.F.,.F.,.F.,(4,4),(2,2),(-4.3316475240396E-16,
0.829892525620427),(0.,1.),.PIECEWISE_BEZIER_KNOTS.);
#31=B_SPLINE_SURFACE_WITH_KNOTS('',3,1,((#857,#858),(#859,#860),(#861,#862),
(#863,#864)),.SURF_OF_LINEAR_EXTRUSION.,.F.,.F.,.F.,(4,4),(2,2),(0.737050868578772,
1.),(0.,1.),.PIECEWISE_BEZIER_KNOTS.);
#32=B_SPLINE_SURFACE_WITH_KNOTS('',3,1,((#885,#886),(#887,#888),(#889,#890),
(#891,#892)),.SURF_OF_LINEAR_EXTRUSION.,.F.,.F.,.F.,(4,4),(2,2),(0.,1.),
(0.,1.),.PIECEWISE_BEZIER_KNOTS.);
#33=CYLINDRICAL_SURFACE('',#544,0.00836143482289828);
#34=CYLINDRICAL_SURFACE('',#550,0.001651);
#35=CYLINDRICAL_SURFACE('',#551,0.001651);
#36=CYLINDRICAL_SURFACE('',#552,0.001651);
#37=CYLINDRICAL_SURFACE('',#553,0.001651);
#38=CYLINDRICAL_SURFACE('',#554,0.004445);
#39=CYLINDRICAL_SURFACE('',#556,0.004445);
#40=CYLINDRICAL_SURFACE('',#561,0.00735852293811319);
#41=CYLINDRICAL_SURFACE('',#566,0.00735852293811319);
#42=CYLINDRICAL_SURFACE('',#568,0.00735852293811319);
#43=CYLINDRICAL_SURFACE('',#573,0.00735852293811319);
#44=B_SPLINE_CURVE_WITH_KNOTS('',3,(#707,#708,#709,#710,#711,#712,#713,
#714,#715),.UNSPECIFIED.,.F.,.F.,(4,1,1,1,1,1,4),(0.00748083024822273,0.0129198791065355,
0.0183589279648482,0.0210784523940045,0.0237979768231609,0.0265175012523173,
0.0292370256814736),.UNSPECIFIED.);
#45=B_SPLINE_CURVE_WITH_KNOTS('',3,(#717,#718,#719,#720),.UNSPECIFIED.,
 .F.,.F.,(4,4),(4.85384852733949E-17,0.00523620511055183),.UNSPECIFIED.);
#46=B_SPLINE_CURVE_WITH_KNOTS('',3,(#724,#725,#726,#727,#728,#729),
 .UNSPECIFIED.,.F.,.F.,(4,1,1,4),(0.00630926027603017,0.00869654872102519,
0.0110838371660202,0.0158584140560103),.UNSPECIFIED.);
#47=B_SPLINE_CURVE_WITH_KNOTS('',3,(#733,#734,#735,#736,#737),
 .UNSPECIFIED.,.F.,.F.,(4,1,4),(0.0189111587767192,0.0221202039008585,0.0253292490249978),
 .UNSPECIFIED.);
#48=B_SPLINE_CURVE_WITH_KNOTS('',3,(#743,#744,#745,#746,#747,#748,#749,
#750,#751),.UNSPECIFIED.,.F.,.F.,(4,1,1,1,1,1,4),(0.,0.00271814491743522,
0.00543628983487044,0.00815443475230566,0.0108725796697409,0.0163088695046113,
0.0217451593394817),.UNSPECIFIED.);
#49=B_SPLINE_CURVE_WITH_KNOTS('',3,(#760,#761,#762,#763,#764),
 .UNSPECIFIED.,.F.,.F.,(4,1,4),(0.,0.00319482266553826,0.00638964533107653),
 .UNSPECIFIED.);
#50=B_SPLINE_CURVE_WITH_KNOTS('',3,(#768,#769,#770,#771,#772,#773),
 .UNSPECIFIED.,.F.,.F.,(4,1,1,4),(0.00942886031514092,0.0141822763240902,
0.0165589843285648,0.0189356923330394),.UNSPECIFIED.);
#51=B_SPLINE_CURVE_WITH_KNOTS('',3,(#777,#778,#779,#780),.UNSPECIFIED.,
 .F.,.F.,(4,4),(0.0200039917278547,0.0252169900252895),.UNSPECIFIED.);
#52=B_SPLINE_CURVE_WITH_KNOTS('',3,(#784,#785,#786,#787,#788,#789,#790,
#791,#792),.UNSPECIFIED.,.F.,.F.,(4,1,1,1,1,1,4),(0.,0.00451988675003491,
0.00677983012505237,0.00903977350006983,0.0112997168750873,0.0135596602501047,
0.0180795470001397),.UNSPECIFIED.);
#53=B_SPLINE_CURVE_WITH_KNOTS('',3,(#793,#794,#795,#796,#797,#798,#799,
#800,#801,#802,#803,#804,#805),.UNSPECIFIED.,.F.,.F.,(4,1,1,1,1,1,1,1,1,
1,4),(0.,0.00279811088199563,0.00559622176399127,0.0083943326459869,0.00979338808698471,
0.0111924435279825,0.0125914989689803,0.0139905544099782,0.0167886652919738,
0.0195867761739694,0.0223848870559651),.UNSPECIFIED.);
#54=B_SPLINE_CURVE_WITH_KNOTS('',3,(#814,#815,#816,#817,#818,#819,#820,
#821,#822),.UNSPECIFIED.,.F.,.F.,(4,1,1,1,1,1,4),(-5.99999999947197E-8,
0.00206552270035519,0.00413110540071037,0.00619668810106555,0.00826227080142073,
0.0123934362021311,0.0165246016028415),.UNSPECIFIED.);
#55=B_SPLINE_CURVE_WITH_KNOTS('',3,(#825,#826,#827,#828),.UNSPECIFIED.,
 .F.,.F.,(4,4),(0.,0.000616134695823023),.UNSPECIFIED.);
#56=B_SPLINE_CURVE_WITH_KNOTS('',3,(#832,#833,#834,#835),.UNSPECIFIED.,
 .F.,.F.,(4,4),(0.,0.000616134695823025),.UNSPECIFIED.);
#57=B_SPLINE_CURVE_WITH_KNOTS('',3,(#837,#838,#839,#840,#841,#842,#843,
#844,#845),.UNSPECIFIED.,.F.,.F.,(4,1,1,1,1,1,4),(0.00643728306057117,0.0105684389776837,
0.0146995948947963,0.0167651728533525,0.0188307508119088,0.0208963287704651,
0.0229619067290213),.UNSPECIFIED.);
#58=B_SPLINE_CURVE_WITH_KNOTS('',3,(#868,#869,#870,#871,#872,#873,#874),
 .UNSPECIFIED.,.F.,.F.,(4,1,1,1,4),(1.58990032769613E-17,0.00201090519456176,
0.00402181038912351,0.00603271558368526,0.00804362077824701),
 .UNSPECIFIED.);
#59=B_SPLINE_CURVE_WITH_KNOTS('',3,(#878,#879,#880,#881,#882,#883,#884),
 .UNSPECIFIED.,.F.,.F.,(4,1,1,1,4),(0.,0.00201630280260728,0.00403260560521455,
0.00604890840782183,0.0080652112104291),.UNSPECIFIED.);
#60=B_SPLINE_CURVE_WITH_KNOTS('',3,(#893,#894,#895,#896,#897,#898,#899,
#900),.UNSPECIFIED.,.F.,.F.,(4,1,1,1,1,4),(-6.00000000414462E-8,0.00663503182957545,
0.013270123659151,0.0165876695739387,0.0199052154887264,0.0265403073183019),
 .UNSPECIFIED.);
#61=B_SPLINE_CURVE_WITH_KNOTS('',3,(#901,#902,#903,#904,#905,#906,#907,
#908),.UNSPECIFIED.,.F.,.F.,(4,1,1,1,1,4),(-6.00000000028143E-8,0.00664706119467712,
0.00997062179201568,0.0132941823893542,0.0199413035840314,0.0265884247787085),
 .UNSPECIFIED.);
#62=B_SPLINE_CURVE_WITH_KNOTS('',3,(#910,#911,#912,#913),.UNSPECIFIED.,
 .F.,.F.,(4,4),(0.,0.00131895883505031),.UNSPECIFIED.);
#63=B_SPLINE_CURVE_WITH_KNOTS('',3,(#914,#915,#916,#917),.UNSPECIFIED.,
 .F.,.F.,(4,4),(6.93889390390723E-18,0.00131895883505031),.UNSPECIFIED.);
#64=B_SPLINE_CURVE_WITH_KNOTS('',3,(#921,#922,#923,#924,#925,#926,#927,
#928,#929,#930,#931,#932,#933),.UNSPECIFIED.,.F.,.F.,(4,1,1,1,1,1,1,1,1,
1,4),(1.73472347597681E-18,0.00121913691988372,0.00243827383976744,0.00365741075965115,
0.00426697921959301,0.00487654767953487,0.00548611613947673,0.00609568459941859,
0.00731482151930231,0.00853395843918602,0.00975309535906974),
 .UNSPECIFIED.);
#65=B_SPLINE_CURVE_WITH_KNOTS('',3,(#934,#935,#936,#937,#938,#939,#940,
#941,#942,#943,#944,#945,#946),.UNSPECIFIED.,.F.,.F.,(4,1,1,1,1,1,1,1,1,
1,4),(0.,0.00121914895041968,0.00243829790083937,0.00365744685125905,0.00426702132646889,
0.00487659580167873,0.00548617027688858,0.00609574475209842,0.0073148937025181,
0.00853404265293779,0.00975319160335747),.UNSPECIFIED.);
#66=B_SPLINE_CURVE_WITH_KNOTS('',3,(#948,#949,#950,#951,#952,#953,#954,
#955,#956),.UNSPECIFIED.,.F.,.F.,(4,1,1,1,1,1,4),(5.64851643068858E-17,
0.00166142346566641,0.00249213519849959,0.00332284693133277,0.00415355866416594,
0.00498427039699912,0.00664569386266547),.UNSPECIFIED.);
#67=B_SPLINE_CURVE_WITH_KNOTS('',3,(#957,#958,#959,#960,#961,#962,#963,
#964,#965),.UNSPECIFIED.,.F.,.F.,(4,1,1,1,1,1,4),(2.16840434497101E-17,
0.00166142876526437,0.00249214314789654,0.00332285753052871,0.00415357191316088,
0.00498428629579305,0.0066457150610574),.UNSPECIFIED.);
#68=B_SPLINE_CURVE_WITH_KNOTS('',3,(#968,#969,#970,#971,#972,#973,#974,
#975,#976,#977,#978,#979,#980,#981,#982,#983,#984),.UNSPECIFIED.,.T.,.F.,
(1,1,1,1,1,1,1,1,1,1,1,1,1,1,1,1,1,1,1,1,1),(-0.00273838337517253,-0.00136919168758626,
-0.000684595843793132,0.,0.000684595843793132,0.00136919168758626,0.0020537875313794,
0.00273838337517253,0.00342297921896566,0.0041075750627588,0.00479217090655193,
0.00547676675034506,0.00616136259413819,0.00684595843793132,0.00821515012551759,
0.00958434181310385,0.010268937656897,0.0109535335006901,0.0116381293444833,
0.0123227251882764,0.0130073210320695),.UNSPECIFIED.);
#69=B_SPLINE_CURVE_WITH_KNOTS('',3,(#986,#987,#988,#989,#990,#991,#992,
#993,#994,#995,#996,#997,#998,#999,#1000,#1001,#1002),.UNSPECIFIED.,.T.,
 .F.,(1,1,1,1,1,1,1,1,1,1,1,1,1,1,1,1,1,1,1,1,1),(-0.00273838337517263,
-0.00136919168758631,-0.000684595843793157,0.,0.000684595843793156,0.00136919168758631,
0.00205378753137947,0.00273838337517263,0.00342297921896578,0.00410757506275894,
0.00479217090655209,0.00547676675034525,0.00616136259413841,0.00684595843793156,
0.00821515012551788,0.00958434181310419,0.0102689376568973,0.0109535335006905,
0.0116381293444837,0.0123227251882768,0.01300732103207),.UNSPECIFIED.);
#70=B_SPLINE_CURVE_WITH_KNOTS('',3,(#1060,#1061,#1062,#1063,#1064),
 .UNSPECIFIED.,.F.,.F.,(4,1,4),(0.,0.00347483332411846,0.00694966664823691),
 .UNSPECIFIED.);
#71=B_SPLINE_CURVE_WITH_KNOTS('',3,(#1177,#1178,#1179,#1180,#1181),
 .UNSPECIFIED.,.F.,.F.,(4,1,4),(0.,0.00347483332411833,0.00694966664823665),
 .UNSPECIFIED.);
#72=B_SPLINE_CURVE_WITH_KNOTS('',3,(#1254,#1255,#1256,#1257),
 .UNSPECIFIED.,.F.,.F.,(4,4),(4.44533104315064E-15,0.00164335135117967),
 .UNSPECIFIED.);
#73=B_SPLINE_CURVE_WITH_KNOTS('',3,(#1370,#1371,#1372,#1373),
 .UNSPECIFIED.,.F.,.F.,(4,4),(0.,0.00164335135117966),.UNSPECIFIED.);
#74=CIRCLE('',#533,0.00836143482289828);
#75=CIRCLE('',#535,0.00836143482289828);
#76=CIRCLE('',#537,0.001651);
#77=CIRCLE('',#538,0.001651);
#78=CIRCLE('',#539,0.001651);
#79=CIRCLE('',#541,0.001651);
#80=CIRCLE('',#542,0.001651);
#81=CIRCLE('',#543,0.001651);
#82=CIRCLE('',#545,0.00836143482289828);
#83=CIRCLE('',#548,0.004445);
#84=CIRCLE('',#549,0.004445);
#85=CIRCLE('',#555,0.004445);
#86=CIRCLE('',#557,0.004445);
#87=CIRCLE('',#558,0.004445);
#88=CIRCLE('',#559,0.004445);
#89=CIRCLE('',#560,0.004445);
#90=CIRCLE('',#572,0.004445);
#91=ORIENTED_EDGE('',*,*,#241,.T.);
#92=ORIENTED_EDGE('',*,*,#242,.T.);
#93=ORIENTED_EDGE('',*,*,#243,.F.);
#94=ORIENTED_EDGE('',*,*,#244,.T.);
#95=ORIENTED_EDGE('',*,*,#245,.F.);
#96=ORIENTED_EDGE('',*,*,#246,.T.);
#97=ORIENTED_EDGE('',*,*,#247,.T.);
#98=ORIENTED_EDGE('',*,*,#248,.T.);
#99=ORIENTED_EDGE('',*,*,#249,.F.);
#100=ORIENTED_EDGE('',*,*,#250,.T.);
#101=ORIENTED_EDGE('',*,*,#251,.T.);
#102=ORIENTED_EDGE('',*,*,#252,.T.);
#103=ORIENTED_EDGE('',*,*,#253,.T.);
#104=ORIENTED_EDGE('',*,*,#254,.F.);
#105=ORIENTED_EDGE('',*,*,#255,.T.);
#106=ORIENTED_EDGE('',*,*,#256,.F.);
#107=ORIENTED_EDGE('',*,*,#257,.T.);
#108=ORIENTED_EDGE('',*,*,#258,.T.);
#109=ORIENTED_EDGE('',*,*,#259,.T.);
#110=ORIENTED_EDGE('',*,*,#260,.T.);
#111=ORIENTED_EDGE('',*,*,#261,.T.);
#112=ORIENTED_EDGE('',*,*,#262,.T.);
#113=ORIENTED_EDGE('',*,*,#263,.F.);
#114=ORIENTED_EDGE('',*,*,#264,.T.);
#115=ORIENTED_EDGE('',*,*,#265,.T.);
#116=ORIENTED_EDGE('',*,*,#266,.T.);
#117=ORIENTED_EDGE('',*,*,#267,.T.);
#118=ORIENTED_EDGE('',*,*,#268,.T.);
#119=ORIENTED_EDGE('',*,*,#269,.F.);
#120=ORIENTED_EDGE('',*,*,#243,.T.);
#121=ORIENTED_EDGE('',*,*,#270,.T.);
#122=ORIENTED_EDGE('',*,*,#245,.T.);
#123=ORIENTED_EDGE('',*,*,#271,.T.);
#124=ORIENTED_EDGE('',*,*,#272,.T.);
#125=ORIENTED_EDGE('',*,*,#273,.T.);
#126=ORIENTED_EDGE('',*,*,#274,.T.);
#127=ORIENTED_EDGE('',*,*,#275,.T.);
#128=ORIENTED_EDGE('',*,*,#276,.T.);
#129=ORIENTED_EDGE('',*,*,#277,.T.);
#130=ORIENTED_EDGE('',*,*,#278,.T.);
#131=ORIENTED_EDGE('',*,*,#279,.T.);
#132=ORIENTED_EDGE('',*,*,#280,.T.);
#133=ORIENTED_EDGE('',*,*,#281,.F.);
#134=ORIENTED_EDGE('',*,*,#282,.T.);
#135=ORIENTED_EDGE('',*,*,#283,.T.);
#136=ORIENTED_EDGE('',*,*,#284,.F.);
#137=ORIENTED_EDGE('',*,*,#285,.T.);
#138=ORIENTED_EDGE('',*,*,#284,.T.);
#139=ORIENTED_EDGE('',*,*,#286,.T.);
#140=ORIENTED_EDGE('',*,*,#277,.F.);
#141=ORIENTED_EDGE('',*,*,#287,.T.);
#142=ORIENTED_EDGE('',*,*,#269,.T.);
#143=ORIENTED_EDGE('',*,*,#258,.F.);
#144=ORIENTED_EDGE('',*,*,#288,.T.);
#145=ORIENTED_EDGE('',*,*,#282,.F.);
#146=ORIENTED_EDGE('',*,*,#289,.T.);
#147=ORIENTED_EDGE('',*,*,#263,.T.);
#148=ORIENTED_EDGE('',*,*,#290,.T.);
#149=ORIENTED_EDGE('',*,*,#281,.T.);
#150=ORIENTED_EDGE('',*,*,#291,.T.);
#151=ORIENTED_EDGE('',*,*,#254,.T.);
#152=ORIENTED_EDGE('',*,*,#292,.T.);
#153=ORIENTED_EDGE('',*,*,#267,.F.);
#154=ORIENTED_EDGE('',*,*,#293,.T.);
#155=ORIENTED_EDGE('',*,*,#256,.T.);
#156=ORIENTED_EDGE('',*,*,#294,.T.);
#157=ORIENTED_EDGE('',*,*,#265,.F.);
#158=ORIENTED_EDGE('',*,*,#295,.T.);
#159=ORIENTED_EDGE('',*,*,#249,.T.);
#160=ORIENTED_EDGE('',*,*,#259,.F.);
#161=ORIENTED_EDGE('',*,*,#296,.T.);
#162=ORIENTED_EDGE('',*,*,#297,.F.);
#163=ORIENTED_EDGE('',*,*,#262,.F.);
#164=ORIENTED_EDGE('',*,*,#298,.T.);
#165=ORIENTED_EDGE('',*,*,#278,.F.);
#166=ORIENTED_EDGE('',*,*,#290,.F.);
#167=ORIENTED_EDGE('',*,*,#280,.F.);
#168=ORIENTED_EDGE('',*,*,#299,.T.);
#169=ORIENTED_EDGE('',*,*,#250,.F.);
#170=ORIENTED_EDGE('',*,*,#291,.F.);
#171=ORIENTED_EDGE('',*,*,#252,.F.);
#172=ORIENTED_EDGE('',*,*,#300,.T.);
#173=ORIENTED_EDGE('',*,*,#272,.F.);
#174=ORIENTED_EDGE('',*,*,#301,.F.);
#175=ORIENTED_EDGE('',*,*,#292,.F.);
#176=ORIENTED_EDGE('',*,*,#253,.F.);
#177=ORIENTED_EDGE('',*,*,#301,.T.);
#178=ORIENTED_EDGE('',*,*,#286,.F.);
#179=ORIENTED_EDGE('',*,*,#283,.F.);
#180=ORIENTED_EDGE('',*,*,#288,.F.);
#181=ORIENTED_EDGE('',*,*,#257,.F.);
#182=ORIENTED_EDGE('',*,*,#294,.F.);
#183=ORIENTED_EDGE('',*,*,#255,.F.);
#184=ORIENTED_EDGE('',*,*,#296,.F.);
#185=ORIENTED_EDGE('',*,*,#276,.F.);
#186=ORIENTED_EDGE('',*,*,#302,.T.);
#187=ORIENTED_EDGE('',*,*,#260,.F.);
#188=ORIENTED_EDGE('',*,*,#303,.F.);
#189=ORIENTED_EDGE('',*,*,#285,.F.);
#190=ORIENTED_EDGE('',*,*,#287,.F.);
#191=ORIENTED_EDGE('',*,*,#303,.T.);
#192=ORIENTED_EDGE('',*,*,#268,.F.);
#193=ORIENTED_EDGE('',*,*,#293,.F.);
#194=ORIENTED_EDGE('',*,*,#266,.F.);
#195=ORIENTED_EDGE('',*,*,#295,.F.);
#196=ORIENTED_EDGE('',*,*,#264,.F.);
#197=ORIENTED_EDGE('',*,*,#289,.F.);
#198=ORIENTED_EDGE('',*,*,#297,.T.);
#199=ORIENTED_EDGE('',*,*,#304,.F.);
#200=ORIENTED_EDGE('',*,*,#302,.F.);
#201=ORIENTED_EDGE('',*,*,#275,.F.);
#202=ORIENTED_EDGE('',*,*,#305,.F.);
#203=ORIENTED_EDGE('',*,*,#306,.F.);
#204=ORIENTED_EDGE('',*,*,#261,.F.);
#205=ORIENTED_EDGE('',*,*,#304,.T.);
#206=ORIENTED_EDGE('',*,*,#307,.F.);
#207=ORIENTED_EDGE('',*,*,#241,.F.);
#208=ORIENTED_EDGE('',*,*,#298,.F.);
#209=ORIENTED_EDGE('',*,*,#306,.T.);
#210=ORIENTED_EDGE('',*,*,#308,.F.);
#211=ORIENTED_EDGE('',*,*,#307,.T.);
#212=ORIENTED_EDGE('',*,*,#305,.T.);
#213=ORIENTED_EDGE('',*,*,#309,.F.);
#214=ORIENTED_EDGE('',*,*,#271,.F.);
#215=ORIENTED_EDGE('',*,*,#248,.F.);
#216=ORIENTED_EDGE('',*,*,#310,.F.);
#217=ORIENTED_EDGE('',*,*,#279,.F.);
#218=ORIENTED_EDGE('',*,*,#308,.T.);
#219=ORIENTED_EDGE('',*,*,#244,.F.);
#220=ORIENTED_EDGE('',*,*,#309,.T.);
#221=ORIENTED_EDGE('',*,*,#274,.F.);
#222=ORIENTED_EDGE('',*,*,#311,.F.);
#223=ORIENTED_EDGE('',*,*,#246,.F.);
#224=ORIENTED_EDGE('',*,*,#270,.F.);
#225=ORIENTED_EDGE('',*,*,#242,.F.);
#226=ORIENTED_EDGE('',*,*,#299,.F.);
#227=ORIENTED_EDGE('',*,*,#310,.T.);
#228=ORIENTED_EDGE('',*,*,#312,.F.);
#229=ORIENTED_EDGE('',*,*,#313,.F.);
#230=ORIENTED_EDGE('',*,*,#311,.T.);
#231=ORIENTED_EDGE('',*,*,#314,.F.);
#232=ORIENTED_EDGE('',*,*,#247,.F.);
#233=ORIENTED_EDGE('',*,*,#313,.T.);
#234=ORIENTED_EDGE('',*,*,#315,.F.);
#235=ORIENTED_EDGE('',*,*,#251,.F.);
#236=ORIENTED_EDGE('',*,*,#312,.T.);
#237=ORIENTED_EDGE('',*,*,#314,.T.);
#238=ORIENTED_EDGE('',*,*,#273,.F.);
#239=ORIENTED_EDGE('',*,*,#300,.F.);
#240=ORIENTED_EDGE('',*,*,#315,.T.);
#241=EDGE_CURVE('',#316,#317,#363,.F.);
#242=EDGE_CURVE('',#317,#318,#364,.F.);
#243=EDGE_CURVE('',#319,#318,#74,.T.);
#244=EDGE_CURVE('',#319,#316,#365,.F.);
#245=EDGE_CURVE('',#320,#321,#75,.T.);
#246=EDGE_CURVE('',#320,#322,#366,.F.);
#247=EDGE_CURVE('',#322,#323,#367,.T.);
#248=EDGE_CURVE('',#323,#321,#368,.F.);
#249=EDGE_CURVE('',#324,#324,#76,.T.);
#250=EDGE_CURVE('',#325,#326,#369,.F.);
#251=EDGE_CURVE('',#326,#327,#370,.F.);
#252=EDGE_CURVE('',#327,#328,#44,.T.);
#253=EDGE_CURVE('',#328,#329,#45,.T.);
#254=EDGE_CURVE('',#330,#329,#77,.T.);
#255=EDGE_CURVE('',#330,#331,#46,.T.);
#256=EDGE_CURVE('',#332,#331,#78,.T.);
#257=EDGE_CURVE('',#332,#333,#47,.T.);
#258=EDGE_CURVE('',#333,#325,#371,.T.);
#259=EDGE_CURVE('',#334,#334,#79,.T.);
#260=EDGE_CURVE('',#335,#336,#48,.T.);
#261=EDGE_CURVE('',#336,#337,#372,.T.);
#262=EDGE_CURVE('',#337,#338,#373,.T.);
#263=EDGE_CURVE('',#339,#338,#374,.T.);
#264=EDGE_CURVE('',#339,#340,#49,.T.);
#265=EDGE_CURVE('',#340,#341,#80,.T.);
#266=EDGE_CURVE('',#341,#342,#50,.T.);
#267=EDGE_CURVE('',#342,#343,#81,.T.);
#268=EDGE_CURVE('',#343,#335,#51,.T.);
#269=EDGE_CURVE('',#344,#344,#82,.F.);
#270=EDGE_CURVE('',#318,#320,#52,.T.);
#271=EDGE_CURVE('',#321,#319,#53,.T.);
#272=EDGE_CURVE('',#345,#346,#54,.T.);
#273=EDGE_CURVE('',#346,#347,#55,.T.);
#274=EDGE_CURVE('',#347,#348,#375,.F.);
#275=EDGE_CURVE('',#348,#349,#56,.T.);
#276=EDGE_CURVE('',#349,#350,#57,.T.);
#277=EDGE_CURVE('',#350,#345,#376,.T.);
#278=EDGE_CURVE('',#351,#352,#377,.F.);
#279=EDGE_CURVE('',#352,#353,#378,.T.);
#280=EDGE_CURVE('',#353,#354,#379,.T.);
#281=EDGE_CURVE('',#351,#354,#380,.T.);
#282=EDGE_CURVE('',#355,#356,#381,.T.);
#283=EDGE_CURVE('',#356,#357,#58,.T.);
#284=EDGE_CURVE('',#358,#357,#382,.T.);
#285=EDGE_CURVE('',#358,#355,#59,.T.);
#286=EDGE_CURVE('',#357,#345,#60,.T.);
#287=EDGE_CURVE('',#350,#358,#61,.T.);
#288=EDGE_CURVE('',#333,#356,#62,.T.);
#289=EDGE_CURVE('',#355,#339,#63,.T.);
#290=EDGE_CURVE('',#338,#351,#83,.T.);
#291=EDGE_CURVE('',#354,#325,#84,.T.);
#292=EDGE_CURVE('',#329,#330,#64,.T.);
#293=EDGE_CURVE('',#342,#343,#65,.T.);
#294=EDGE_CURVE('',#331,#332,#66,.T.);
#295=EDGE_CURVE('',#340,#341,#67,.T.);
#296=EDGE_CURVE('',#359,#359,#68,.T.);
#297=EDGE_CURVE('',#360,#360,#69,.T.);
#298=EDGE_CURVE('',#337,#352,#85,.T.);
#299=EDGE_CURVE('',#353,#326,#86,.T.);
#300=EDGE_CURVE('',#327,#346,#87,.T.);
#301=EDGE_CURVE('',#328,#345,#70,.F.);
#302=EDGE_CURVE('',#349,#336,#88,.T.);
#303=EDGE_CURVE('',#350,#335,#71,.T.);
#304=EDGE_CURVE('',#336,#361,#72,.T.);
#305=EDGE_CURVE('',#361,#348,#89,.T.);
#306=EDGE_CURVE('',#337,#316,#12,.T.);
#307=EDGE_CURVE('',#317,#361,#13,.F.);
#308=EDGE_CURVE('',#352,#316,#14,.T.);
#309=EDGE_CURVE('',#317,#348,#15,.F.);
#310=EDGE_CURVE('',#353,#323,#16,.T.);
#311=EDGE_CURVE('',#322,#347,#17,.F.);
#312=EDGE_CURVE('',#326,#323,#18,.T.);
#313=EDGE_CURVE('',#322,#362,#19,.F.);
#314=EDGE_CURVE('',#362,#347,#90,.F.);
#315=EDGE_CURVE('',#327,#362,#73,.T.);
#316=VERTEX_POINT('',#683);
#317=VERTEX_POINT('',#684);
#318=VERTEX_POINT('',#686);
#319=VERTEX_POINT('',#688);
#320=VERTEX_POINT('',#692);
#321=VERTEX_POINT('',#693);
#322=VERTEX_POINT('',#695);
#323=VERTEX_POINT('',#697);
#324=VERTEX_POINT('',#701);
#325=VERTEX_POINT('',#703);
#326=VERTEX_POINT('',#704);
#327=VERTEX_POINT('',#706);
#328=VERTEX_POINT('',#716);
#329=VERTEX_POINT('',#721);
#330=VERTEX_POINT('',#723);
#331=VERTEX_POINT('',#730);
#332=VERTEX_POINT('',#732);
#333=VERTEX_POINT('',#738);
#334=VERTEX_POINT('',#742);
#335=VERTEX_POINT('',#752);
#336=VERTEX_POINT('',#753);
#337=VERTEX_POINT('',#755);
#338=VERTEX_POINT('',#757);
#339=VERTEX_POINT('',#759);
#340=VERTEX_POINT('',#765);
#341=VERTEX_POINT('',#767);
#342=VERTEX_POINT('',#774);
#343=VERTEX_POINT('',#776);
#344=VERTEX_POINT('',#783);
#345=VERTEX_POINT('',#823);
#346=VERTEX_POINT('',#824);
#347=VERTEX_POINT('',#829);
#348=VERTEX_POINT('',#831);
#349=VERTEX_POINT('',#836);
#350=VERTEX_POINT('',#846);
#351=VERTEX_POINT('',#850);
#352=VERTEX_POINT('',#851);
#353=VERTEX_POINT('',#853);
#354=VERTEX_POINT('',#855);
#355=VERTEX_POINT('',#866);
#356=VERTEX_POINT('',#867);
#357=VERTEX_POINT('',#875);
#358=VERTEX_POINT('',#877);
#359=VERTEX_POINT('',#985);
#360=VERTEX_POINT('',#1003);
#361=VERTEX_POINT('',#1258);
#362=VERTEX_POINT('',#1367);
#363=LINE('',#682,#383);
#364=LINE('',#685,#384);
#365=LINE('',#689,#385);
#366=LINE('',#694,#386);
#367=LINE('',#696,#387);
#368=LINE('',#698,#388);
#369=LINE('',#702,#389);
#370=LINE('',#705,#390);
#371=LINE('',#739,#391);
#372=LINE('',#754,#392);
#373=LINE('',#756,#393);
#374=LINE('',#758,#394);
#375=LINE('',#830,#395);
#376=LINE('',#847,#396);
#377=LINE('',#849,#397);
#378=LINE('',#852,#398);
#379=LINE('',#854,#399);
#380=LINE('',#856,#400);
#381=LINE('',#865,#401);
#382=LINE('',#876,#402);
#383=VECTOR('',#578,1.);
#384=VECTOR('',#579,1.);
#385=VECTOR('',#582,1.);
#386=VECTOR('',#587,1.);
#387=VECTOR('',#588,1.);
#388=VECTOR('',#589,1.);
#389=VECTOR('',#594,1.);
#390=VECTOR('',#595,1.);
#391=VECTOR('',#600,1.);
#392=VECTOR('',#605,1.);
#393=VECTOR('',#606,1.);
#394=VECTOR('',#607,1.);
#395=VECTOR('',#616,1.);
#396=VECTOR('',#617,1.);
#397=VECTOR('',#620,1.);
#398=VECTOR('',#621,1.);
#399=VECTOR('',#622,1.);
#400=VECTOR('',#623,1.);
#401=VECTOR('',#624,1.);
#402=VECTOR('',#625,1.);
#403=EDGE_LOOP('',(#91,#92,#93,#94));
#404=EDGE_LOOP('',(#95,#96,#97,#98));
#405=EDGE_LOOP('',(#99));
#406=EDGE_LOOP('',(#100,#101,#102,#103,#104,#105,#106,#107,#108));
#407=EDGE_LOOP('',(#109));
#408=EDGE_LOOP('',(#110,#111,#112,#113,#114,#115,#116,#117,#118));
#409=EDGE_LOOP('',(#119));
#410=EDGE_LOOP('',(#120,#121,#122,#123));
#411=EDGE_LOOP('',(#124,#125,#126,#127,#128,#129));
#412=EDGE_LOOP('',(#130,#131,#132,#133));
#413=EDGE_LOOP('',(#134,#135,#136,#137));
#414=EDGE_LOOP('',(#138,#139,#140,#141));
#415=EDGE_LOOP('',(#142));
#416=EDGE_LOOP('',(#143,#144,#145,#146,#147,#148,#149,#150));
#417=EDGE_LOOP('',(#151,#152));
#418=EDGE_LOOP('',(#153,#154));
#419=EDGE_LOOP('',(#155,#156));
#420=EDGE_LOOP('',(#157,#158));
#421=EDGE_LOOP('',(#159));
#422=EDGE_LOOP('',(#160));
#423=EDGE_LOOP('',(#161));
#424=EDGE_LOOP('',(#162));
#425=EDGE_LOOP('',(#163,#164,#165,#166));
#426=EDGE_LOOP('',(#167,#168,#169,#170));
#427=EDGE_LOOP('',(#171,#172,#173,#174));
#428=EDGE_LOOP('',(#175,#176,#177,#178,#179,#180,#181,#182,#183));
#429=EDGE_LOOP('',(#184));
#430=EDGE_LOOP('',(#185,#186,#187,#188));
#431=EDGE_LOOP('',(#189,#190,#191,#192,#193,#194,#195,#196,#197));
#432=EDGE_LOOP('',(#198));
#433=EDGE_LOOP('',(#199,#200,#201,#202));
#434=EDGE_LOOP('',(#203,#204,#205,#206,#207));
#435=EDGE_LOOP('',(#208,#209,#210));
#436=EDGE_LOOP('',(#211,#212,#213));
#437=EDGE_LOOP('',(#214,#215,#216,#217,#218,#219));
#438=EDGE_LOOP('',(#220,#221,#222,#223,#224,#225));
#439=EDGE_LOOP('',(#226,#227,#228));
#440=EDGE_LOOP('',(#229,#230,#231));
#441=EDGE_LOOP('',(#232,#233,#234,#235,#236));
#442=EDGE_LOOP('',(#237,#238,#239,#240));
#443=FACE_BOUND('',#403,.T.);
#444=FACE_BOUND('',#404,.T.);
#445=FACE_BOUND('',#405,.T.);
#446=FACE_BOUND('',#406,.T.);
#447=FACE_BOUND('',#407,.T.);
#448=FACE_BOUND('',#408,.T.);
#449=FACE_BOUND('',#409,.T.);
#450=FACE_BOUND('',#410,.T.);
#451=FACE_BOUND('',#411,.T.);
#452=FACE_BOUND('',#412,.T.);
#453=FACE_BOUND('',#413,.T.);
#454=FACE_BOUND('',#414,.T.);
#455=FACE_BOUND('',#415,.T.);
#456=FACE_BOUND('',#416,.T.);
#457=FACE_BOUND('',#417,.T.);
#458=FACE_BOUND('',#418,.T.);
#459=FACE_BOUND('',#419,.T.);
#460=FACE_BOUND('',#420,.T.);
#461=FACE_BOUND('',#421,.T.);
#462=FACE_BOUND('',#422,.T.);
#463=FACE_BOUND('',#423,.T.);
#464=FACE_BOUND('',#424,.T.);
#465=FACE_BOUND('',#425,.T.);
#466=FACE_BOUND('',#426,.T.);
#467=FACE_BOUND('',#427,.T.);
#468=FACE_BOUND('',#428,.T.);
#469=FACE_BOUND('',#429,.T.);
#470=FACE_BOUND('',#430,.T.);
#471=FACE_BOUND('',#431,.T.);
#472=FACE_BOUND('',#432,.T.);
#473=FACE_BOUND('',#433,.T.);
#474=FACE_BOUND('',#434,.T.);
#475=FACE_BOUND('',#435,.T.);
#476=FACE_BOUND('',#436,.T.);
#477=FACE_BOUND('',#437,.T.);
#478=FACE_BOUND('',#438,.T.);
#479=FACE_BOUND('',#439,.T.);
#480=FACE_BOUND('',#440,.T.);
#481=FACE_BOUND('',#441,.T.);
#482=FACE_BOUND('',#442,.T.);
#483=PLANE('',#532);
#484=PLANE('',#534);
#485=PLANE('',#536);
#486=PLANE('',#540);
#487=PLANE('',#546);
#488=PLANE('',#547);
#489=ADVANCED_FACE('',(#443),#483,.T.);
#490=ADVANCED_FACE('',(#444),#484,.T.);
#491=ADVANCED_FACE('',(#445,#446),#485,.T.);
#492=ADVANCED_FACE('',(#447,#448),#486,.F.);
#493=ADVANCED_FACE('',(#449,#450),#33,.F.);
#494=ADVANCED_FACE('',(#451),#30,.F.);
#495=ADVANCED_FACE('',(#452),#487,.F.);
#496=ADVANCED_FACE('',(#453),#31,.F.);
#497=ADVANCED_FACE('',(#454),#32,.F.);
#498=ADVANCED_FACE('',(#455,#456),#488,.T.);
#499=ADVANCED_FACE('',(#457,#458),#34,.F.);
#500=ADVANCED_FACE('',(#459,#460),#35,.F.);
#501=ADVANCED_FACE('',(#461,#462),#36,.F.);
#502=ADVANCED_FACE('',(#463,#464),#37,.F.);
#503=ADVANCED_FACE('',(#465),#38,.T.);
#504=ADVANCED_FACE('',(#466),#39,.T.);
#505=ADVANCED_FACE('',(#467),#20,.T.);
#506=ADVANCED_FACE('',(#468,#469),#21,.T.);
#507=ADVANCED_FACE('',(#470),#22,.T.);
#508=ADVANCED_FACE('',(#471,#472),#23,.T.);
#509=ADVANCED_FACE('',(#473),#24,.T.);
#510=ADVANCED_FACE('',(#474),#40,.T.);
#511=ADVANCED_FACE('',(#475),#25,.T.);
#512=ADVANCED_FACE('',(#476),#26,.T.);
#513=ADVANCED_FACE('',(#477),#41,.T.);
#514=ADVANCED_FACE('',(#478),#42,.T.);
#515=ADVANCED_FACE('',(#479),#27,.T.);
#516=ADVANCED_FACE('',(#480),#28,.T.);
#517=ADVANCED_FACE('',(#481),#43,.T.);
#518=ADVANCED_FACE('',(#482),#29,.T.);
#519=CLOSED_SHELL('',(#489,#490,#491,#492,#493,#494,#495,#496,#497,#498,
#499,#500,#501,#502,#503,#504,#505,#506,#507,#508,#509,#510,#511,#512,#513,
#514,#515,#516,#517,#518));
#520=STYLED_ITEM('',(#521),#528);
#521=PRESENTATION_STYLE_ASSIGNMENT((#522));
#522=SURFACE_STYLE_USAGE(.BOTH.,#523);
#523=SURFACE_SIDE_STYLE('',(#524));
#524=SURFACE_STYLE_FILL_AREA(#525);
#525=FILL_AREA_STYLE('',(#526));
#526=FILL_AREA_STYLE_COLOUR('',#527);
#527=COLOUR_RGB('',0.647058823529412,0.647058823529412,0.647058823529412);
#528=MANIFOLD_SOLID_BREP('Part 1',#519);
#529=SHAPE_DEFINITION_REPRESENTATION(#1392,#530);
#530=SHAPE_REPRESENTATION('Part 1',(#531),#1387);
#531=AXIS2_PLACEMENT_3D('',#680,#574,#575);
#532=AXIS2_PLACEMENT_3D('',#681,#576,#577);
#533=AXIS2_PLACEMENT_3D('',#687,#580,#581);
#534=AXIS2_PLACEMENT_3D('',#690,#583,#584);
#535=AXIS2_PLACEMENT_3D('',#691,#585,#586);
#536=AXIS2_PLACEMENT_3D('',#699,#590,#591);
#537=AXIS2_PLACEMENT_3D('',#700,#592,#593);
#538=AXIS2_PLACEMENT_3D('',#722,#596,#597);
#539=AXIS2_PLACEMENT_3D('',#731,#598,#599);
#540=AXIS2_PLACEMENT_3D('',#740,#601,#602);
#541=AXIS2_PLACEMENT_3D('',#741,#603,#604);
#542=AXIS2_PLACEMENT_3D('',#766,#608,#609);
#543=AXIS2_PLACEMENT_3D('',#775,#610,#611);
#544=AXIS2_PLACEMENT_3D('',#781,#612,#613);
#545=AXIS2_PLACEMENT_3D('',#782,#614,#615);
#546=AXIS2_PLACEMENT_3D('',#848,#618,#619);
#547=AXIS2_PLACEMENT_3D('',#909,#626,#627);
#548=AXIS2_PLACEMENT_3D('',#918,#628,#629);
#549=AXIS2_PLACEMENT_3D('',#919,#630,#631);
#550=AXIS2_PLACEMENT_3D('',#920,#632,#633);
#551=AXIS2_PLACEMENT_3D('',#947,#634,#635);
#552=AXIS2_PLACEMENT_3D('',#966,#636,#637);
#553=AXIS2_PLACEMENT_3D('',#967,#638,#639);
#554=AXIS2_PLACEMENT_3D('',#1004,#640,#641);
#555=AXIS2_PLACEMENT_3D('',#1005,#642,#643);
#556=AXIS2_PLACEMENT_3D('',#1006,#644,#645);
#557=AXIS2_PLACEMENT_3D('',#1007,#646,#647);
#558=AXIS2_PLACEMENT_3D('',#1059,#648,#649);
#559=AXIS2_PLACEMENT_3D('',#1176,#650,#651);
#560=AXIS2_PLACEMENT_3D('',#1259,#652,#653);
#561=AXIS2_PLACEMENT_3D('',#1260,#654,#655);
#562=AXIS2_PLACEMENT_3D('',#1261,#656,#657);
#563=AXIS2_PLACEMENT_3D('',#1262,#658,#659);
#564=AXIS2_PLACEMENT_3D('',#1290,#660,#661);
#565=AXIS2_PLACEMENT_3D('',#1312,#662,#663);
#566=AXIS2_PLACEMENT_3D('',#1313,#664,#665);
#567=AXIS2_PLACEMENT_3D('',#1314,#666,#667);
#568=AXIS2_PLACEMENT_3D('',#1315,#668,#669);
#569=AXIS2_PLACEMENT_3D('',#1316,#670,#671);
#570=AXIS2_PLACEMENT_3D('',#1344,#672,#673);
#571=AXIS2_PLACEMENT_3D('',#1366,#674,#675);
#572=AXIS2_PLACEMENT_3D('',#1368,#676,#677);
#573=AXIS2_PLACEMENT_3D('',#1369,#678,#679);
#574=DIRECTION('',(0.,0.,1.));
#575=DIRECTION('',(1.,0.,0.));
#576=DIRECTION('',(-1.,0.,0.));
#577=DIRECTION('',(0.,0.,1.));
#578=DIRECTION('',(0.,0.,1.));
#579=DIRECTION('',(0.,1.,0.));
#580=DIRECTION('',(-1.,0.,0.));
#581=DIRECTION('',(0.,0.,1.));
#582=DIRECTION('',(0.,-1.,0.));
#583=DIRECTION('',(-1.,0.,0.));
#584=DIRECTION('',(0.,0.,1.));
#585=DIRECTION('',(-1.,0.,0.));
#586=DIRECTION('',(0.,0.,1.));
#587=DIRECTION('',(0.,1.,0.));
#588=DIRECTION('',(0.,0.,1.));
#589=DIRECTION('',(0.,-1.,0.));
#590=DIRECTION('',(7.80527998189789E-17,-1.,0.));
#591=DIRECTION('',(1.,7.80527998189789E-17,0.));
#592=DIRECTION('',(7.80527998189789E-17,-1.,0.));
#593=DIRECTION('',(1.,7.80527998189789E-17,0.));
#594=DIRECTION('',(1.,7.80527998189789E-17,0.));
#595=DIRECTION('',(0.,0.,1.));
#596=DIRECTION('',(7.80527998189789E-17,-1.,0.));
#597=DIRECTION('',(1.,7.80527998189789E-17,0.));
#598=DIRECTION('',(7.80527998189789E-17,-1.,0.));
#599=DIRECTION('',(1.,7.80527998189789E-17,0.));
#600=DIRECTION('',(0.,0.,1.));
#601=DIRECTION('',(2.34158399456937E-16,-1.,0.));
#602=DIRECTION('',(1.,2.34158399456937E-16,0.));
#603=DIRECTION('',(2.34158399456937E-16,-1.,0.));
#604=DIRECTION('',(1.,2.34158399456937E-16,0.));
#605=DIRECTION('',(0.,0.,1.));
#606=DIRECTION('',(1.,2.34158399456937E-16,0.));
#607=DIRECTION('',(0.,0.,1.));
#608=DIRECTION('',(2.34158399456937E-16,-1.,0.));
#609=DIRECTION('',(1.,2.34158399456937E-16,0.));
#610=DIRECTION('',(2.34158399456937E-16,-1.,0.));
#611=DIRECTION('',(1.,2.34158399456937E-16,0.));
#612=DIRECTION('',(-1.,0.,0.));
#613=DIRECTION('',(0.,0.,1.));
#614=DIRECTION('',(1.,7.80527998189789E-17,0.));
#615=DIRECTION('',(-7.80527998189789E-17,1.,0.));
#616=DIRECTION('',(7.80527998189789E-17,-1.,0.));
#617=DIRECTION('',(7.80527998189789E-17,-1.,0.));
#618=DIRECTION('',(0.,0.,-1.));
#619=DIRECTION('',(-1.,0.,0.));
#620=DIRECTION('',(1.,2.34158399456937E-16,0.));
#621=DIRECTION('',(0.,-1.,0.));
#622=DIRECTION('',(1.,7.80527998189789E-17,0.));
#623=DIRECTION('',(7.80527998189789E-17,-1.,0.));
#624=DIRECTION('',(7.80527998189789E-17,-1.,0.));
#625=DIRECTION('',(7.80527998189789E-17,-1.,0.));
#626=DIRECTION('',(1.,7.80527998189789E-17,0.));
#627=DIRECTION('',(-7.80527998189789E-17,1.,0.));
#628=DIRECTION('',(1.,7.80527998189789E-17,0.));
#629=DIRECTION('',(-7.80527998189789E-17,1.,0.));
#630=DIRECTION('',(1.,7.80527998189789E-17,0.));
#631=DIRECTION('',(-7.80527998189789E-17,1.,0.));
#632=DIRECTION('',(7.80527998189789E-17,-1.,0.));
#633=DIRECTION('',(1.,7.80527998189789E-17,0.));
#634=DIRECTION('',(7.80527998189789E-17,-1.,0.));
#635=DIRECTION('',(1.,7.80527998189789E-17,0.));
#636=DIRECTION('',(7.80527998189789E-17,-1.,0.));
#637=DIRECTION('',(1.,7.80527998189789E-17,0.));
#638=DIRECTION('',(7.80527998189789E-17,-1.,0.));
#639=DIRECTION('',(1.,7.80527998189789E-17,0.));
#640=DIRECTION('',(1.,2.34158399456937E-16,0.));
#641=DIRECTION('',(-2.34158399456937E-16,1.,0.));
#642=DIRECTION('',(1.,0.,0.));
#643=DIRECTION('',(0.,0.,-1.));
#644=DIRECTION('',(-1.,-7.80527998189789E-17,0.));
#645=DIRECTION('',(7.80527998189789E-17,-1.,0.));
#646=DIRECTION('',(1.,0.,0.));
#647=DIRECTION('',(0.,0.,-1.));
#648=DIRECTION('',(0.97276355502724,0.,-0.231799624699366));
#649=DIRECTION('',(-0.231799624699366,0.,-0.97276355502724));
#650=DIRECTION('',(0.972763555027203,1.54011821956612E-13,-0.231799624699519));
#651=DIRECTION('',(-0.231799624699519,0.,-0.972763555027203));
#652=DIRECTION('',(-0.952287453867305,-0.215810802796027,0.215810802796012));
#653=DIRECTION('',(0.221019073327072,-0.97526948543756,0.));
#654=DIRECTION('',(0.,0.,-1.));
#655=DIRECTION('',(-1.,0.,0.));
#656=DIRECTION('',(0.,-0.36813302933316,0.929773129700999));
#657=DIRECTION('',(0.,-0.929773129700999,-0.36813302933316));
#658=DIRECTION('',(-2.87338136452954E-17,0.36813302933316,0.929773129700999));
#659=DIRECTION('',(0.,-0.929773129700999,0.36813302933316));
#660=DIRECTION('',(0.,-0.929773129700999,0.36813302933316));
#661=DIRECTION('',(0.,-0.36813302933316,-0.929773129700999));
#662=DIRECTION('',(-7.25713959696176E-17,0.929773129700999,0.36813302933316));
#663=DIRECTION('',(0.,-0.36813302933316,0.929773129700999));
#664=DIRECTION('',(0.,1.,0.));
#665=DIRECTION('',(0.,0.,1.));
#666=DIRECTION('',(0.,-0.929773129700999,-0.36813302933316));
#667=DIRECTION('',(0.,0.36813302933316,-0.929773129700999));
#668=DIRECTION('',(7.80527998189789E-17,-1.,0.));
#669=DIRECTION('',(1.,7.80527998189789E-17,0.));
#670=DIRECTION('',(-7.25713959696176E-17,0.929773129700999,-0.36813302933316));
#671=DIRECTION('',(0.,0.36813302933316,0.929773129700999));
#672=DIRECTION('',(0.,-0.36813302933316,-0.929773129700999));
#673=DIRECTION('',(0.,0.929773129700999,-0.36813302933316));
#674=DIRECTION('',(-2.87338136452954E-17,0.36813302933316,-0.929773129700999));
#675=DIRECTION('',(0.,0.929773129700999,0.36813302933316));
#676=DIRECTION('',(-0.952287453867305,0.215810802796028,0.215810802796012));
#677=DIRECTION('',(-0.221019073327073,-0.97526948543756,0.));
#678=DIRECTION('',(0.,0.,1.));
#679=DIRECTION('',(1.,0.,0.));
#680=CARTESIAN_POINT('',(0.,0.,0.));
#681=CARTESIAN_POINT('',(-0.1016,-3.46944695195361E-18,-0.0127));
#682=CARTESIAN_POINT('',(-0.1016,0.0104214770618868,0.0146715730645025));
#683=CARTESIAN_POINT('',(-0.1016,0.0104214770618868,0.0226785299912883));
#684=CARTESIAN_POINT('',(-0.1016,0.0104214770618868,0.0163158017165805));
#685=CARTESIAN_POINT('',(-0.1016,-0.013335,0.0163158017165805));
#686=CARTESIAN_POINT('',(-0.1016,0.00734029893155834,0.0163158017165805));
#687=CARTESIAN_POINT('',(-0.1016,0.,0.02032));
#688=CARTESIAN_POINT('',(-0.1016,0.00802190305212979,0.0226785299912883));
#689=CARTESIAN_POINT('',(-0.1016,0.013335,0.0226785299912883));
#690=CARTESIAN_POINT('',(-0.1016,-3.46944695195361E-18,-0.0127));
#691=CARTESIAN_POINT('',(-0.1016,0.,0.02032));
#692=CARTESIAN_POINT('',(-0.1016,-0.00734029893155834,0.0163158017165805));
#693=CARTESIAN_POINT('',(-0.1016,-0.00802190305212979,0.0226785299912883));
#694=CARTESIAN_POINT('',(-0.1016,-0.013335,0.0163158017165805));
#695=CARTESIAN_POINT('',(-0.1016,-0.0104214770618868,0.0163158017165805));
#696=CARTESIAN_POINT('',(-0.1016,-0.0104214770618868,-0.0127));
#697=CARTESIAN_POINT('',(-0.1016,-0.0104214770618868,0.0226785299912883));
#698=CARTESIAN_POINT('',(-0.1016,0.013335,0.0226785299912883));
#699=CARTESIAN_POINT('',(-0.079375,-0.01778,-0.0127));
#700=CARTESIAN_POINT('',(-0.0685863196849823,-0.01778,-0.005461));
#701=CARTESIAN_POINT('',(-0.0669353196849823,-0.01778,-0.005461));
#702=CARTESIAN_POINT('',(-0.1016,-0.01778,0.0255920529294015));
#703=CARTESIAN_POINT('',(-0.05715,-0.01778,0.0255920529294015));
#704=CARTESIAN_POINT('',(-0.0942414770618868,-0.01778,0.0255920529294015));
#705=CARTESIAN_POINT('',(-0.0942414770618868,-0.01778,-0.0127));
#706=CARTESIAN_POINT('',(-0.0942414770618868,-0.01778,0.0133246828065496));
#707=CARTESIAN_POINT('',(-0.0942414770618868,-0.01778,0.0133246828065496));
#708=CARTESIAN_POINT('',(-0.0924762874067774,-0.01778,0.0129040561316878));
#709=CARTESIAN_POINT('',(-0.089012373619914,-0.01778,0.0119123899202824));
#710=CARTESIAN_POINT('',(-0.0848545530298863,-0.01778,0.0100000062410991));
#711=CARTESIAN_POINT('',(-0.0819501323539917,-0.01778,0.00783310427304995));
#712=CARTESIAN_POINT('',(-0.0800921678199964,-0.01778,0.0058052611570446));
#713=CARTESIAN_POINT('',(-0.0787561902516745,-0.01778,0.00339213954875046));
#714=CARTESIAN_POINT('',(-0.0783114001726979,-0.01778,0.00162770780254474));
#715=CARTESIAN_POINT('',(-0.0782041659694421,-0.01778,0.000715613087575352));
#716=CARTESIAN_POINT('',(-0.0782041659694421,-0.01778,0.000715613087575358));
#717=CARTESIAN_POINT('',(-0.0782041659694418,-0.01778,0.000715613087575403));
#718=CARTESIAN_POINT('',(-0.0778111086443679,-0.01778,-0.000990478451293084));
#719=CARTESIAN_POINT('',(-0.0771657331221557,-0.01778,-0.00264508866081225));
#720=CARTESIAN_POINT('',(-0.0760664753979438,-0.01778,-0.00401098533595626));
#721=CARTESIAN_POINT('',(-0.0760664753979438,-0.01778,-0.00401098533595625));
#722=CARTESIAN_POINT('',(-0.076855942606926,-0.01778,-0.005461));
#723=CARTESIAN_POINT('',(-0.075342551147543,-0.01778,-0.00480111569902999));
#724=CARTESIAN_POINT('',(-0.075342551147538,-0.01778,-0.00480111569902405));
#725=CARTESIAN_POINT('',(-0.0747721924490443,-0.01778,-0.00534776564184605));
#726=CARTESIAN_POINT('',(-0.0734583572757098,-0.01778,-0.00627470764022433));
#727=CARTESIAN_POINT('',(-0.0705081896799259,-0.01778,-0.00740683279802527));
#728=CARTESIAN_POINT('',(-0.0681202460544384,-0.01778,-0.00768336451350511));
#729=CARTESIAN_POINT('',(-0.0665438861317131,-0.01778,-0.00773008680448237));
#730=CARTESIAN_POINT('',(-0.0665438861317131,-0.01778,-0.00773008680448223));
#731=CARTESIAN_POINT('',(-0.0650137079113243,-0.01778,-0.00835005100816488));
#732=CARTESIAN_POINT('',(-0.0635124906429076,-0.01778,-0.00766292095278418));
#733=CARTESIAN_POINT('',(-0.0635124906429076,-0.01778,-0.00766292095278417));
#734=CARTESIAN_POINT('',(-0.0624498057753258,-0.01778,-0.00759002808087415));
#735=CARTESIAN_POINT('',(-0.0603313550534704,-0.01778,-0.00736736538022508));
#736=CARTESIAN_POINT('',(-0.0582102287165697,-0.01778,-0.00717443136098859));
#737=CARTESIAN_POINT('',(-0.05715,-0.01778,-0.00707424826619377));
#738=CARTESIAN_POINT('',(-0.05715,-0.01778,-0.00707424826619377));
#739=CARTESIAN_POINT('',(-0.05715,-0.01778,-0.0127));
#740=CARTESIAN_POINT('',(-0.079375,0.01778,-0.0127));
#741=CARTESIAN_POINT('',(-0.0685863196849823,0.01778,-0.005461));
#742=CARTESIAN_POINT('',(-0.0669353196849823,0.01778,-0.005461));
#743=CARTESIAN_POINT('',(-0.0782041659694422,0.01778,0.000715613087575358));
#744=CARTESIAN_POINT('',(-0.0783114001726979,0.01778,0.00162770780254457));
#745=CARTESIAN_POINT('',(-0.0787561902516744,0.01778,0.00339213954874997));
#746=CARTESIAN_POINT('',(-0.0800921678199959,0.01778,0.00580526115704378));
#747=CARTESIAN_POINT('',(-0.0819501323539905,0.01778,0.00783310427304889));
#748=CARTESIAN_POINT('',(-0.0848545530298845,0.01778,0.010000006241098));
#749=CARTESIAN_POINT('',(-0.0890123736199109,0.01778,0.0119123899202813));
#750=CARTESIAN_POINT('',(-0.0924762874067734,0.01778,0.0129040561316868));
#751=CARTESIAN_POINT('',(-0.0942414770618824,0.01778,0.0133246828065486));
#752=CARTESIAN_POINT('',(-0.0782041659694422,0.01778,0.000715613087575358));
#753=CARTESIAN_POINT('',(-0.0942414770618824,0.01778,0.0133246828065486));
#754=CARTESIAN_POINT('',(-0.0942414770618868,0.01778,0.0255920529294015));
#755=CARTESIAN_POINT('',(-0.0942414770618868,0.01778,0.0255920529294015));
#756=CARTESIAN_POINT('',(-0.079375,0.01778,0.0255920529294015));
#757=CARTESIAN_POINT('',(-0.05715,0.01778,0.0255920529294015));
#758=CARTESIAN_POINT('',(-0.05715,0.01778,-0.0127));
#759=CARTESIAN_POINT('',(-0.05715,0.01778,-0.00707424826619377));
#760=CARTESIAN_POINT('',(-0.05715,0.01778,-0.00707424826619377));
#761=CARTESIAN_POINT('',(-0.0582102287165697,0.01778,-0.00717443136098859));
#762=CARTESIAN_POINT('',(-0.0603313550534705,0.01778,-0.00736736538022509));
#763=CARTESIAN_POINT('',(-0.0624498057753259,0.01778,-0.00759002808087417));
#764=CARTESIAN_POINT('',(-0.0635124906429077,0.01778,-0.00766292095278418));
#765=CARTESIAN_POINT('',(-0.0635124906429077,0.01778,-0.00766292095278413));
#766=CARTESIAN_POINT('',(-0.0650137079113244,0.01778,-0.00835005100816488));
#767=CARTESIAN_POINT('',(-0.0665438861317132,0.01778,-0.00773008680448236));
#768=CARTESIAN_POINT('',(-0.0665438861317132,0.01778,-0.00773008680448237));
#769=CARTESIAN_POINT('',(-0.0681202460544415,0.01778,-0.00768336451350502));
#770=CARTESIAN_POINT('',(-0.0705081896799335,0.01778,-0.00740683279802439));
#771=CARTESIAN_POINT('',(-0.0734583572757225,0.01778,-0.00627470764021824));
#772=CARTESIAN_POINT('',(-0.0747721924490575,0.01778,-0.00534776564183585));
#773=CARTESIAN_POINT('',(-0.0753425511475511,0.01778,-0.00480111569901146));
#774=CARTESIAN_POINT('',(-0.0753425511475511,0.01778,-0.00480111569901147));
#775=CARTESIAN_POINT('',(-0.076855942606926,0.01778,-0.005461));
#776=CARTESIAN_POINT('',(-0.0760664753979656,0.01778,-0.00401098533594441));
#777=CARTESIAN_POINT('',(-0.0760664753979573,0.01778,-0.00401098533593952));
#778=CARTESIAN_POINT('',(-0.0771657331221609,0.01778,-0.00264508866079879));
#779=CARTESIAN_POINT('',(-0.0778111086443695,0.01778,-0.000990478451286143));
#780=CARTESIAN_POINT('',(-0.0782041659694418,0.01778,0.000715613087575412));
#781=CARTESIAN_POINT('',(-0.05715,0.,0.02032));
#782=CARTESIAN_POINT('',(-0.05715,0.,0.02032));
#783=CARTESIAN_POINT('',(-0.05715,0.00836143482289828,0.02032));
#784=CARTESIAN_POINT('',(-0.1016,0.00734029893155834,0.0163158017165805));
#785=CARTESIAN_POINT('',(-0.1016,0.00660602182076811,0.0149697611086218));
#786=CARTESIAN_POINT('',(-0.101054865498997,0.00500008818366217,0.0133404926845155));
#787=CARTESIAN_POINT('',(-0.100334360252134,0.00227595803605783,0.0121699985146212));
#788=CARTESIAN_POINT('',(-0.100090511318695,5.29787083189371E-6,0.0118540239634894));
#789=CARTESIAN_POINT('',(-0.100331176295369,-0.0022606755933783,0.0121653099527953));
#790=CARTESIAN_POINT('',(-0.101055146745963,-0.00500367565848424,0.0133401546255332));
#791=CARTESIAN_POINT('',(-0.1016,-0.00660536354434315,0.0149685543887252));
#792=CARTESIAN_POINT('',(-0.1016,-0.00734029893155833,0.0163158017165805));
#793=CARTESIAN_POINT('',(-0.1016,-0.00802190305212979,0.0226785299912883));
#794=CARTESIAN_POINT('',(-0.1016,-0.00775404226638579,0.0235895861417899));
#795=CARTESIAN_POINT('',(-0.101261644044022,-0.00692014519965041,0.0252689318739063));
#796=CARTESIAN_POINT('',(-0.100192889789963,-0.00504742787511595,0.0271488109491928));
#797=CARTESIAN_POINT('',(-0.0991947240986257,-0.00315665364817006,0.0281493358223758));
#798=CARTESIAN_POINT('',(-0.0986161453697625,-0.00141580028023116,0.0285994750919944));
#799=CARTESIAN_POINT('',(-0.0984387986143172,-7.88603648034735E-6,0.0287218788382149));
#800=CARTESIAN_POINT('',(-0.0986131648544858,0.00140536285786176,0.0286016009272452));
#801=CARTESIAN_POINT('',(-0.0991927845630972,0.00315324618694847,0.0281514169746114));
#802=CARTESIAN_POINT('',(-0.100192442575097,0.00504674116740749,0.0271479503602971));
#803=CARTESIAN_POINT('',(-0.101257886590628,0.00691256020222351,0.0252802957477121));
#804=CARTESIAN_POINT('',(-0.1016,0.00775424740434502,0.0235888884204011));
#805=CARTESIAN_POINT('',(-0.1016,0.0080219030521298,0.0226785299912883));
#806=CARTESIAN_POINT('',(-0.0825987845984796,0.013335,0.));
#807=CARTESIAN_POINT('',(-0.0825987845984796,-0.013335,0.));
#808=CARTESIAN_POINT('',(-0.0829564386125144,0.013335,0.00416916974804704));
#809=CARTESIAN_POINT('',(-0.0829564386125144,-0.013335,0.00416916974804704));
#810=CARTESIAN_POINT('',(-0.0873794607504827,0.013335,0.0072155893626697));
#811=CARTESIAN_POINT('',(-0.0873794607504827,-0.013335,0.0072155893626697));
#812=CARTESIAN_POINT('',(-0.0958678510123843,0.013335,0.00913925884386797));
#813=CARTESIAN_POINT('',(-0.0958678510123843,-0.013335,0.00913925884386797));
#814=CARTESIAN_POINT('',(-0.0825987845984796,-0.013335,8.09136630657227E-36));
#815=CARTESIAN_POINT('',(-0.0826576373356611,-0.013335,0.000686007700794385));
#816=CARTESIAN_POINT('',(-0.0830125199215002,-0.013335,0.00205013386464322));
#817=CARTESIAN_POINT('',(-0.0841893489444202,-0.013335,0.0037886967001903));
#818=CARTESIAN_POINT('',(-0.0857520949639745,-0.013335,0.00517320208633015));
#819=CARTESIAN_POINT('',(-0.0880948371817471,-0.013335,0.00663355566463192));
#820=CARTESIAN_POINT('',(-0.0912907446713283,-0.013335,0.00794582066353807));
#821=CARTESIAN_POINT('',(-0.0939313023246627,-0.013335,0.008681315599959));
#822=CARTESIAN_POINT('',(-0.095271826261195,-0.013335,0.0090007487728848));
#823=CARTESIAN_POINT('',(-0.0825987845984796,-0.013335,0.));
#824=CARTESIAN_POINT('',(-0.095271826261195,-0.013335,0.0090007487728848));
#825=CARTESIAN_POINT('',(-0.0952718263936755,-0.013335,0.00900074880445355));
#826=CARTESIAN_POINT('',(-0.0954729942730564,-0.0133349999995545,0.00904868505619337));
#827=CARTESIAN_POINT('',(-0.0956716689369318,-0.0133108736188839,0.00909479935736984));
#828=CARTESIAN_POINT('',(-0.0958678509827245,-0.013262947078551,0.00913925883714639));
#829=CARTESIAN_POINT('',(-0.0958678509827245,-0.013262947078551,0.00913925883714639));
#830=CARTESIAN_POINT('',(-0.0958678509827245,-0.013335,0.00913925883714639));
#831=CARTESIAN_POINT('',(-0.0958678509827245,0.013262947078551,0.00913925883714639));
#832=CARTESIAN_POINT('',(-0.0958678509827245,0.013262947078551,0.00913925883714639));
#833=CARTESIAN_POINT('',(-0.0956716689369263,0.0133108736190471,0.00909479935747863));
#834=CARTESIAN_POINT('',(-0.095472994273043,0.013335,0.00904868505648313));
#835=CARTESIAN_POINT('',(-0.0952718263936755,0.013335,0.00900074880445355));
#836=CARTESIAN_POINT('',(-0.0952718263936755,0.013335,0.00900074880445355));
#837=CARTESIAN_POINT('',(-0.0952718263936755,0.013335,0.00900074880445354));
#838=CARTESIAN_POINT('',(-0.093931302365254,0.013335,0.0086813156132295));
#839=CARTESIAN_POINT('',(-0.0912907379790791,0.013335,0.00794574394779269));
#840=CARTESIAN_POINT('',(-0.0880948548593386,0.013335,0.00663376638400551));
#841=CARTESIAN_POINT('',(-0.0857520633625995,0.013335,0.00517283752118625));
#842=CARTESIAN_POINT('',(-0.0841894672910047,0.013335,0.00379008604453868));
#843=CARTESIAN_POINT('',(-0.0830120753365867,0.013335,0.00204493786387817));
#844=CARTESIAN_POINT('',(-0.0826585944039615,0.013335,0.000697202385172912));
#845=CARTESIAN_POINT('',(-0.0825987845984796,0.013335,0.));
#846=CARTESIAN_POINT('',(-0.0825987845984796,0.013335,0.));
#847=CARTESIAN_POINT('',(-0.0825987845984796,0.086868,0.));
#848=CARTESIAN_POINT('',(-0.079375,0.086868,0.0300370529294016));
#849=CARTESIAN_POINT('',(-0.079375,0.013335,0.0300370529294016));
#850=CARTESIAN_POINT('',(-0.05715,0.013335,0.0300370529294015));
#851=CARTESIAN_POINT('',(-0.0942414770618868,0.013335,0.0300370529294016));
#852=CARTESIAN_POINT('',(-0.0942414770618868,-0.013335,0.0300370529294016));
#853=CARTESIAN_POINT('',(-0.0942414770618868,-0.013335,0.0300370529294016));
#854=CARTESIAN_POINT('',(-0.05715,-0.013335,0.0300370529294016));
#855=CARTESIAN_POINT('',(-0.05715,-0.013335,0.0300370529294015));
#856=CARTESIAN_POINT('',(-0.05715,0.086868,0.0300370529294015));
#857=CARTESIAN_POINT('',(-0.05715,0.0177970399660162,-0.00837886294595925));
#858=CARTESIAN_POINT('',(-0.05715,-0.0177970399660161,-0.00837886294595925));
#859=CARTESIAN_POINT('',(-0.0589167258561711,0.0177970399660162,-0.00947645132550733));
#860=CARTESIAN_POINT('',(-0.0589167258561711,-0.0177970399660161,-0.00947645132550733));
#861=CARTESIAN_POINT('',(-0.0605706761321486,0.0177970399660162,-0.0106861314460797));
#862=CARTESIAN_POINT('',(-0.0605706761321486,-0.0177970399660161,-0.0106861314460797));
#863=CARTESIAN_POINT('',(-0.0621118508279324,0.0177970399660162,-0.0120079033076763));
#864=CARTESIAN_POINT('',(-0.0621118508279324,-0.0177970399660161,-0.0120079033076763));
#865=CARTESIAN_POINT('',(-0.05715,0.086868,-0.00837886294595925));
#866=CARTESIAN_POINT('',(-0.05715,0.0175860078715575,-0.00837886294595925));
#867=CARTESIAN_POINT('',(-0.05715,-0.0175860078715574,-0.00837886294595925));
#868=CARTESIAN_POINT('',(-0.05715,-0.0175860078715575,-0.00837886294595925));
#869=CARTESIAN_POINT('',(-0.0577188953432232,-0.0174948533850142,-0.00873229237912263));
#870=CARTESIAN_POINT('',(-0.0588200184760767,-0.0172411438778714,-0.00945406897981009));
#871=CARTESIAN_POINT('',(-0.060362726590907,-0.0165286969590965,-0.0105746596320869));
#872=CARTESIAN_POINT('',(-0.0616689659801165,-0.0153220902175392,-0.011623891522955));
#873=CARTESIAN_POINT('',(-0.0621118508279323,-0.0140200029182374,-0.0120079033076763));
#874=CARTESIAN_POINT('',(-0.0621118508279323,-0.013335,-0.0120079033076763));
#875=CARTESIAN_POINT('',(-0.0621118508279323,-0.013335,-0.0120079033076763));
#876=CARTESIAN_POINT('',(-0.0621118508279324,0.086868,-0.0120079033076763));
#877=CARTESIAN_POINT('',(-0.0621118508279323,0.013335,-0.0120079033076763));
#878=CARTESIAN_POINT('',(-0.0621118508279323,0.013335,-0.0120079033076763));
#879=CARTESIAN_POINT('',(-0.0621118508279323,0.0140207277363694,-0.0120079033076763));
#880=CARTESIAN_POINT('',(-0.0616738151008741,0.0153142875048209,-0.0116278272066083));
#881=CARTESIAN_POINT('',(-0.0603621712612595,0.0165289672858784,-0.0105744498678474));
#882=CARTESIAN_POINT('',(-0.0588349544848369,0.0172359661949263,-0.00946433886751754));
#883=CARTESIAN_POINT('',(-0.0577194464132799,0.0174947650866855,-0.00873263473449572));
#884=CARTESIAN_POINT('',(-0.05715,0.0175860078715574,-0.00837886294595924));
#885=CARTESIAN_POINT('',(-0.0621118508279324,0.013335,-0.0120079033076763));
#886=CARTESIAN_POINT('',(-0.0621118508279324,-0.013335,-0.0120079033076763));
#887=CARTESIAN_POINT('',(-0.073796504487594,0.013335,-0.0131120091925065));
#888=CARTESIAN_POINT('',(-0.073796504487594,-0.013335,-0.0131120091925065));
#889=CARTESIAN_POINT('',(-0.0806254824111097,0.013335,-0.00910937475661436));
#890=CARTESIAN_POINT('',(-0.0806254824111097,-0.013335,-0.00910937475661436));
#891=CARTESIAN_POINT('',(-0.0825987845984796,0.013335,0.));
#892=CARTESIAN_POINT('',(-0.0825987845984796,-0.013335,0.));
#893=CARTESIAN_POINT('',(-0.0621118508279323,-0.013335,-0.0120079033076763));
#894=CARTESIAN_POINT('',(-0.0643137400511682,-0.013335,-0.0122159626539853));
#895=CARTESIAN_POINT('',(-0.0687340414614162,-0.013335,-0.012319402172467));
#896=CARTESIAN_POINT('',(-0.0741726205737631,-0.013335,-0.0110512782788439));
#897=CARTESIAN_POINT('',(-0.0779305033235439,-0.013335,-0.00864890892861138));
#898=CARTESIAN_POINT('',(-0.0809249617812731,-0.013335,-0.00533848690502022));
#899=CARTESIAN_POINT('',(-0.0821279728169298,-0.013335,-0.00217341316774352));
#900=CARTESIAN_POINT('',(-0.0825987845984796,-0.013335,-1.52069620945406E-51));
#901=CARTESIAN_POINT('',(-0.0825987845984796,0.013335,-5.01147772409086E-35));
#902=CARTESIAN_POINT('',(-0.0821296910545566,0.013335,-0.00216548125008568));
#903=CARTESIAN_POINT('',(-0.0809245781654255,0.013335,-0.0053402712469937));
#904=CARTESIAN_POINT('',(-0.0779305695889206,0.013335,-0.00864857949588666));
#905=CARTESIAN_POINT('',(-0.0741726055591453,0.013335,-0.011051471411587));
#906=CARTESIAN_POINT('',(-0.068733843390653,0.013335,-0.0123193120589162));
#907=CARTESIAN_POINT('',(-0.0643141875155146,0.013335,-0.0122160064289123));
#908=CARTESIAN_POINT('',(-0.0621118508279323,0.013335,-0.0120079033076763));
#909=CARTESIAN_POINT('',(-0.05715,0.086868,-0.0127));
#910=CARTESIAN_POINT('',(-0.05715,-0.01778,-0.00707424826619377));
#911=CARTESIAN_POINT('',(-0.05715,-0.01778,-0.00751873516732997));
#912=CARTESIAN_POINT('',(-0.05715,-0.0177153609417763,-0.00795361044238237));
#913=CARTESIAN_POINT('',(-0.05715,-0.0175860078715574,-0.00837886294595925));
#914=CARTESIAN_POINT('',(-0.05715,0.0175860078715574,-0.00837886294595925));
#915=CARTESIAN_POINT('',(-0.05715,0.0177153609417763,-0.00795361044238237));
#916=CARTESIAN_POINT('',(-0.05715,0.01778,-0.00751873516732997));
#917=CARTESIAN_POINT('',(-0.05715,0.01778,-0.00707424826619377));
#918=CARTESIAN_POINT('',(-0.05715,0.013335,0.0255920529294015));
#919=CARTESIAN_POINT('',(-0.05715,-0.013335,0.0255920529294015));
#920=CARTESIAN_POINT('',(-0.076855942606926,0.086868,-0.005461));
#921=CARTESIAN_POINT('',(-0.0760664753979438,-0.01778,-0.00401098533595626));
#922=CARTESIAN_POINT('',(-0.076428406997878,-0.01778,-0.00381392999773944));
#923=CARTESIAN_POINT('',(-0.0772994182511469,-0.0177607778706117,-0.00371237783155099));
#924=CARTESIAN_POINT('',(-0.0783054704405299,-0.0173385307025567,-0.00443110699592222));
#925=CARTESIAN_POINT('',(-0.0785714329477304,-0.0168217143664302,-0.00532293001171516));
#926=CARTESIAN_POINT('',(-0.0784287660137667,-0.0164976523712083,-0.00606930287155665));
#927=CARTESIAN_POINT('',(-0.0781054720178321,-0.0163890694835565,-0.00659983312064423));
#928=CARTESIAN_POINT('',(-0.0776037880333335,-0.0164958941424071,-0.00697300697495726));
#929=CARTESIAN_POINT('',(-0.076869953909172,-0.0168201909448494,-0.00718258214860613));
#930=CARTESIAN_POINT('',(-0.0759559913311195,-0.0173368671065195,-0.00699354666458467));
#931=CARTESIAN_POINT('',(-0.0751550495654744,-0.0177591141848856,-0.00606136512670833));
#932=CARTESIAN_POINT('',(-0.075177451753517,-0.0177799999999997,-0.0051797578526632));
#933=CARTESIAN_POINT('',(-0.0753425511475432,-0.01778,-0.00480111569902947));
#934=CARTESIAN_POINT('',(-0.0753425511475511,0.01778,-0.00480111569901147));
#935=CARTESIAN_POINT('',(-0.0751778395067036,0.01778,-0.00517886857196951));
#936=CARTESIAN_POINT('',(-0.0751527922846803,0.0177603278261969,-0.00605539623667561));
#937=CARTESIAN_POINT('',(-0.0759561030098954,0.0173368076696983,-0.00699466754049305));
#938=CARTESIAN_POINT('',(-0.076868277905031,0.0168211325804094,-0.00718207999577601));
#939=CARTESIAN_POINT('',(-0.0775995706397593,0.0164976981422486,-0.00697455112204642));
#940=CARTESIAN_POINT('',(-0.0780997352581655,0.0163890736221269,-0.00660609129392862));
#941=CARTESIAN_POINT('',(-0.0784275846473248,0.0164958347689607,-0.00607367081624824));
#942=CARTESIAN_POINT('',(-0.0785720832429357,0.0168207641977556,-0.00532456259721542));
#943=CARTESIAN_POINT('',(-0.0783043619055714,0.0173385683237096,-0.00443113067037643));
#944=CARTESIAN_POINT('',(-0.0773055974798349,0.0177595689198034,-0.00371410651173008));
#945=CARTESIAN_POINT('',(-0.0764292626265316,0.0177799999999997,-0.00381346414675745));
#946=CARTESIAN_POINT('',(-0.076066475397965,0.01778,-0.00401098533594473));
#947=CARTESIAN_POINT('',(-0.0650137079113244,0.086868,-0.00835005100816488));
#948=CARTESIAN_POINT('',(-0.0665438861317127,-0.01778,-0.00773008680448238));
#949=CARTESIAN_POINT('',(-0.0667548809864087,-0.01778,-0.00825085837379559));
#950=CARTESIAN_POINT('',(-0.0666272480287377,-0.0175938733802824,-0.00915423150161387));
#951=CARTESIAN_POINT('',(-0.0658093873597649,-0.0172441300774241,-0.00987221581222907));
#952=CARTESIAN_POINT('',(-0.0649778567372051,-0.0171154083754903,-0.0100738639469496));
#953=CARTESIAN_POINT('',(-0.0641508153053252,-0.0172426319361701,-0.00983639515485317));
#954=CARTESIAN_POINT('',(-0.0633638260099479,-0.0175956965168613,-0.00907704368776675));
#955=CARTESIAN_POINT('',(-0.0632783973347531,-0.01778,-0.00817435967369378));
#956=CARTESIAN_POINT('',(-0.0635124906429077,-0.01778,-0.00766292095278418));
#957=CARTESIAN_POINT('',(-0.0635124906429078,0.01778,-0.00766292095278418));
#958=CARTESIAN_POINT('',(-0.0632786383832639,0.01778,-0.00817383303949401));
#959=CARTESIAN_POINT('',(-0.0633662057589668,0.0175939633225174,-0.00908191909510267));
#960=CARTESIAN_POINT('',(-0.0641511064805355,0.0172430548702589,-0.00983532040873201));
#961=CARTESIAN_POINT('',(-0.0649730731016434,0.0171154024254581,-0.0100737613202943));
#962=CARTESIAN_POINT('',(-0.0658096546077016,0.0172437175038021,-0.00987328858696143));
#963=CARTESIAN_POINT('',(-0.0666298302881754,0.0175955975313395,-0.00914947070416761));
#964=CARTESIAN_POINT('',(-0.0667550980319253,0.01778,-0.00825139407943759));
#965=CARTESIAN_POINT('',(-0.0665438861317132,0.01778,-0.00773008680448237));
#966=CARTESIAN_POINT('',(-0.0685863196849823,0.086868,-0.005461));
#967=CARTESIAN_POINT('',(-0.0721656635126045,0.086868,-0.008636));
#968=CARTESIAN_POINT('',(-0.0736103854729491,-0.0175448292212654,-0.00774918047506419));
#969=CARTESIAN_POINT('',(-0.0738318011495505,-0.0172556469643395,-0.00835898212207842));
#970=CARTESIAN_POINT('',(-0.0738200346324015,-0.0169055888239994,-0.00895754136997538));
#971=CARTESIAN_POINT('',(-0.073607037738753,-0.0165380917255907,-0.00951186755514619));
#972=CARTESIAN_POINT('',(-0.0731921481374718,-0.0162163569180173,-0.00998669733908115));
#973=CARTESIAN_POINT('',(-0.0725443095022642,-0.0161089564035913,-0.0102953434226706));
#974=CARTESIAN_POINT('',(-0.0718570225522172,-0.0163379002555688,-0.0102991000342855));
#975=CARTESIAN_POINT('',(-0.0712946903646365,-0.0166894386190618,-0.0100785725861103));
#976=CARTESIAN_POINT('',(-0.0708478322225347,-0.0170595807129931,-0.00968865741622989));
#977=CARTESIAN_POINT('',(-0.070553206069086,-0.017390946819043,-0.00914661144103283));
#978=CARTESIAN_POINT('',(-0.0704754072949715,-0.0176333295592615,-0.00848650994614939));
#979=CARTESIAN_POINT('',(-0.0707412718775306,-0.017788607543349,-0.00759224051001948));
#980=CARTESIAN_POINT('',(-0.0717473561742697,-0.0177757164746011,-0.0068237257028042));
#981=CARTESIAN_POINT('',(-0.0729847946565147,-0.0177735329393552,-0.00707389961748064));
#982=CARTESIAN_POINT('',(-0.0736103854729491,-0.0175448292212654,-0.00774918047506419));
#983=CARTESIAN_POINT('',(-0.0738318011495505,-0.0172556469643395,-0.00835898212207842));
#984=CARTESIAN_POINT('',(-0.0738200346324015,-0.0169055888239994,-0.00895754136997538));
#985=CARTESIAN_POINT('',(-0.0737929374505921,-0.0172455009837705,-0.00835710838889221));
#986=CARTESIAN_POINT('',(-0.0736103854729492,0.0175448292212654,-0.00774918047506419));
#987=CARTESIAN_POINT('',(-0.0738318011495505,0.0172556469643395,-0.00835898212207841));
#988=CARTESIAN_POINT('',(-0.0738200346324015,0.0169055888239994,-0.0089575413699754));
#989=CARTESIAN_POINT('',(-0.073607037738753,0.0165380917255907,-0.00951186755514618));
#990=CARTESIAN_POINT('',(-0.0731921481374718,0.0162163569180173,-0.00998669733908115));
#991=CARTESIAN_POINT('',(-0.0725443095022641,0.0161089564035913,-0.0102953434226706));
#992=CARTESIAN_POINT('',(-0.0718570225522172,0.0163379002555688,-0.0102991000342855));
#993=CARTESIAN_POINT('',(-0.0712946903646365,0.0166894386190618,-0.0100785725861103));
#994=CARTESIAN_POINT('',(-0.0708478322225347,0.0170595807129931,-0.00968865741622989));
#995=CARTESIAN_POINT('',(-0.070553206069086,0.017390946819043,-0.00914661144103283));
#996=CARTESIAN_POINT('',(-0.0704754072949715,0.0176333295592615,-0.00848650994614937));
#997=CARTESIAN_POINT('',(-0.0707412718775306,0.017788607543349,-0.00759224051001949));
#998=CARTESIAN_POINT('',(-0.0717473561742697,0.0177757164746011,-0.00682372570280419));
#999=CARTESIAN_POINT('',(-0.0729847946565147,0.0177735329393552,-0.00707389961748065));
#1000=CARTESIAN_POINT('',(-0.0736103854729492,0.0175448292212654,-0.00774918047506419));
#1001=CARTESIAN_POINT('',(-0.0738318011495505,0.0172556469643395,-0.00835898212207841));
#1002=CARTESIAN_POINT('',(-0.0738200346324015,0.0169055888239994,-0.0089575413699754));
#1003=CARTESIAN_POINT('',(-0.0737929374505921,0.0172455009837705,-0.0083571083888922));
#1004=CARTESIAN_POINT('',(-0.079375,0.013335,0.0255920529294015));
#1005=CARTESIAN_POINT('',(-0.0942414770618868,0.013335,0.0255920529294015));
#1006=CARTESIAN_POINT('',(-0.079375,-0.013335,0.0255920529294015));
#1007=CARTESIAN_POINT('',(-0.0942414770618868,-0.013335,0.0255920529294015));
#1008=CARTESIAN_POINT('',(-0.0952718263936761,-0.013335,0.0090007488044537));
#1009=CARTESIAN_POINT('',(-0.0952718263936761,-0.01778,0.0090007488044537));
#1010=CARTESIAN_POINT('',(-0.0942414770618868,-0.01778,0.0133246828065496));
#1011=CARTESIAN_POINT('',(-0.0936059348873595,-0.013335,0.0086037838647634));
#1012=CARTESIAN_POINT('',(-0.0936059348874245,-0.0177800000000318,0.00860378386542602));
#1013=CARTESIAN_POINT('',(-0.0924374909898394,-0.01778,0.0128948113424723));
#1014=CARTESIAN_POINT('',(-0.0911942291880914,-0.013335,0.00790481872003626));
#1015=CARTESIAN_POINT('',(-0.0911942291880767,-0.0177799999999928,0.00790481871988684));
#1016=CARTESIAN_POINT('',(-0.0897745863858679,-0.01778,0.0121290207624098));
#1017=CARTESIAN_POINT('',(-0.0882974476798932,-0.013335,0.00668073106697914));
#1018=CARTESIAN_POINT('',(-0.0882974476798959,-0.0177800000000014,0.00668073106700733));
#1019=CARTESIAN_POINT('',(-0.0863691148225938,-0.01778,0.0106953808950053));
#1020=CARTESIAN_POINT('',(-0.086350193437785,-0.013335,0.00558787967169091));
#1021=CARTESIAN_POINT('',(-0.0863501934377843,-0.0177799999999996,0.0055878796716832));
#1022=CARTESIAN_POINT('',(-0.0839205245800329,-0.01778,0.00932905603792857));
#1023=CARTESIAN_POINT('',(-0.0850335084534676,-0.013335,0.00456163273381912));
#1024=CARTESIAN_POINT('',(-0.0850335084534676,-0.01778,0.00456163273382008));
#1025=CARTESIAN_POINT('',(-0.0820949604813747,-0.01778,0.00792022271132495));
#1026=CARTESIAN_POINT('',(-0.084171122811671,-0.013335,0.00366011217482764));
#1027=CARTESIAN_POINT('',(-0.084171122811671,-0.01778,0.00366011217482746));
#1028=CARTESIAN_POINT('',(-0.0807946980686739,-0.01778,0.00656527007752192));
#1029=CARTESIAN_POINT('',(-0.0836430025431803,-0.013335,0.00296747590582462));
#1030=CARTESIAN_POINT('',(-0.0836430025431803,-0.01778,0.00296747590582467));
#1031=CARTESIAN_POINT('',(-0.0799522645026411,-0.01778,0.00546395592981841));
#1032=CARTESIAN_POINT('',(-0.0832188268639917,-0.013335,0.002246882641897));
#1033=CARTESIAN_POINT('',(-0.0832188268639917,-0.01778,0.00224688264189698));
#1034=CARTESIAN_POINT('',(-0.0792429397587561,-0.01778,0.00426231321333801));
#1035=CARTESIAN_POINT('',(-0.0829523463974271,-0.013335,0.00162004967575804));
#1036=CARTESIAN_POINT('',(-0.0829523463974271,-0.01778,0.00162004967575805));
#1037=CARTESIAN_POINT('',(-0.0787829065443337,-0.01778,0.00318286844191888));
#1038=CARTESIAN_POINT('',(-0.0827939385976635,-0.013335,0.00111440932943293));
#1039=CARTESIAN_POINT('',(-0.0827939385976635,-0.01778,0.00111440932943293));
#1040=CARTESIAN_POINT('',(-0.0785073965437718,-0.01778,0.00230244356248736));
#1041=CARTESIAN_POINT('',(-0.0826999922071585,-0.0133349999999999,0.000724800074219754));
#1042=CARTESIAN_POINT('',(-0.0826999922071586,-0.0177799999999999,0.000724800074219755));
#1043=CARTESIAN_POINT('',(-0.0783444585503769,-0.0177799999999999,0.00162937041572655));
#1044=CARTESIAN_POINT('',(-0.0826434886531557,-0.0133350000000001,0.000402519653938145));
#1045=CARTESIAN_POINT('',(-0.0826434886531554,-0.0177800000000001,0.000402519653938157));
#1046=CARTESIAN_POINT('',(-0.07824569948634,-0.0177800000000001,0.00105880889034894));
#1047=CARTESIAN_POINT('',(-0.0826133035267876,-0.0133349999999999,0.000152855079341891));
#1048=CARTESIAN_POINT('',(-0.082613303526788,-0.0177799999999998,0.000152855079341874));
#1049=CARTESIAN_POINT('',(-0.0781959740522478,-0.0177799999999998,0.000654176697013085));
#1050=CARTESIAN_POINT('',(-0.0826018784233679,-0.013335,3.84618170839532E-5));
#1051=CARTESIAN_POINT('',(-0.0826018784233672,-0.01778,3.84618170839911E-5));
#1052=CARTESIAN_POINT('',(-0.0781732614724377,-0.01778,0.000421436632176955));
#1053=CARTESIAN_POINT('',(-0.0825923244629198,-0.013335,-7.53057443432641E-5));
#1054=CARTESIAN_POINT('',(-0.0825923244629214,-0.01778,-7.53057443433515E-5));
#1055=CARTESIAN_POINT('',(-0.0781635904282854,-0.01778,0.000304615103283939));
#1056=CARTESIAN_POINT('',(-0.0825873176090113,-0.013335,-0.000133670597046778));
#1057=CARTESIAN_POINT('',(-0.0825873176090113,-0.01778,-0.000133670597046778));
#1058=CARTESIAN_POINT('',(-0.0781585835743759,-0.01778,0.00024625025058052));
#1059=CARTESIAN_POINT('',(-0.0942414770618868,-0.013335,0.0133246828065496));
#1060=CARTESIAN_POINT('',(-0.0825987845984796,-0.013335,0.));
#1061=CARTESIAN_POINT('',(-0.0825987845984796,-0.0145099707362625,0.));
#1062=CARTESIAN_POINT('',(-0.0816470584371927,-0.0168114394361888,0.000139781709928944));
#1063=CARTESIAN_POINT('',(-0.0793454338432666,-0.0177799999999998,0.00051776839285317));
#1064=CARTESIAN_POINT('',(-0.0782041659694436,-0.01778,0.000715613087582589));
#1065=CARTESIAN_POINT('',(-0.0569978951257009,-0.01778,-0.00705987557773277));
#1066=CARTESIAN_POINT('',(-0.0565797409856933,-0.01778,-0.0114851633780001));
#1067=CARTESIAN_POINT('',(-0.0565797409856933,-0.013335,-0.0114851633780001));
#1068=CARTESIAN_POINT('',(-0.0580668543811836,-0.01778,-0.00716088363830534));
#1069=CARTESIAN_POINT('',(-0.0576487002411703,-0.01778,-0.0115861714385704));
#1070=CARTESIAN_POINT('',(-0.057648700241176,-0.013335,-0.0115861714385724));
#1071=CARTESIAN_POINT('',(-0.0596702319786335,-0.01778,-0.00731311715783859));
#1072=CARTESIAN_POINT('',(-0.059246339214271,-0.01778,-0.0117379453055553));
#1073=CARTESIAN_POINT('',(-0.0592463392142696,-0.013335,-0.0117379453055548));
#1074=CARTESIAN_POINT('',(-0.0615410536759331,-0.01778,-0.00748819793027146));
#1075=CARTESIAN_POINT('',(-0.061130551035067,-0.01778,-0.0119140986006068));
#1076=CARTESIAN_POINT('',(-0.0611305510350672,-0.013335,-0.0119140986006069));
#1077=CARTESIAN_POINT('',(-0.062609788216836,-0.01778,-0.00759185122931173));
#1078=CARTESIAN_POINT('',(-0.0621782439533306,-0.01778,-0.0120160665069598));
#1079=CARTESIAN_POINT('',(-0.0621782439533305,-0.013335,-0.0120160665069598));
#1080=CARTESIAN_POINT('',(-0.0636797251452792,-0.01778,-0.00768139769646169));
#1081=CARTESIAN_POINT('',(-0.0634052238787844,-0.01778,-0.0121191415108394));
#1082=CARTESIAN_POINT('',(-0.0634052238787845,-0.013335,-0.0121191415108394));
#1083=CARTESIAN_POINT('',(-0.0650219659155677,-0.01778,-0.00774710374339083));
#1084=CARTESIAN_POINT('',(-0.0649059121229178,-0.01778,-0.012192328022624));
#1085=CARTESIAN_POINT('',(-0.0649059121229178,-0.013335,-0.012192328022624));
#1086=CARTESIAN_POINT('',(-0.0671598723089401,-0.01778,-0.00774261582477425));
#1087=CARTESIAN_POINT('',(-0.0673822670364871,-0.01778,-0.012188009149727));
#1088=CARTESIAN_POINT('',(-0.0673822670364871,-0.013335,-0.012188009149727));
#1089=CARTESIAN_POINT('',(-0.0692975226469375,-0.01778,-0.00754380254368503));
#1090=CARTESIAN_POINT('',(-0.0699522258416481,-0.01778,-0.0119565272378408));
#1091=CARTESIAN_POINT('',(-0.0699522258416481,-0.013335,-0.0119565272378408));
#1092=CARTESIAN_POINT('',(-0.0713917087081909,-0.01778,-0.0070442971771994));
#1093=CARTESIAN_POINT('',(-0.0726629113536859,-0.01778,-0.0113144514973878));
#1094=CARTESIAN_POINT('',(-0.0726629113536859,-0.013335,-0.0113144514973878));
#1095=CARTESIAN_POINT('',(-0.0728868469722889,-0.01778,-0.00649328545187455));
#1096=CARTESIAN_POINT('',(-0.0747199106794051,-0.01778,-0.0105617877238278));
#1097=CARTESIAN_POINT('',(-0.0747199106794051,-0.013335,-0.0105617877238278));
#1098=CARTESIAN_POINT('',(-0.0743148414174453,-0.01778,-0.00570006226533985));
#1099=CARTESIAN_POINT('',(-0.0768270697423468,-0.01778,-0.00939905107030358));
#1100=CARTESIAN_POINT('',(-0.0768270697423468,-0.013335,-0.00939905107030358));
#1101=CARTESIAN_POINT('',(-0.0755465996302276,-0.01778,-0.00467506353776176));
#1102=CARTESIAN_POINT('',(-0.0787372225026778,-0.01778,-0.00781300666230398));
#1103=CARTESIAN_POINT('',(-0.0787372225026778,-0.013335,-0.00781300666230398));
#1104=CARTESIAN_POINT('',(-0.0765727782094,-0.01778,-0.00340119262107891));
#1105=CARTESIAN_POINT('',(-0.0803039367819468,-0.01778,-0.00586046837641002));
#1106=CARTESIAN_POINT('',(-0.0803039367819468,-0.013335,-0.00586046837641002));
#1107=CARTESIAN_POINT('',(-0.0772144006649938,-0.01778,-0.00222739180426356));
#1108=CARTESIAN_POINT('',(-0.081222517921259,-0.01778,-0.00416795029748759));
#1109=CARTESIAN_POINT('',(-0.0812225179212589,-0.013335,-0.00416795029748759));
#1110=CARTESIAN_POINT('',(-0.0776313410633211,-0.01778,-0.00122627112080873));
#1111=CARTESIAN_POINT('',(-0.0817919318391648,-0.01778,-0.00279956448094586));
#1112=CARTESIAN_POINT('',(-0.0817919318391647,-0.013335,-0.00279956448094587));
#1113=CARTESIAN_POINT('',(-0.0778927843806548,-0.01778,-0.000464683191634764));
#1114=CARTESIAN_POINT('',(-0.0821389019670202,-0.01778,-0.00178579146305807));
#1115=CARTESIAN_POINT('',(-0.0821389019670202,-0.013335,-0.00178579146305803));
#1116=CARTESIAN_POINT('',(-0.0781122904552923,-0.01778,0.000307234038637034));
#1117=CARTESIAN_POINT('',(-0.0824179073361472,-0.01778,-0.000806983395814431));
#1118=CARTESIAN_POINT('',(-0.0824179073361469,-0.013335,-0.000806983395814591));
#1119=CARTESIAN_POINT('',(-0.0782301657823539,-0.01778,0.000828525085017982));
#1120=CARTESIAN_POINT('',(-0.0825744061872039,-0.01778,-0.000112538305433878));
#1121=CARTESIAN_POINT('',(-0.0825744061872046,-0.013335,-0.000112538305433535));
#1122=CARTESIAN_POINT('',(-0.0782867505351263,-0.01778,0.00108973784899739));
#1123=CARTESIAN_POINT('',(-0.0826309909399786,-0.01778,0.000148674458545585));
#1124=CARTESIAN_POINT('',(-0.0826309909399786,-0.013335,0.000148674458545585));
#1125=CARTESIAN_POINT('',(-0.0942414770618862,0.01778,0.0133246828065495));
#1126=CARTESIAN_POINT('',(-0.0952718263936755,0.01778,0.00900074880445354));
#1127=CARTESIAN_POINT('',(-0.0952718263936755,0.013335,0.00900074880445355));
#1128=CARTESIAN_POINT('',(-0.092437490989916,0.01778,0.012894811342506));
#1129=CARTESIAN_POINT('',(-0.0936059348874057,0.0177800000000205,0.00860378386544863));
#1130=CARTESIAN_POINT('',(-0.0936059348874399,0.013335,0.00860378386478255));
#1131=CARTESIAN_POINT('',(-0.08977458638585,0.01778,0.012129020762402));
#1132=CARTESIAN_POINT('',(-0.0911942291880804,0.0177799999999954,0.00790481871988155));
#1133=CARTESIAN_POINT('',(-0.0911942291880726,0.013335,0.00790481872003176));
#1134=CARTESIAN_POINT('',(-0.0863691148225966,0.01778,0.0106953808950065));
#1135=CARTESIAN_POINT('',(-0.0882974476798948,0.0177800000000009,0.00668073106700809));
#1136=CARTESIAN_POINT('',(-0.0882974476798962,0.013335,0.00668073106697976));
#1137=CARTESIAN_POINT('',(-0.0839205245800318,0.01778,0.00932905603792807));
#1138=CARTESIAN_POINT('',(-0.0863501934377843,0.0177799999999998,0.00558787967168284));
#1139=CARTESIAN_POINT('',(-0.0863501934377839,0.013335,0.00558787967169059));
#1140=CARTESIAN_POINT('',(-0.0820949604813746,0.01778,0.00792022271132473));
#1141=CARTESIAN_POINT('',(-0.0850335084534675,0.01778,0.00456163273381992));
#1142=CARTESIAN_POINT('',(-0.0850335084534675,0.013335,0.00456163273381896));
#1143=CARTESIAN_POINT('',(-0.0807946980686737,0.01778,0.00656527007752174));
#1144=CARTESIAN_POINT('',(-0.084171122811671,0.01778,0.00366011217482734));
#1145=CARTESIAN_POINT('',(-0.0841711228116709,0.013335,0.00366011217482752));
#1146=CARTESIAN_POINT('',(-0.079952264502641,0.01778,0.00546395592981822));
#1147=CARTESIAN_POINT('',(-0.0836430025431802,0.01778,0.00296747590582454));
#1148=CARTESIAN_POINT('',(-0.0836430025431802,0.013335,0.00296747590582449));
#1149=CARTESIAN_POINT('',(-0.079242939758756,0.01778,0.00426231321333783));
#1150=CARTESIAN_POINT('',(-0.0832188268639917,0.01778,0.0022468826418969));
#1151=CARTESIAN_POINT('',(-0.0832188268639917,0.013335,0.00224688264189691));
#1152=CARTESIAN_POINT('',(-0.0787829065443336,0.01778,0.00318286844191864));
#1153=CARTESIAN_POINT('',(-0.082952346397427,0.01778,0.00162004967575789));
#1154=CARTESIAN_POINT('',(-0.082952346397427,0.013335,0.00162004967575789));
#1155=CARTESIAN_POINT('',(-0.0785073965437719,0.01778,0.00230244356248729));
#1156=CARTESIAN_POINT('',(-0.0827939385976635,0.01778,0.00111440932943291));
#1157=CARTESIAN_POINT('',(-0.0827939385976636,0.013335,0.00111440932943291));
#1158=CARTESIAN_POINT('',(-0.0783444585503767,0.01778,0.0016293704157264));
#1159=CARTESIAN_POINT('',(-0.0826999922071584,0.01778,0.000724800074219605));
#1160=CARTESIAN_POINT('',(-0.0826999922071584,0.013335,0.000724800074219603));
#1161=CARTESIAN_POINT('',(-0.0782456994863403,0.01778,0.00105880889034902));
#1162=CARTESIAN_POINT('',(-0.0826434886531559,0.01778,0.000402519653938315));
#1163=CARTESIAN_POINT('',(-0.0826434886531558,0.013335,0.000402519653938321));
#1164=CARTESIAN_POINT('',(-0.0781959740522474,0.01778,0.00065417669701274));
#1165=CARTESIAN_POINT('',(-0.0826133035267875,0.01778,0.000152855079341534));
#1166=CARTESIAN_POINT('',(-0.0826133035267876,0.013335,0.000152855079341525));
#1167=CARTESIAN_POINT('',(-0.0781732614724384,0.01778,0.000421436632177424));
#1168=CARTESIAN_POINT('',(-0.0826018784233681,0.01778,3.84618170844908E-5));
#1169=CARTESIAN_POINT('',(-0.082601878423368,0.013335,3.84618170845072E-5));
#1170=CARTESIAN_POINT('',(-0.0781635904282837,0.01778,0.000304615103282797));
#1171=CARTESIAN_POINT('',(-0.0825923244629194,0.01778,-7.53057443445039E-5));
#1172=CARTESIAN_POINT('',(-0.0825923244629197,0.013335,-7.53057443445405E-5));
#1173=CARTESIAN_POINT('',(-0.0781585835743759,0.01778,0.000246250250580471));
#1174=CARTESIAN_POINT('',(-0.0825873176090113,0.01778,-0.000133670597046826));
#1175=CARTESIAN_POINT('',(-0.0825873176090113,0.013335,-0.000133670597046826));
#1176=CARTESIAN_POINT('',(-0.0942414770618862,0.013335,0.0133246828065495));
#1177=CARTESIAN_POINT('',(-0.0825987845984796,0.013335,0.));
#1178=CARTESIAN_POINT('',(-0.0825987845984796,0.0145099707362625,0.));
#1179=CARTESIAN_POINT('',(-0.0816470584371929,0.0168114394361887,0.000139781709928725));
#1180=CARTESIAN_POINT('',(-0.0793454338432669,0.0177799999999999,0.000517768392854804));
#1181=CARTESIAN_POINT('',(-0.0782041659694437,0.01778,0.000715613087582792));
#1182=CARTESIAN_POINT('',(-0.0565797409856933,0.013335,-0.0114851633780001));
#1183=CARTESIAN_POINT('',(-0.0565797409856933,0.01778,-0.0114851633780001));
#1184=CARTESIAN_POINT('',(-0.0569978951257009,0.01778,-0.00705987557773277));
#1185=CARTESIAN_POINT('',(-0.0576487002411871,0.013335,-0.0115861714385735));
#1186=CARTESIAN_POINT('',(-0.0576487002411861,0.01778,-0.0115861714385756));
#1187=CARTESIAN_POINT('',(-0.0580668543811947,0.01778,-0.00716088363830534));
#1188=CARTESIAN_POINT('',(-0.059246339214267,0.013335,-0.0117379453055546));
#1189=CARTESIAN_POINT('',(-0.0592463392142673,0.01778,-0.0117379453055541));
#1190=CARTESIAN_POINT('',(-0.0596702319786308,0.01778,-0.0073131171578386));
#1191=CARTESIAN_POINT('',(-0.0611305510350674,0.013335,-0.0119140986006069));
#1192=CARTESIAN_POINT('',(-0.0611305510350673,0.01778,-0.0119140986006069));
#1193=CARTESIAN_POINT('',(-0.0615410536759333,0.01778,-0.00748819793027145));
#1194=CARTESIAN_POINT('',(-0.0621782439533305,0.013335,-0.0120160665069598));
#1195=CARTESIAN_POINT('',(-0.0621782439533305,0.0177800000000001,-0.0120160665069598));
#1196=CARTESIAN_POINT('',(-0.062609788216836,0.0177800000000001,-0.00759185122931173));
#1197=CARTESIAN_POINT('',(-0.0634052238787845,0.013335,-0.0121191415108394));
#1198=CARTESIAN_POINT('',(-0.0634052238787845,0.01778,-0.0121191415108393));
#1199=CARTESIAN_POINT('',(-0.0636797251452792,0.01778,-0.0076813976964617));
#1200=CARTESIAN_POINT('',(-0.0649059121229178,0.013335,-0.012192328022624));
#1201=CARTESIAN_POINT('',(-0.0649059121229178,0.01778,-0.012192328022624));
#1202=CARTESIAN_POINT('',(-0.0650219659155677,0.01778,-0.00774710374339084));
#1203=CARTESIAN_POINT('',(-0.0673822670364871,0.013335,-0.012188009149727));
#1204=CARTESIAN_POINT('',(-0.0673822670364871,0.01778,-0.012188009149727));
#1205=CARTESIAN_POINT('',(-0.0671598723089402,0.01778,-0.00774261582477424));
#1206=CARTESIAN_POINT('',(-0.0699522258416479,0.013335,-0.0119565272378409));
#1207=CARTESIAN_POINT('',(-0.0699522258416479,0.01778,-0.0119565272378409));
#1208=CARTESIAN_POINT('',(-0.0692975226469373,0.01778,-0.00754380254368507));
#1209=CARTESIAN_POINT('',(-0.0726629113536859,0.013335,-0.0113144514973878));
#1210=CARTESIAN_POINT('',(-0.0726629113536859,0.01778,-0.0113144514973878));
#1211=CARTESIAN_POINT('',(-0.0713917087081909,0.01778,-0.00704429717719938));
#1212=CARTESIAN_POINT('',(-0.074719910679405,0.013335,-0.0105617877238278));
#1213=CARTESIAN_POINT('',(-0.074719910679405,0.01778,-0.0105617877238278));
#1214=CARTESIAN_POINT('',(-0.0728868469722888,0.01778,-0.00649328545187459));
#1215=CARTESIAN_POINT('',(-0.0768270697423468,0.013335,-0.00939905107030362));
#1216=CARTESIAN_POINT('',(-0.0768270697423468,0.01778,-0.00939905107030362));
#1217=CARTESIAN_POINT('',(-0.0743148414174454,0.01778,-0.00570006226533987));
#1218=CARTESIAN_POINT('',(-0.0787372225026778,0.013335,-0.00781300666230397));
#1219=CARTESIAN_POINT('',(-0.0787372225026779,0.01778,-0.00781300666230397));
#1220=CARTESIAN_POINT('',(-0.0755465996302275,0.01778,-0.00467506353776175));
#1221=CARTESIAN_POINT('',(-0.0803039367819468,0.013335,-0.00586046837641011));
#1222=CARTESIAN_POINT('',(-0.0803039367819468,0.01778,-0.00586046837641011));
#1223=CARTESIAN_POINT('',(-0.0765727782094001,0.01778,-0.00340119262107898));
#1224=CARTESIAN_POINT('',(-0.081222517921259,0.013335,-0.00416795029748743));
#1225=CARTESIAN_POINT('',(-0.081222517921259,0.01778,-0.00416795029748742));
#1226=CARTESIAN_POINT('',(-0.0772144006649937,0.01778,-0.00222739180426338));
#1227=CARTESIAN_POINT('',(-0.0817919318391647,0.013335,-0.00279956448094625));
#1228=CARTESIAN_POINT('',(-0.0817919318391646,0.01778,-0.00279956448094626));
#1229=CARTESIAN_POINT('',(-0.0776313410633211,0.01778,-0.00122627112080913));
#1230=CARTESIAN_POINT('',(-0.0821389019670206,0.013335,-0.00178579146305659));
#1231=CARTESIAN_POINT('',(-0.0821389019670208,0.01778,-0.00178579146305656));
#1232=CARTESIAN_POINT('',(-0.0778927843806548,0.01778,-0.000464683191633254));
#1233=CARTESIAN_POINT('',(-0.0824179073361458,0.013335,-0.000806983395819985));
#1234=CARTESIAN_POINT('',(-0.0824179073361448,0.01778,-0.000806983395820079));
#1235=CARTESIAN_POINT('',(-0.0781122904552924,0.01778,0.000307234038631386));
#1236=CARTESIAN_POINT('',(-0.0825744061872071,0.013335,-0.00011253830542191));
#1237=CARTESIAN_POINT('',(-0.0825744061872092,0.01778,-0.000112538305421707));
#1238=CARTESIAN_POINT('',(-0.0782301657823539,0.01778,0.000828525085030153));
#1239=CARTESIAN_POINT('',(-0.0826309909399786,0.013335,0.000148674458545585));
#1240=CARTESIAN_POINT('',(-0.0826309909399786,0.01778,0.000148674458545585));
#1241=CARTESIAN_POINT('',(-0.0782867505351263,0.01778,0.00108973784899739));
#1242=CARTESIAN_POINT('',(-0.0952718263936898,0.013335,0.00900074880445695));
#1243=CARTESIAN_POINT('',(-0.0952718263937114,0.0177799999999947,0.00900074880446208));
#1244=CARTESIAN_POINT('',(-0.0942414770619245,0.01778,0.0133246828065532));
#1245=CARTESIAN_POINT('',(-0.0954734288405889,0.0133349999962968,0.00904878860949296));
#1246=CARTESIAN_POINT('',(-0.0957841533639383,0.0177034591992065,0.00912283108974595));
#1247=CARTESIAN_POINT('',(-0.0947928614578484,0.0177799999999972,0.0133767048849982));
#1248=CARTESIAN_POINT('',(-0.0956721128270192,0.0133107651764279,0.00909489995333559));
#1249=CARTESIAN_POINT('',(-0.0962791456366677,0.0175748758095214,0.00923579016385614));
#1250=CARTESIAN_POINT('',(-0.0953349341961224,0.0177187914573935,0.0134265136005821));
#1251=CARTESIAN_POINT('',(-0.0958678509827263,0.0132629470785506,0.00913925883714679));
#1252=CARTESIAN_POINT('',(-0.0967587687998595,0.0173961169460006,0.00934116183246604));
#1253=CARTESIAN_POINT('',(-0.0958678509827294,0.0175980199413199,0.0134743316999168));
#1254=CARTESIAN_POINT('',(-0.0942414770618868,0.01778,0.0133246828065496));
#1255=CARTESIAN_POINT('',(-0.0947902152854491,0.01778,0.0133764552239469));
#1256=CARTESIAN_POINT('',(-0.0953323492980356,0.0177193772562808,0.013426281660008));
#1257=CARTESIAN_POINT('',(-0.0958678509827246,0.0175980199413209,0.0134743316999164));
#1258=CARTESIAN_POINT('',(-0.0958678509827246,0.0175980199413209,0.0134743316999164));
#1259=CARTESIAN_POINT('',(-0.0948854212017858,0.013262947078551,0.0134743316999164));
#1260=CARTESIAN_POINT('',(-0.0942414770618868,0.0104214770618868,-0.0127));
#1261=CARTESIAN_POINT('',(-0.0942414770618868,0.0104214770618868,0.0226785299912883));
#1262=CARTESIAN_POINT('',(-0.0942414770618868,0.0104214770618868,0.0163158017165805));
#1263=CARTESIAN_POINT('',(-0.1016,0.0104214770618868,0.0226785299912883));
#1264=CARTESIAN_POINT('',(-0.1016,0.0104214770618868,0.0226785299912883));
#1265=CARTESIAN_POINT('',(-0.1016,0.0104214770618868,0.0226785299912883));
#1266=CARTESIAN_POINT('',(-0.1016,0.0108028563301432,0.0236417584103521));
#1267=CARTESIAN_POINT('',(-0.101599858829475,0.0110937808910853,0.0233508338204876));
#1268=CARTESIAN_POINT('',(-0.1016,0.011384705480951,0.0230599092595448));
#1269=CARTESIAN_POINT('',(-0.101216951266307,0.0115654970065217,0.0255679175756906));
#1270=CARTESIAN_POINT('',(-0.101446311986225,0.0124908244936671,0.0247478774230683));
#1271=CARTESIAN_POINT('',(-0.101216951266307,0.0133108646462888,0.0238225499359233));
#1272=CARTESIAN_POINT('',(-0.0998527129872777,0.0123734829199782,0.0276086026858246));
#1273=CARTESIAN_POINT('',(-0.100784492138702,0.0142619569294931,0.0265190098588946));
#1274=CARTESIAN_POINT('',(-0.0998527129872777,0.0153515497564231,0.0246305358493797));
#1275=CARTESIAN_POINT('',(-0.0983559419624689,0.0128595780084425,0.0288363060314125));
#1276=CARTESIAN_POINT('',(-0.0996859695515499,0.0157018195809798,0.0279588725103814));
#1277=CARTESIAN_POINT('',(-0.0983559419624689,0.0165792531020109,0.0251166309378441));
#1278=CARTESIAN_POINT('',(-0.0970756321108155,0.0131305783721817,0.0295207565866929));
#1279=CARTESIAN_POINT('',(-0.0983855919924987,0.016753745976577,0.0290107989059784));
#1280=CARTESIAN_POINT('',(-0.0970756321108155,0.0172637036572914,0.0253876313015831));
#1281=CARTESIAN_POINT('',(-0.0956863008561563,0.013297436134301,0.0299421799617716));
#1282=CARTESIAN_POINT('',(-0.0965277740592826,0.0175695218766662,0.0298265748060684));
#1283=CARTESIAN_POINT('',(-0.0956863008561563,0.0176851270323701,0.0255544890637031));
#1284=CARTESIAN_POINT('',(-0.0947230912808772,0.0133349999999982,0.0300370529294015));
#1285=CARTESIAN_POINT('',(-0.0950140159080712,0.0177799999999318,0.0300370529293318));
#1286=CARTESIAN_POINT('',(-0.0947230912808772,0.01778,0.0255920529293986));
#1287=CARTESIAN_POINT('',(-0.0942414770618868,0.013335,0.0300370529294015));
#1288=CARTESIAN_POINT('',(-0.0942414770618868,0.01778,0.0300370529294015));
#1289=CARTESIAN_POINT('',(-0.0942414770618868,0.01778,0.0255920529294015));
#1290=CARTESIAN_POINT('',(-0.0942414770618868,0.0104214770618868,0.0226785299912883));
#1291=CARTESIAN_POINT('',(-0.1016,0.0104214770618868,0.0163158017165806));
#1292=CARTESIAN_POINT('',(-0.1016,0.0104214770618868,0.0163158017165805));
#1293=CARTESIAN_POINT('',(-0.1016,0.0104214770618868,0.0163158017165806));
#1294=CARTESIAN_POINT('',(-0.1016,0.0112480458958966,0.01598853124694));
#1295=CARTESIAN_POINT('',(-0.101599878858271,0.0109983967013019,0.0157388820771674));
#1296=CARTESIAN_POINT('',(-0.1016,0.0107487475315273,0.0154892328825711));
#1297=CARTESIAN_POINT('',(-0.101318811475175,0.0129009760461133,0.0153340724719578));
#1298=CARTESIAN_POINT('',(-0.101488186725922,0.0121855800157087,0.0145516987627577));
#1299=CARTESIAN_POINT('',(-0.101318811475175,0.0114032063065096,0.0138363027323539));
#1300=CARTESIAN_POINT('',(-0.100100927016344,0.0151016191371548,0.014462753026701));
#1301=CARTESIAN_POINT('',(-0.100917385844367,0.014009278413942,0.0127280003645257));
#1302=CARTESIAN_POINT('',(-0.100100927016344,0.0122745257517664,0.0116356596413126));
#1303=CARTESIAN_POINT('',(-0.0982238826473573,0.0167757687876321,0.013799892633449));
#1304=CARTESIAN_POINT('',(-0.0996322371343787,0.0159346189061915,0.0108026598722757));
#1305=CARTESIAN_POINT('',(-0.0982238826473582,0.0129373861450183,0.00996150999083543));
#1306=CARTESIAN_POINT('',(-0.0966739783585133,0.0174153324603316,0.0135466647171352));
#1307=CARTESIAN_POINT('',(-0.0978937934616998,0.0170360528205735,0.00970122595789414));
#1308=CARTESIAN_POINT('',(-0.0966739783585114,0.0131906140613321,0.00932194631813536));
#1309=CARTESIAN_POINT('',(-0.0958678509827245,0.017598019941321,0.0134743316999164));
#1310=CARTESIAN_POINT('',(-0.0967587687998551,0.0173961169460023,0.00934116183246509));
#1311=CARTESIAN_POINT('',(-0.0958678509827245,0.013262947078551,0.00913925883714639));
#1312=CARTESIAN_POINT('',(-0.0942414770618868,0.0104214770618868,0.0163158017165805));
#1313=CARTESIAN_POINT('',(-0.0942414770618868,0.086868,0.0226785299912883));
#1314=CARTESIAN_POINT('',(-0.0942414770618868,-0.0104214770618868,0.0226785299912883));
#1315=CARTESIAN_POINT('',(-0.0942414770618868,4.17603064615173E-17,0.0163158017165805));
#1316=CARTESIAN_POINT('',(-0.0942414770618868,-0.0104214770618868,0.0163158017165805));
#1317=CARTESIAN_POINT('',(-0.1016,-0.0104214770618868,0.0226785299912883));
#1318=CARTESIAN_POINT('',(-0.1016,-0.0104214770618868,0.0226785299912883));
#1319=CARTESIAN_POINT('',(-0.1016,-0.0104214770618868,0.0226785299912883));
#1320=CARTESIAN_POINT('',(-0.1016,-0.011384705480951,0.0230599092595448));
#1321=CARTESIAN_POINT('',(-0.101599858829475,-0.0110937808910853,0.0233508338204876));
#1322=CARTESIAN_POINT('',(-0.1016,-0.0108028563301432,0.0236417584103521));
#1323=CARTESIAN_POINT('',(-0.101216951266307,-0.0133108646462888,0.0238225499359233));
#1324=CARTESIAN_POINT('',(-0.101446311986225,-0.0124908244936671,0.0247478774230683));
#1325=CARTESIAN_POINT('',(-0.101216951266307,-0.0115654970065217,0.0255679175756906));
#1326=CARTESIAN_POINT('',(-0.0998527129872777,-0.0153515497564231,0.0246305358493797));
#1327=CARTESIAN_POINT('',(-0.100784492138702,-0.0142619569294931,0.0265190098588946));
#1328=CARTESIAN_POINT('',(-0.0998527129872777,-0.0123734829199782,0.0276086026858246));
#1329=CARTESIAN_POINT('',(-0.0983559419624689,-0.0165792531020109,0.0251166309378441));
#1330=CARTESIAN_POINT('',(-0.0996859695515499,-0.0157018195809798,0.0279588725103814));
#1331=CARTESIAN_POINT('',(-0.0983559419624689,-0.0128595780084425,0.0288363060314125));
#1332=CARTESIAN_POINT('',(-0.0970756321108155,-0.0172637036572914,0.0253876313015831));
#1333=CARTESIAN_POINT('',(-0.0983855919924987,-0.016753745976577,0.0290107989059784));
#1334=CARTESIAN_POINT('',(-0.0970756321108155,-0.0131305783721817,0.0295207565866929));
#1335=CARTESIAN_POINT('',(-0.0956863008561563,-0.0176851270323701,0.0255544890637031));
#1336=CARTESIAN_POINT('',(-0.0965277740592826,-0.0175695218766662,0.0298265748060684));
#1337=CARTESIAN_POINT('',(-0.0956863008561563,-0.013297436134301,0.0299421799617716));
#1338=CARTESIAN_POINT('',(-0.0947230912808772,-0.01778,0.0255920529293986));
#1339=CARTESIAN_POINT('',(-0.0950140159080712,-0.0177799999999318,0.0300370529293318));
#1340=CARTESIAN_POINT('',(-0.0947230912808772,-0.0133349999999982,0.0300370529294015));
#1341=CARTESIAN_POINT('',(-0.0942414770618868,-0.01778,0.0255920529294015));
#1342=CARTESIAN_POINT('',(-0.0942414770618868,-0.01778,0.0300370529294015));
#1343=CARTESIAN_POINT('',(-0.0942414770618868,-0.013335,0.0300370529294015));
#1344=CARTESIAN_POINT('',(-0.0942414770618868,-0.0104214770618868,0.0226785299912883));
#1345=CARTESIAN_POINT('',(-0.1016,-0.0104214770618868,0.0163158017165805));
#1346=CARTESIAN_POINT('',(-0.1016,-0.0104214770618868,0.0163158017165805));
#1347=CARTESIAN_POINT('',(-0.1016,-0.0104214770618868,0.0163158017165805));
#1348=CARTESIAN_POINT('',(-0.1016,-0.0107487475315269,0.0154892328825711));
#1349=CARTESIAN_POINT('',(-0.101599878858271,-0.0109983967013011,0.0157388820771674));
#1350=CARTESIAN_POINT('',(-0.1016,-0.0112480458958954,0.01598853124694));
#1351=CARTESIAN_POINT('',(-0.101318811475176,-0.0114032063065097,0.0138363027323541));
#1352=CARTESIAN_POINT('',(-0.101488186725923,-0.012185580015709,0.0145516987627578));
#1353=CARTESIAN_POINT('',(-0.101318811475176,-0.0129009760461137,0.0153340724719578));
#1354=CARTESIAN_POINT('',(-0.100100927016341,-0.0122745257517663,0.0116356596413118));
#1355=CARTESIAN_POINT('',(-0.100917385844362,-0.0140092784139423,0.0127280003645252));
#1356=CARTESIAN_POINT('',(-0.100100927016341,-0.0151016191371554,0.014462753026701));
#1357=CARTESIAN_POINT('',(-0.0982238826473709,-0.0129373861450183,0.00996150999083832));
#1358=CARTESIAN_POINT('',(-0.0996322371343972,-0.0159346189061887,0.0108026598722786));
#1359=CARTESIAN_POINT('',(-0.0982238826473699,-0.0167757687876293,0.013799892633449));
#1360=CARTESIAN_POINT('',(-0.096673978358484,-0.0131906140613321,0.00932194631812914));
#1361=CARTESIAN_POINT('',(-0.0978937934616554,-0.0170360528205809,0.00970122595788648));
#1362=CARTESIAN_POINT('',(-0.0966739783584863,-0.0174153324603377,0.0135466647171352));
#1363=CARTESIAN_POINT('',(-0.0958678509827245,-0.013262947078551,0.00913925883714639));
#1364=CARTESIAN_POINT('',(-0.0967587687998551,-0.0173961169460023,0.00934116183246509));
#1365=CARTESIAN_POINT('',(-0.0958678509827245,-0.017598019941321,0.0134743316999164));
#1366=CARTESIAN_POINT('',(-0.0942414770618868,-0.0104214770618868,0.0163158017165805));
#1367=CARTESIAN_POINT('',(-0.0958678509827246,-0.017598019941321,0.0134743316999164));
#1368=CARTESIAN_POINT('',(-0.0948854212017858,-0.013262947078551,0.0134743316999164));
#1369=CARTESIAN_POINT('',(-0.0942414770618868,-0.0104214770618868,-0.0127));
#1370=CARTESIAN_POINT('',(-0.0942414770618868,-0.01778,0.0133246828065496));
#1371=CARTESIAN_POINT('',(-0.0947902152854505,-0.01778,0.013376455223947));
#1372=CARTESIAN_POINT('',(-0.0953323492980342,-0.0177193772562812,0.0134262816600078));
#1373=CARTESIAN_POINT('',(-0.0958678509827246,-0.017598019941321,0.0134743316999164));
#1374=CARTESIAN_POINT('',(-0.094241477061885,-0.01778,0.0133246828065495));
#1375=CARTESIAN_POINT('',(-0.0952718263936745,-0.0177800000000002,0.00900074880445331));
#1376=CARTESIAN_POINT('',(-0.0952718263936755,-0.013335,0.00900074880445355));
#1377=CARTESIAN_POINT('',(-0.0947928614709962,-0.0177800000000001,0.0133767048862331));
#1378=CARTESIAN_POINT('',(-0.0957841533760202,-0.017703459197398,0.00912283109262012));
#1379=CARTESIAN_POINT('',(-0.0954734288453698,-0.0133349999962968,0.00904878861063229));
#1380=CARTESIAN_POINT('',(-0.0953349341977666,-0.0177187914570205,0.0134265136007298));
#1381=CARTESIAN_POINT('',(-0.0962791456381723,-0.0175748758089708,0.00923579016418501));
#1382=CARTESIAN_POINT('',(-0.0956721128276231,-0.0133107651762869,0.00909489995347246));
#1383=CARTESIAN_POINT('',(-0.0958678509827244,-0.017598019941321,0.0134743316999163));
#1384=CARTESIAN_POINT('',(-0.096758768799855,-0.0173961169460023,0.00934116183246508));
#1385=CARTESIAN_POINT('',(-0.0958678509827245,-0.013262947078551,0.00913925883714638));
#1386=MECHANICAL_DESIGN_GEOMETRIC_PRESENTATION_REPRESENTATION('',(#520),
#1387);
#1387=(
GEOMETRIC_REPRESENTATION_CONTEXT(3)
GLOBAL_UNCERTAINTY_ASSIGNED_CONTEXT((#1388))
GLOBAL_UNIT_ASSIGNED_CONTEXT((#1391,#1390,#1389))
REPRESENTATION_CONTEXT('Part 1','TOP_LEVEL_ASSEMBLY_PART')
);
#1388=UNCERTAINTY_MEASURE_WITH_UNIT(LENGTH_MEASURE(2.E-5),#1391,
'DISTANCE_ACCURACY_VALUE','Maximum Tolerance applied to model');
#1389=(
NAMED_UNIT(*)
SI_UNIT($,.STERADIAN.)
SOLID_ANGLE_UNIT()
);
#1390=(
NAMED_UNIT(*)
PLANE_ANGLE_UNIT()
SI_UNIT($,.RADIAN.)
);
#1391=(
LENGTH_UNIT()
NAMED_UNIT(*)
SI_UNIT($,.METRE.)
);
#1392=PRODUCT_DEFINITION_SHAPE('','',#1393);
#1393=PRODUCT_DEFINITION('','',#1395,#1394);
#1394=PRODUCT_DEFINITION_CONTEXT('',#1401,'design');
#1395=PRODUCT_DEFINITION_FORMATION_WITH_SPECIFIED_SOURCE('','',#1397,
 .NOT_KNOWN.);
#1396=PRODUCT_RELATED_PRODUCT_CATEGORY('','',(#1397));
#1397=PRODUCT('Part 1','Part 1','Part 1',(#1399));
#1398=PRODUCT_CATEGORY('','');
#1399=PRODUCT_CONTEXT('',#1401,'mechanical');
#1400=APPLICATION_PROTOCOL_DEFINITION('international standard',
'ap242_managed_model_based_3d_engineering',2020,#1401);
#1401=APPLICATION_CONTEXT('managed model based 3d engineering');
ENDSEC;
END-ISO-10303-21;
